; NON-PLATED HOLES START AT T1
; THROUGH (PLATED) HOLES START AT T100
M48
INCH
T100C0.038194
T101C0.040000
%
T100
X016532Y020550
X033132Y001550
X034132Y001550
X026132Y001550
X032132Y001550
X016132Y001550
X038132Y003550
X038132Y016550
X007532Y020550
X014132Y001550
X031132Y001550
X038132Y011550
X023132Y020550
X037132Y003550
X012132Y001550
X038132Y010550
X030132Y020550
X025132Y001550
X033132Y020550
X021132Y020550
X037132Y020550
X037132Y007550
X009532Y020550
X024132Y020550
X020132Y020550
X018132Y001550
X025132Y020550
X038132Y008550
X037132Y006550
X030132Y001550
X038132Y007550
X038132Y017550
X019132Y020550
X020132Y001550
X037132Y017550
X024132Y001550
X037132Y012550
X018132Y020550
X038132Y013550
X022132Y001550
X037132Y019550
X035132Y001550
X037132Y018550
X032132Y020550
X038132Y005550
X015132Y001550
X038132Y020550
X037132Y014550
X038132Y004550
X029132Y020550
X038132Y006550
X037132Y011550
X037132Y015550
X014532Y020550
X037132Y009550
X037132Y004550
X031132Y020550
X038132Y015550
X037132Y016550
X038132Y012550
X008532Y020550
X037132Y010550
X027132Y020550
X029132Y001550
X021132Y001550
X038132Y019550
X013532Y020550
X038132Y009550
X022132Y020550
X015532Y020550
X037132Y008550
X027132Y001550
X038132Y018550
X011532Y020550
X038132Y014550
X013132Y001550
X023132Y001550
X011132Y001550
X017132Y001550
X012532Y020550
X037132Y005550
X028132Y020550
X037132Y013550
X034132Y020550
X036132Y001550
X010532Y020550
T101
X020132Y009050
X012132Y012050
X017132Y012150
X022132Y012050
X032132Y012050
X011132Y012150
X010132Y009050
X018132Y012050
X028132Y009050
X018132Y009050
X025132Y012150
X007132Y008950
X019132Y008950
X011132Y008950
X023132Y008950
X020132Y012050
X003132Y012150
X024132Y009050
X013132Y012150
X026132Y012050
X033132Y008950
X010132Y012050
X022132Y009050
X016132Y012050
X008132Y012050
X025132Y008950
X024132Y012050
X021132Y008950
X021132Y012150
X009132Y008950
X027132Y012150
X026132Y009050
X034132Y012050
X029132Y012150
X006132Y009050
X029132Y008950
X015132Y008950
X002132Y009050
X030132Y012050
X014132Y012050
X004132Y009050
X009132Y012150
X007132Y012150
X005132Y008950
X016132Y009050
X004132Y012050
X003132Y008950
X028132Y012050
X008132Y009050
X023132Y012150
X033132Y012150
X013132Y008950
X019132Y012150
X017132Y008950
X031132Y008950
X006132Y012050
X005132Y012150
X012132Y009050
X027132Y008950
X014132Y009050
X030132Y009050
X032132Y009050
X031132Y012150
X015132Y012150
T00
M30
