G04 MADE WITH FRITZING*
G04 WWW.FRITZING.ORG*
G04 DOUBLE SIDED*
G04 HOLES PLATED*
G04 CONTOUR ON CENTER OF CONTOUR VECTOR*
%ASAXBY*%
%FSLAX23Y23*%
%MOIN*%
%OFA0B0*%
%SFA1.0B1.0*%
%ADD10C,0.039370*%
%ADD11C,0.072917*%
%ADD12C,0.074000*%
%ADD13C,0.059370*%
%ADD14C,0.048000*%
%ADD15C,0.024000*%
%ADD16R,0.001000X0.001000*%
%LNCOPPER1*%
G90*
G70*
G54D10*
X163Y1049D03*
X563Y1099D03*
X513Y1099D03*
X463Y1099D03*
X563Y1049D03*
X563Y999D03*
X513Y1049D03*
X513Y999D03*
X463Y1049D03*
X463Y999D03*
X213Y999D03*
X263Y1099D03*
X213Y1049D03*
X263Y999D03*
X213Y1099D03*
X163Y999D03*
X263Y1049D03*
X163Y1099D03*
G54D11*
X1963Y99D03*
X363Y99D03*
X2063Y99D03*
X2163Y99D03*
X2263Y99D03*
X2363Y99D03*
X2663Y1499D03*
X2463Y99D03*
X2563Y99D03*
X403Y1999D03*
X963Y99D03*
X1063Y99D03*
X1163Y99D03*
X1263Y99D03*
X2663Y699D03*
X1363Y99D03*
X1463Y99D03*
X1563Y99D03*
X1663Y99D03*
X1163Y1999D03*
X2663Y1899D03*
X2663Y1099D03*
X2663Y299D03*
X763Y99D03*
X763Y1999D03*
X2663Y1699D03*
X2663Y1299D03*
X2663Y899D03*
X2363Y1999D03*
X2663Y499D03*
X2263Y1999D03*
X2163Y1999D03*
X2063Y1999D03*
X1963Y1999D03*
X1863Y1999D03*
X1763Y1999D03*
X1663Y1999D03*
X203Y1999D03*
X603Y1999D03*
X163Y99D03*
X563Y99D03*
X1363Y1999D03*
X963Y1999D03*
X2663Y1999D03*
X2663Y1799D03*
X2663Y1599D03*
X2663Y1399D03*
X2663Y1199D03*
X2663Y999D03*
X2663Y799D03*
X2663Y599D03*
X2663Y399D03*
X103Y1999D03*
X303Y1999D03*
X503Y1999D03*
X63Y99D03*
X263Y99D03*
X463Y99D03*
X663Y99D03*
X1463Y1999D03*
X1263Y1999D03*
X1063Y1999D03*
X863Y1999D03*
X2763Y1999D03*
X2763Y1899D03*
X2763Y1799D03*
X2763Y1699D03*
X2763Y1599D03*
X2763Y1499D03*
X2763Y1399D03*
X2763Y1299D03*
X2763Y1199D03*
X2763Y1099D03*
X2763Y999D03*
X2763Y899D03*
X2763Y799D03*
X2763Y699D03*
X2763Y599D03*
X2763Y499D03*
X2763Y399D03*
X2763Y299D03*
X1863Y99D03*
G54D12*
X1953Y1199D03*
X1963Y1299D03*
X1953Y1399D03*
X1963Y1499D03*
X1953Y1199D03*
X1963Y1299D03*
X1953Y1399D03*
X1963Y1499D03*
X2253Y1199D03*
X2263Y1299D03*
X2253Y1399D03*
X2263Y1499D03*
X2253Y1199D03*
X2263Y1299D03*
X2253Y1399D03*
X2263Y1499D03*
X1373Y899D03*
X1363Y799D03*
X1373Y699D03*
X1363Y599D03*
X1373Y899D03*
X1363Y799D03*
X1373Y699D03*
X1363Y599D03*
X1973Y899D03*
X1963Y799D03*
X1973Y699D03*
X1963Y599D03*
X1973Y899D03*
X1963Y799D03*
X1973Y699D03*
X1963Y599D03*
X2273Y899D03*
X2263Y799D03*
X2273Y699D03*
X2263Y599D03*
X2273Y899D03*
X2263Y799D03*
X2273Y699D03*
X2263Y599D03*
X173Y899D03*
X163Y799D03*
X173Y699D03*
X163Y599D03*
X173Y899D03*
X163Y799D03*
X173Y699D03*
X163Y599D03*
X1673Y899D03*
X1663Y799D03*
X1673Y699D03*
X1663Y599D03*
X1673Y899D03*
X1663Y799D03*
X1673Y699D03*
X1663Y599D03*
X1073Y899D03*
X1063Y799D03*
X1073Y699D03*
X1063Y599D03*
X1073Y899D03*
X1063Y799D03*
X1073Y699D03*
X1063Y599D03*
X473Y899D03*
X463Y799D03*
X473Y699D03*
X463Y599D03*
X473Y899D03*
X463Y799D03*
X473Y699D03*
X463Y599D03*
X153Y1199D03*
X163Y1299D03*
X153Y1399D03*
X163Y1499D03*
X153Y1199D03*
X163Y1299D03*
X153Y1399D03*
X163Y1499D03*
X453Y1199D03*
X463Y1299D03*
X453Y1399D03*
X463Y1499D03*
X453Y1199D03*
X463Y1299D03*
X453Y1399D03*
X463Y1499D03*
X753Y1199D03*
X763Y1299D03*
X753Y1399D03*
X763Y1499D03*
X753Y1199D03*
X763Y1299D03*
X753Y1399D03*
X763Y1499D03*
X1053Y1199D03*
X1063Y1299D03*
X1053Y1399D03*
X1063Y1499D03*
X1053Y1199D03*
X1063Y1299D03*
X1053Y1399D03*
X1063Y1499D03*
X1353Y1199D03*
X1363Y1299D03*
X1353Y1399D03*
X1363Y1499D03*
X1353Y1199D03*
X1363Y1299D03*
X1353Y1399D03*
X1363Y1499D03*
X1653Y1199D03*
X1663Y1299D03*
X1653Y1399D03*
X1663Y1499D03*
X1653Y1199D03*
X1663Y1299D03*
X1653Y1399D03*
X1663Y1499D03*
X773Y899D03*
X763Y799D03*
X773Y699D03*
X763Y599D03*
X773Y899D03*
X763Y799D03*
X773Y699D03*
X763Y599D03*
G54D10*
X63Y399D03*
X113Y399D03*
X163Y399D03*
X263Y399D03*
X213Y499D03*
X163Y499D03*
X113Y499D03*
X213Y399D03*
X63Y299D03*
X262Y299D03*
X113Y199D03*
X113Y299D03*
X163Y199D03*
X163Y299D03*
X213Y199D03*
X213Y299D03*
G54D13*
X263Y499D03*
X263Y199D03*
X63Y499D03*
X63Y199D03*
X263Y499D03*
X263Y199D03*
X63Y499D03*
X63Y199D03*
G54D10*
X63Y399D03*
G54D14*
X1764Y1899D02*
X1664Y1799D01*
D02*
X1713Y1747D02*
X1364Y1599D01*
D02*
X1864Y1799D02*
X1713Y1747D01*
D02*
X2063Y1749D02*
X1961Y1699D01*
D02*
X1626Y1980D02*
X1464Y1899D01*
D02*
X1464Y1899D02*
X462Y1599D01*
D02*
X262Y1398D02*
X195Y1399D01*
D02*
X262Y1499D02*
X262Y1398D01*
D02*
X462Y1599D02*
X262Y1499D01*
D02*
X1664Y1899D02*
X763Y1599D01*
D02*
X1733Y1970D02*
X1664Y1899D01*
D02*
X563Y1400D02*
X495Y1399D01*
D02*
X562Y1499D02*
X563Y1400D01*
D02*
X763Y1599D02*
X562Y1499D01*
D02*
X1861Y1899D02*
X1764Y1899D01*
D02*
X1063Y1599D02*
X863Y1499D01*
D02*
X863Y1499D02*
X863Y1398D01*
D02*
X863Y1398D02*
X795Y1399D01*
D02*
X1664Y1799D02*
X1063Y1599D01*
D02*
X1862Y1958D02*
X1861Y1899D01*
D02*
X1163Y1499D02*
X1162Y1400D01*
D02*
X1162Y1400D02*
X1095Y1399D01*
D02*
X1364Y1599D02*
X1163Y1499D01*
D02*
X1962Y1958D02*
X1961Y1899D01*
D02*
X1861Y1799D02*
X1864Y1799D01*
D02*
X1961Y1899D02*
X1861Y1799D01*
D02*
X2161Y1799D02*
X2362Y1799D01*
D02*
X2161Y1699D02*
X1764Y1499D01*
D02*
X2362Y1799D02*
X2362Y1699D01*
D02*
X2162Y1958D02*
X2161Y1799D01*
D02*
X1763Y1398D02*
X1695Y1399D01*
D02*
X1764Y1499D02*
X1763Y1398D01*
D02*
X2362Y1699D02*
X2161Y1699D01*
D02*
X2063Y1958D02*
X2063Y1749D01*
D02*
X1462Y1400D02*
X1395Y1399D01*
D02*
X1464Y1499D02*
X1462Y1400D01*
D02*
X1962Y1798D02*
X1861Y1699D01*
D02*
X1961Y1699D02*
X1962Y1798D01*
D02*
X1664Y1599D02*
X1464Y1499D01*
D02*
X1861Y1699D02*
X1664Y1599D01*
D02*
X2462Y1899D02*
X2463Y1498D01*
D02*
X2262Y1899D02*
X2462Y1899D01*
D02*
X2063Y1449D02*
X1991Y1416D01*
D02*
X2163Y1398D02*
X2063Y1449D01*
D02*
X2163Y1499D02*
X2163Y1398D01*
D02*
X2063Y1549D02*
X2163Y1499D01*
D02*
X2262Y1958D02*
X2262Y1899D01*
D02*
X2362Y1599D02*
X2161Y1599D01*
D02*
X2463Y1498D02*
X2362Y1599D01*
D02*
X2161Y1599D02*
X2063Y1549D01*
D02*
X2404Y1999D02*
X2562Y2000D01*
D02*
X2464Y1400D02*
X2295Y1399D01*
D02*
X2362Y1199D02*
X2464Y1400D01*
D02*
X2563Y1199D02*
X2362Y1199D01*
D02*
X2562Y2000D02*
X2563Y1199D01*
D02*
X2364Y699D02*
X2315Y699D01*
D02*
X2061Y699D02*
X2015Y699D01*
D02*
X1764Y699D02*
X1715Y699D01*
D02*
X1464Y699D02*
X1415Y699D01*
D02*
X1164Y699D02*
X1115Y699D01*
D02*
X2362Y497D02*
X2363Y599D01*
D02*
X2362Y397D02*
X2163Y498D01*
D02*
X2363Y599D02*
X2364Y699D01*
D02*
X2163Y498D02*
X2362Y497D01*
D02*
X2562Y140D02*
X2562Y200D01*
D02*
X2562Y200D02*
X2362Y397D01*
D02*
X2061Y598D02*
X2061Y699D01*
D02*
X2262Y140D02*
X2262Y200D01*
D02*
X2061Y497D02*
X2061Y598D01*
D02*
X2262Y200D02*
X2061Y397D01*
D02*
X2061Y397D02*
X1862Y498D01*
D02*
X1862Y498D02*
X2061Y497D01*
D02*
X1961Y200D02*
X1764Y397D01*
D02*
X1562Y498D02*
X1764Y497D01*
D02*
X1764Y497D02*
X1764Y598D01*
D02*
X1764Y397D02*
X1562Y498D01*
D02*
X1962Y140D02*
X1961Y200D01*
D02*
X1764Y598D02*
X1764Y699D01*
D02*
X1664Y200D02*
X1464Y397D01*
D02*
X1464Y598D02*
X1464Y699D01*
D02*
X1464Y397D02*
X1264Y498D01*
D02*
X1464Y497D02*
X1464Y598D01*
D02*
X1663Y140D02*
X1664Y200D01*
D02*
X1264Y498D02*
X1464Y497D01*
D02*
X1163Y397D02*
X963Y498D01*
D02*
X1163Y497D02*
X1163Y598D01*
D02*
X1363Y140D02*
X1364Y200D01*
D02*
X963Y498D02*
X1163Y497D01*
D02*
X1364Y200D02*
X1163Y397D01*
D02*
X1163Y598D02*
X1164Y699D01*
D02*
X864Y699D02*
X815Y699D01*
D02*
X863Y598D02*
X864Y699D01*
D02*
X863Y497D02*
X863Y598D01*
D02*
X963Y299D02*
X762Y498D01*
D02*
X762Y498D02*
X863Y497D01*
D02*
X1163Y140D02*
X1163Y199D01*
D02*
X1163Y199D02*
X1063Y299D01*
D02*
X1063Y299D02*
X963Y299D01*
D02*
X463Y1099D02*
X452Y1199D01*
D02*
X452Y1199D02*
X460Y1129D01*
G54D15*
D02*
X176Y1062D02*
X199Y1085D01*
D02*
X263Y1068D02*
X263Y1080D01*
D02*
X232Y1099D02*
X244Y1099D01*
D02*
X194Y1099D02*
X182Y1099D01*
D02*
X469Y930D02*
X464Y980D01*
G54D14*
D02*
X457Y1157D02*
X463Y1099D01*
D02*
X63Y799D02*
X63Y1099D01*
D02*
X63Y1099D02*
X136Y1062D01*
D02*
X120Y799D02*
X63Y799D01*
D02*
X62Y999D02*
X136Y1036D01*
D02*
X63Y1299D02*
X62Y999D01*
D02*
X120Y1299D02*
X63Y1299D01*
G54D15*
D02*
X194Y999D02*
X182Y999D01*
D02*
X182Y1049D02*
X194Y1049D01*
D02*
X263Y1018D02*
X263Y1030D01*
D02*
X249Y1012D02*
X226Y1035D01*
D02*
X199Y1012D02*
X176Y1035D01*
D02*
X249Y1085D02*
X226Y1062D01*
D02*
X226Y1085D02*
X249Y1062D01*
D02*
X244Y1049D02*
X232Y1049D01*
D02*
X176Y1085D02*
X199Y1062D01*
D02*
X163Y1068D02*
X163Y1080D01*
D02*
X526Y1085D02*
X549Y1062D01*
D02*
X526Y1062D02*
X549Y1085D01*
D02*
X563Y1068D02*
X563Y1080D01*
D02*
X544Y1099D02*
X532Y1099D01*
D02*
X482Y1099D02*
X494Y1099D01*
D02*
X476Y1062D02*
X499Y1085D01*
D02*
X163Y1018D02*
X163Y1030D01*
D02*
X249Y1035D02*
X226Y1012D01*
D02*
X499Y1035D02*
X476Y1012D01*
D02*
X482Y999D02*
X494Y999D01*
D02*
X499Y1012D02*
X476Y1035D01*
D02*
X463Y1018D02*
X463Y1030D01*
D02*
X563Y1030D02*
X563Y1018D01*
D02*
X526Y1035D02*
X549Y1012D01*
D02*
X532Y999D02*
X544Y999D01*
D02*
X513Y1030D02*
X513Y1018D01*
D02*
X463Y1068D02*
X463Y1080D01*
D02*
X476Y1085D02*
X499Y1062D01*
G54D14*
D02*
X501Y971D02*
X488Y938D01*
G54D15*
D02*
X232Y999D02*
X244Y999D01*
D02*
X532Y1049D02*
X544Y1049D01*
D02*
X513Y1068D02*
X513Y1080D01*
G54D14*
D02*
X63Y1099D02*
X141Y1020D01*
D02*
X63Y1099D02*
X132Y1099D01*
D02*
X62Y999D02*
X132Y999D01*
D02*
X62Y999D02*
X141Y1078D01*
D02*
X474Y1163D02*
X497Y1125D01*
D02*
X484Y1171D02*
X540Y1119D01*
G54D15*
D02*
X493Y922D02*
X550Y985D01*
G54D14*
D02*
X1995Y1199D02*
X2210Y1199D01*
D02*
X2005Y1299D02*
X2220Y1299D01*
D02*
X1705Y1299D02*
X1920Y1299D01*
D02*
X1405Y1299D02*
X1620Y1299D01*
D02*
X1105Y1299D02*
X1320Y1299D01*
D02*
X805Y1299D02*
X1020Y1299D01*
D02*
X505Y1299D02*
X720Y1299D01*
D02*
X426Y1299D02*
X199Y1299D01*
D02*
X1630Y899D02*
X1415Y899D01*
D02*
X1930Y899D02*
X1715Y899D01*
D02*
X2230Y899D02*
X2015Y899D01*
D02*
X420Y799D02*
X205Y799D01*
D02*
X720Y799D02*
X505Y799D01*
D02*
X1020Y799D02*
X805Y799D01*
D02*
X1620Y799D02*
X1405Y799D01*
D02*
X2220Y799D02*
X2005Y799D01*
D02*
X1695Y1199D02*
X1910Y1199D01*
D02*
X1610Y1199D02*
X1395Y1199D01*
D02*
X1095Y1199D02*
X1310Y1199D01*
D02*
X795Y1199D02*
X1010Y1199D01*
D02*
X495Y1199D02*
X710Y1199D01*
D02*
X410Y1199D02*
X195Y1199D01*
D02*
X430Y899D02*
X215Y899D01*
D02*
X730Y899D02*
X515Y899D01*
D02*
X1030Y899D02*
X815Y899D01*
D02*
X1920Y799D02*
X1705Y799D01*
D02*
X261Y699D02*
X215Y699D01*
D02*
X263Y599D02*
X261Y699D01*
D02*
X813Y199D02*
X263Y599D01*
D02*
X928Y122D02*
X813Y199D01*
D02*
X562Y497D02*
X563Y599D01*
D02*
X564Y699D02*
X515Y699D01*
D02*
X563Y599D02*
X564Y699D01*
D02*
X1013Y199D02*
X863Y249D01*
D02*
X1044Y136D02*
X1013Y199D01*
D02*
X163Y269D02*
X163Y229D01*
D02*
X213Y269D02*
X213Y229D01*
D02*
X63Y269D02*
X63Y241D01*
D02*
X262Y241D02*
X262Y269D01*
D02*
X199Y226D02*
X176Y272D01*
D02*
X99Y226D02*
X76Y272D01*
D02*
X232Y299D02*
X243Y299D01*
D02*
X113Y269D02*
X113Y229D01*
D02*
X150Y226D02*
X126Y272D01*
D02*
X263Y140D02*
X263Y157D01*
D02*
X241Y420D02*
X184Y478D01*
D02*
X213Y469D02*
X213Y429D01*
D02*
X63Y429D02*
X63Y457D01*
D02*
X99Y472D02*
X76Y426D01*
D02*
X184Y478D02*
X263Y399D01*
D02*
X243Y399D02*
X232Y399D01*
D02*
X163Y499D02*
X126Y426D01*
D02*
X263Y399D02*
X263Y499D01*
D02*
X163Y429D02*
X163Y499D01*
D02*
X113Y429D02*
X113Y469D01*
D02*
X263Y499D02*
X263Y399D01*
D02*
X263Y399D02*
X213Y499D01*
D02*
X213Y499D02*
X176Y426D01*
D02*
X562Y248D02*
X295Y472D01*
D02*
X562Y140D02*
X562Y248D01*
D02*
X244Y399D02*
X182Y399D01*
G54D15*
D02*
X171Y482D02*
X204Y416D01*
G54D16*
X0Y2035D02*
X7Y2035D01*
X0Y2034D02*
X12Y2034D01*
X0Y2033D02*
X14Y2033D01*
X0Y2032D02*
X17Y2032D01*
X0Y2031D02*
X19Y2031D01*
X0Y2030D02*
X21Y2030D01*
X0Y2029D02*
X22Y2029D01*
X0Y2028D02*
X24Y2028D01*
X0Y2027D02*
X25Y2027D01*
X0Y2026D02*
X26Y2026D01*
X0Y2025D02*
X27Y2025D01*
X0Y2024D02*
X28Y2024D01*
X0Y2023D02*
X29Y2023D01*
X0Y2022D02*
X30Y2022D01*
X0Y2021D02*
X31Y2021D01*
X0Y2020D02*
X31Y2020D01*
X0Y2019D02*
X32Y2019D01*
X5Y2018D02*
X33Y2018D01*
X10Y2017D02*
X33Y2017D01*
X12Y2016D02*
X34Y2016D01*
X13Y2015D02*
X34Y2015D01*
X14Y2014D02*
X35Y2014D01*
X16Y2013D02*
X35Y2013D01*
X17Y2012D02*
X35Y2012D01*
X17Y2011D02*
X36Y2011D01*
X18Y2010D02*
X36Y2010D01*
X19Y2009D02*
X36Y2009D01*
X20Y2008D02*
X37Y2008D01*
X20Y2007D02*
X37Y2007D01*
X20Y2006D02*
X37Y2006D01*
X21Y2005D02*
X37Y2005D01*
X21Y2004D02*
X38Y2004D01*
X21Y2003D02*
X38Y2003D01*
X21Y2002D02*
X38Y2002D01*
X21Y2001D02*
X38Y2001D01*
X22Y2000D02*
X38Y2000D01*
X22Y1999D02*
X38Y1999D01*
X22Y1998D02*
X38Y1998D01*
X21Y1997D02*
X38Y1997D01*
X21Y1996D02*
X38Y1996D01*
X21Y1995D02*
X38Y1995D01*
X21Y1994D02*
X38Y1994D01*
X21Y1993D02*
X37Y1993D01*
X20Y1992D02*
X37Y1992D01*
X20Y1991D02*
X37Y1991D01*
X19Y1990D02*
X37Y1990D01*
X19Y1989D02*
X36Y1989D01*
X18Y1988D02*
X36Y1988D01*
X17Y1987D02*
X36Y1987D01*
X16Y1986D02*
X35Y1986D01*
X15Y1985D02*
X35Y1985D01*
X14Y1984D02*
X35Y1984D01*
X13Y1983D02*
X34Y1983D01*
X11Y1982D02*
X34Y1982D01*
X9Y1981D02*
X33Y1981D01*
X0Y1980D02*
X32Y1980D01*
X0Y1979D02*
X32Y1979D01*
X0Y1978D02*
X31Y1978D01*
X0Y1977D02*
X30Y1977D01*
X0Y1976D02*
X30Y1976D01*
X0Y1975D02*
X29Y1975D01*
X0Y1974D02*
X28Y1974D01*
X0Y1973D02*
X27Y1973D01*
X0Y1972D02*
X26Y1972D01*
X0Y1971D02*
X25Y1971D01*
X0Y1970D02*
X23Y1970D01*
X0Y1969D02*
X22Y1969D01*
X0Y1968D02*
X20Y1968D01*
X0Y1967D02*
X18Y1967D01*
X0Y1966D02*
X16Y1966D01*
X0Y1965D02*
X14Y1965D01*
X0Y1964D02*
X11Y1964D01*
X0Y1963D02*
X6Y1963D01*
X116Y1236D02*
X188Y1236D01*
X416Y1236D02*
X488Y1236D01*
X716Y1236D02*
X788Y1236D01*
X1016Y1236D02*
X1088Y1236D01*
X1316Y1236D02*
X1388Y1236D01*
X1616Y1236D02*
X1688Y1236D01*
X1916Y1236D02*
X1988Y1236D01*
X2216Y1236D02*
X2288Y1236D01*
X116Y1235D02*
X189Y1235D01*
X416Y1235D02*
X489Y1235D01*
X716Y1235D02*
X789Y1235D01*
X1016Y1235D02*
X1089Y1235D01*
X1316Y1235D02*
X1389Y1235D01*
X1616Y1235D02*
X1689Y1235D01*
X1916Y1235D02*
X1989Y1235D01*
X2215Y1235D02*
X2289Y1235D01*
X116Y1234D02*
X189Y1234D01*
X416Y1234D02*
X489Y1234D01*
X716Y1234D02*
X789Y1234D01*
X1016Y1234D02*
X1089Y1234D01*
X1316Y1234D02*
X1389Y1234D01*
X1616Y1234D02*
X1689Y1234D01*
X1916Y1234D02*
X1989Y1234D01*
X2215Y1234D02*
X2289Y1234D01*
X116Y1233D02*
X189Y1233D01*
X416Y1233D02*
X489Y1233D01*
X716Y1233D02*
X789Y1233D01*
X1016Y1233D02*
X1089Y1233D01*
X1316Y1233D02*
X1389Y1233D01*
X1616Y1233D02*
X1689Y1233D01*
X1916Y1233D02*
X1989Y1233D01*
X2215Y1233D02*
X2289Y1233D01*
X116Y1232D02*
X189Y1232D01*
X416Y1232D02*
X489Y1232D01*
X716Y1232D02*
X789Y1232D01*
X1016Y1232D02*
X1089Y1232D01*
X1316Y1232D02*
X1389Y1232D01*
X1616Y1232D02*
X1689Y1232D01*
X1916Y1232D02*
X1989Y1232D01*
X2215Y1232D02*
X2289Y1232D01*
X116Y1231D02*
X189Y1231D01*
X416Y1231D02*
X489Y1231D01*
X716Y1231D02*
X789Y1231D01*
X1016Y1231D02*
X1089Y1231D01*
X1316Y1231D02*
X1389Y1231D01*
X1616Y1231D02*
X1689Y1231D01*
X1916Y1231D02*
X1989Y1231D01*
X2215Y1231D02*
X2289Y1231D01*
X116Y1230D02*
X189Y1230D01*
X416Y1230D02*
X489Y1230D01*
X716Y1230D02*
X789Y1230D01*
X1016Y1230D02*
X1089Y1230D01*
X1316Y1230D02*
X1389Y1230D01*
X1616Y1230D02*
X1689Y1230D01*
X1916Y1230D02*
X1989Y1230D01*
X2215Y1230D02*
X2289Y1230D01*
X116Y1229D02*
X189Y1229D01*
X416Y1229D02*
X489Y1229D01*
X716Y1229D02*
X789Y1229D01*
X1016Y1229D02*
X1089Y1229D01*
X1316Y1229D02*
X1389Y1229D01*
X1616Y1229D02*
X1689Y1229D01*
X1916Y1229D02*
X1989Y1229D01*
X2215Y1229D02*
X2289Y1229D01*
X116Y1228D02*
X189Y1228D01*
X416Y1228D02*
X489Y1228D01*
X716Y1228D02*
X789Y1228D01*
X1016Y1228D02*
X1089Y1228D01*
X1316Y1228D02*
X1389Y1228D01*
X1616Y1228D02*
X1689Y1228D01*
X1916Y1228D02*
X1989Y1228D01*
X2215Y1228D02*
X2289Y1228D01*
X116Y1227D02*
X189Y1227D01*
X416Y1227D02*
X489Y1227D01*
X716Y1227D02*
X789Y1227D01*
X1016Y1227D02*
X1089Y1227D01*
X1316Y1227D02*
X1389Y1227D01*
X1616Y1227D02*
X1689Y1227D01*
X1916Y1227D02*
X1989Y1227D01*
X2215Y1227D02*
X2289Y1227D01*
X116Y1226D02*
X189Y1226D01*
X416Y1226D02*
X489Y1226D01*
X716Y1226D02*
X789Y1226D01*
X1016Y1226D02*
X1089Y1226D01*
X1316Y1226D02*
X1389Y1226D01*
X1616Y1226D02*
X1689Y1226D01*
X1916Y1226D02*
X1989Y1226D01*
X2215Y1226D02*
X2289Y1226D01*
X116Y1225D02*
X189Y1225D01*
X416Y1225D02*
X489Y1225D01*
X716Y1225D02*
X789Y1225D01*
X1016Y1225D02*
X1089Y1225D01*
X1316Y1225D02*
X1389Y1225D01*
X1616Y1225D02*
X1689Y1225D01*
X1916Y1225D02*
X1989Y1225D01*
X2215Y1225D02*
X2289Y1225D01*
X116Y1224D02*
X189Y1224D01*
X416Y1224D02*
X489Y1224D01*
X716Y1224D02*
X789Y1224D01*
X1016Y1224D02*
X1089Y1224D01*
X1316Y1224D02*
X1389Y1224D01*
X1616Y1224D02*
X1689Y1224D01*
X1916Y1224D02*
X1989Y1224D01*
X2215Y1224D02*
X2289Y1224D01*
X116Y1223D02*
X189Y1223D01*
X416Y1223D02*
X489Y1223D01*
X716Y1223D02*
X789Y1223D01*
X1016Y1223D02*
X1089Y1223D01*
X1316Y1223D02*
X1389Y1223D01*
X1616Y1223D02*
X1689Y1223D01*
X1916Y1223D02*
X1989Y1223D01*
X2215Y1223D02*
X2289Y1223D01*
X116Y1222D02*
X189Y1222D01*
X416Y1222D02*
X489Y1222D01*
X716Y1222D02*
X789Y1222D01*
X1016Y1222D02*
X1089Y1222D01*
X1316Y1222D02*
X1389Y1222D01*
X1616Y1222D02*
X1689Y1222D01*
X1916Y1222D02*
X1989Y1222D01*
X2215Y1222D02*
X2289Y1222D01*
X116Y1221D02*
X189Y1221D01*
X416Y1221D02*
X489Y1221D01*
X716Y1221D02*
X789Y1221D01*
X1016Y1221D02*
X1089Y1221D01*
X1316Y1221D02*
X1389Y1221D01*
X1616Y1221D02*
X1689Y1221D01*
X1916Y1221D02*
X1989Y1221D01*
X2215Y1221D02*
X2289Y1221D01*
X116Y1220D02*
X189Y1220D01*
X416Y1220D02*
X489Y1220D01*
X716Y1220D02*
X789Y1220D01*
X1016Y1220D02*
X1089Y1220D01*
X1316Y1220D02*
X1389Y1220D01*
X1616Y1220D02*
X1689Y1220D01*
X1916Y1220D02*
X1989Y1220D01*
X2215Y1220D02*
X2289Y1220D01*
X116Y1219D02*
X149Y1219D01*
X155Y1219D02*
X189Y1219D01*
X416Y1219D02*
X449Y1219D01*
X455Y1219D02*
X489Y1219D01*
X716Y1219D02*
X749Y1219D01*
X755Y1219D02*
X789Y1219D01*
X1016Y1219D02*
X1049Y1219D01*
X1055Y1219D02*
X1089Y1219D01*
X1316Y1219D02*
X1349Y1219D01*
X1355Y1219D02*
X1389Y1219D01*
X1616Y1219D02*
X1649Y1219D01*
X1655Y1219D02*
X1689Y1219D01*
X1916Y1219D02*
X1949Y1219D01*
X1955Y1219D02*
X1989Y1219D01*
X2215Y1219D02*
X2249Y1219D01*
X2255Y1219D02*
X2289Y1219D01*
X116Y1218D02*
X145Y1218D01*
X159Y1218D02*
X189Y1218D01*
X416Y1218D02*
X445Y1218D01*
X459Y1218D02*
X489Y1218D01*
X716Y1218D02*
X745Y1218D01*
X759Y1218D02*
X789Y1218D01*
X1016Y1218D02*
X1045Y1218D01*
X1059Y1218D02*
X1089Y1218D01*
X1316Y1218D02*
X1345Y1218D01*
X1359Y1218D02*
X1389Y1218D01*
X1616Y1218D02*
X1645Y1218D01*
X1659Y1218D02*
X1689Y1218D01*
X1916Y1218D02*
X1945Y1218D01*
X1959Y1218D02*
X1989Y1218D01*
X2215Y1218D02*
X2245Y1218D01*
X2259Y1218D02*
X2289Y1218D01*
X116Y1217D02*
X143Y1217D01*
X162Y1217D02*
X189Y1217D01*
X416Y1217D02*
X443Y1217D01*
X462Y1217D02*
X489Y1217D01*
X716Y1217D02*
X743Y1217D01*
X762Y1217D02*
X789Y1217D01*
X1016Y1217D02*
X1043Y1217D01*
X1062Y1217D02*
X1089Y1217D01*
X1316Y1217D02*
X1343Y1217D01*
X1362Y1217D02*
X1389Y1217D01*
X1616Y1217D02*
X1643Y1217D01*
X1662Y1217D02*
X1689Y1217D01*
X1916Y1217D02*
X1943Y1217D01*
X1961Y1217D02*
X1989Y1217D01*
X2215Y1217D02*
X2243Y1217D01*
X2261Y1217D02*
X2289Y1217D01*
X116Y1216D02*
X141Y1216D01*
X163Y1216D02*
X189Y1216D01*
X416Y1216D02*
X441Y1216D01*
X463Y1216D02*
X489Y1216D01*
X716Y1216D02*
X741Y1216D01*
X763Y1216D02*
X789Y1216D01*
X1016Y1216D02*
X1041Y1216D01*
X1063Y1216D02*
X1089Y1216D01*
X1316Y1216D02*
X1341Y1216D01*
X1363Y1216D02*
X1389Y1216D01*
X1616Y1216D02*
X1641Y1216D01*
X1663Y1216D02*
X1689Y1216D01*
X1916Y1216D02*
X1941Y1216D01*
X1963Y1216D02*
X1989Y1216D01*
X2215Y1216D02*
X2241Y1216D01*
X2263Y1216D02*
X2289Y1216D01*
X116Y1215D02*
X139Y1215D01*
X165Y1215D02*
X189Y1215D01*
X416Y1215D02*
X439Y1215D01*
X465Y1215D02*
X489Y1215D01*
X716Y1215D02*
X739Y1215D01*
X765Y1215D02*
X789Y1215D01*
X1016Y1215D02*
X1039Y1215D01*
X1065Y1215D02*
X1089Y1215D01*
X1316Y1215D02*
X1339Y1215D01*
X1365Y1215D02*
X1389Y1215D01*
X1616Y1215D02*
X1639Y1215D01*
X1665Y1215D02*
X1689Y1215D01*
X1916Y1215D02*
X1939Y1215D01*
X1965Y1215D02*
X1989Y1215D01*
X2215Y1215D02*
X2239Y1215D01*
X2265Y1215D02*
X2289Y1215D01*
X116Y1214D02*
X138Y1214D01*
X166Y1214D02*
X189Y1214D01*
X416Y1214D02*
X438Y1214D01*
X466Y1214D02*
X489Y1214D01*
X716Y1214D02*
X738Y1214D01*
X766Y1214D02*
X789Y1214D01*
X1016Y1214D02*
X1038Y1214D01*
X1066Y1214D02*
X1089Y1214D01*
X1316Y1214D02*
X1338Y1214D01*
X1366Y1214D02*
X1389Y1214D01*
X1616Y1214D02*
X1638Y1214D01*
X1666Y1214D02*
X1689Y1214D01*
X1916Y1214D02*
X1938Y1214D01*
X1966Y1214D02*
X1989Y1214D01*
X2215Y1214D02*
X2238Y1214D01*
X2266Y1214D02*
X2289Y1214D01*
X116Y1213D02*
X137Y1213D01*
X167Y1213D02*
X189Y1213D01*
X416Y1213D02*
X437Y1213D01*
X467Y1213D02*
X489Y1213D01*
X716Y1213D02*
X737Y1213D01*
X767Y1213D02*
X789Y1213D01*
X1016Y1213D02*
X1037Y1213D01*
X1067Y1213D02*
X1089Y1213D01*
X1316Y1213D02*
X1337Y1213D01*
X1367Y1213D02*
X1389Y1213D01*
X1616Y1213D02*
X1637Y1213D01*
X1667Y1213D02*
X1689Y1213D01*
X1916Y1213D02*
X1937Y1213D01*
X1967Y1213D02*
X1989Y1213D01*
X2215Y1213D02*
X2237Y1213D01*
X2267Y1213D02*
X2289Y1213D01*
X116Y1212D02*
X136Y1212D01*
X168Y1212D02*
X189Y1212D01*
X416Y1212D02*
X436Y1212D01*
X468Y1212D02*
X489Y1212D01*
X716Y1212D02*
X736Y1212D01*
X768Y1212D02*
X789Y1212D01*
X1016Y1212D02*
X1036Y1212D01*
X1068Y1212D02*
X1089Y1212D01*
X1316Y1212D02*
X1336Y1212D01*
X1368Y1212D02*
X1389Y1212D01*
X1616Y1212D02*
X1636Y1212D01*
X1668Y1212D02*
X1689Y1212D01*
X1916Y1212D02*
X1936Y1212D01*
X1968Y1212D02*
X1989Y1212D01*
X2215Y1212D02*
X2236Y1212D01*
X2268Y1212D02*
X2289Y1212D01*
X116Y1211D02*
X135Y1211D01*
X169Y1211D02*
X189Y1211D01*
X416Y1211D02*
X435Y1211D01*
X469Y1211D02*
X489Y1211D01*
X716Y1211D02*
X735Y1211D01*
X769Y1211D02*
X789Y1211D01*
X1016Y1211D02*
X1035Y1211D01*
X1069Y1211D02*
X1089Y1211D01*
X1316Y1211D02*
X1335Y1211D01*
X1369Y1211D02*
X1389Y1211D01*
X1616Y1211D02*
X1635Y1211D01*
X1669Y1211D02*
X1689Y1211D01*
X1916Y1211D02*
X1935Y1211D01*
X1969Y1211D02*
X1989Y1211D01*
X2215Y1211D02*
X2235Y1211D01*
X2269Y1211D02*
X2289Y1211D01*
X116Y1210D02*
X135Y1210D01*
X169Y1210D02*
X189Y1210D01*
X416Y1210D02*
X435Y1210D01*
X469Y1210D02*
X489Y1210D01*
X716Y1210D02*
X735Y1210D01*
X769Y1210D02*
X789Y1210D01*
X1016Y1210D02*
X1035Y1210D01*
X1069Y1210D02*
X1089Y1210D01*
X1316Y1210D02*
X1335Y1210D01*
X1369Y1210D02*
X1389Y1210D01*
X1616Y1210D02*
X1635Y1210D01*
X1669Y1210D02*
X1689Y1210D01*
X1916Y1210D02*
X1935Y1210D01*
X1969Y1210D02*
X1989Y1210D01*
X2215Y1210D02*
X2235Y1210D01*
X2269Y1210D02*
X2289Y1210D01*
X116Y1209D02*
X134Y1209D01*
X170Y1209D02*
X189Y1209D01*
X416Y1209D02*
X434Y1209D01*
X470Y1209D02*
X489Y1209D01*
X716Y1209D02*
X734Y1209D01*
X770Y1209D02*
X789Y1209D01*
X1016Y1209D02*
X1034Y1209D01*
X1070Y1209D02*
X1089Y1209D01*
X1316Y1209D02*
X1334Y1209D01*
X1370Y1209D02*
X1389Y1209D01*
X1616Y1209D02*
X1634Y1209D01*
X1670Y1209D02*
X1689Y1209D01*
X1916Y1209D02*
X1934Y1209D01*
X1970Y1209D02*
X1989Y1209D01*
X2215Y1209D02*
X2234Y1209D01*
X2270Y1209D02*
X2289Y1209D01*
X116Y1208D02*
X134Y1208D01*
X170Y1208D02*
X189Y1208D01*
X416Y1208D02*
X434Y1208D01*
X470Y1208D02*
X489Y1208D01*
X716Y1208D02*
X734Y1208D01*
X770Y1208D02*
X789Y1208D01*
X1016Y1208D02*
X1034Y1208D01*
X1070Y1208D02*
X1089Y1208D01*
X1316Y1208D02*
X1334Y1208D01*
X1370Y1208D02*
X1389Y1208D01*
X1616Y1208D02*
X1634Y1208D01*
X1670Y1208D02*
X1689Y1208D01*
X1916Y1208D02*
X1934Y1208D01*
X1970Y1208D02*
X1989Y1208D01*
X2215Y1208D02*
X2234Y1208D01*
X2270Y1208D02*
X2289Y1208D01*
X116Y1207D02*
X133Y1207D01*
X171Y1207D02*
X189Y1207D01*
X416Y1207D02*
X433Y1207D01*
X471Y1207D02*
X489Y1207D01*
X716Y1207D02*
X733Y1207D01*
X771Y1207D02*
X789Y1207D01*
X1016Y1207D02*
X1033Y1207D01*
X1071Y1207D02*
X1089Y1207D01*
X1316Y1207D02*
X1333Y1207D01*
X1371Y1207D02*
X1389Y1207D01*
X1616Y1207D02*
X1633Y1207D01*
X1671Y1207D02*
X1689Y1207D01*
X1916Y1207D02*
X1933Y1207D01*
X1971Y1207D02*
X1989Y1207D01*
X2215Y1207D02*
X2233Y1207D01*
X2271Y1207D02*
X2289Y1207D01*
X116Y1206D02*
X133Y1206D01*
X171Y1206D02*
X189Y1206D01*
X416Y1206D02*
X433Y1206D01*
X471Y1206D02*
X489Y1206D01*
X716Y1206D02*
X733Y1206D01*
X771Y1206D02*
X789Y1206D01*
X1016Y1206D02*
X1033Y1206D01*
X1071Y1206D02*
X1089Y1206D01*
X1316Y1206D02*
X1333Y1206D01*
X1371Y1206D02*
X1389Y1206D01*
X1616Y1206D02*
X1633Y1206D01*
X1671Y1206D02*
X1689Y1206D01*
X1916Y1206D02*
X1933Y1206D01*
X1971Y1206D02*
X1989Y1206D01*
X2215Y1206D02*
X2233Y1206D01*
X2271Y1206D02*
X2289Y1206D01*
X116Y1205D02*
X132Y1205D01*
X172Y1205D02*
X189Y1205D01*
X416Y1205D02*
X432Y1205D01*
X472Y1205D02*
X489Y1205D01*
X716Y1205D02*
X732Y1205D01*
X772Y1205D02*
X789Y1205D01*
X1016Y1205D02*
X1032Y1205D01*
X1072Y1205D02*
X1089Y1205D01*
X1316Y1205D02*
X1332Y1205D01*
X1372Y1205D02*
X1389Y1205D01*
X1616Y1205D02*
X1632Y1205D01*
X1672Y1205D02*
X1689Y1205D01*
X1916Y1205D02*
X1932Y1205D01*
X1972Y1205D02*
X1989Y1205D01*
X2215Y1205D02*
X2232Y1205D01*
X2272Y1205D02*
X2289Y1205D01*
X116Y1204D02*
X132Y1204D01*
X172Y1204D02*
X189Y1204D01*
X416Y1204D02*
X432Y1204D01*
X472Y1204D02*
X489Y1204D01*
X716Y1204D02*
X732Y1204D01*
X772Y1204D02*
X789Y1204D01*
X1016Y1204D02*
X1032Y1204D01*
X1072Y1204D02*
X1089Y1204D01*
X1316Y1204D02*
X1332Y1204D01*
X1372Y1204D02*
X1389Y1204D01*
X1616Y1204D02*
X1632Y1204D01*
X1672Y1204D02*
X1689Y1204D01*
X1916Y1204D02*
X1932Y1204D01*
X1972Y1204D02*
X1989Y1204D01*
X2215Y1204D02*
X2232Y1204D01*
X2272Y1204D02*
X2289Y1204D01*
X116Y1203D02*
X132Y1203D01*
X172Y1203D02*
X189Y1203D01*
X416Y1203D02*
X432Y1203D01*
X472Y1203D02*
X489Y1203D01*
X716Y1203D02*
X732Y1203D01*
X772Y1203D02*
X789Y1203D01*
X1016Y1203D02*
X1032Y1203D01*
X1072Y1203D02*
X1089Y1203D01*
X1316Y1203D02*
X1332Y1203D01*
X1372Y1203D02*
X1389Y1203D01*
X1616Y1203D02*
X1632Y1203D01*
X1672Y1203D02*
X1689Y1203D01*
X1916Y1203D02*
X1932Y1203D01*
X1972Y1203D02*
X1989Y1203D01*
X2215Y1203D02*
X2232Y1203D01*
X2272Y1203D02*
X2289Y1203D01*
X116Y1202D02*
X132Y1202D01*
X172Y1202D02*
X189Y1202D01*
X416Y1202D02*
X432Y1202D01*
X472Y1202D02*
X489Y1202D01*
X716Y1202D02*
X732Y1202D01*
X772Y1202D02*
X789Y1202D01*
X1016Y1202D02*
X1032Y1202D01*
X1072Y1202D02*
X1089Y1202D01*
X1316Y1202D02*
X1332Y1202D01*
X1372Y1202D02*
X1389Y1202D01*
X1616Y1202D02*
X1632Y1202D01*
X1672Y1202D02*
X1689Y1202D01*
X1916Y1202D02*
X1932Y1202D01*
X1972Y1202D02*
X1989Y1202D01*
X2215Y1202D02*
X2232Y1202D01*
X2272Y1202D02*
X2289Y1202D01*
X116Y1201D02*
X132Y1201D01*
X172Y1201D02*
X189Y1201D01*
X416Y1201D02*
X432Y1201D01*
X472Y1201D02*
X489Y1201D01*
X716Y1201D02*
X732Y1201D01*
X772Y1201D02*
X789Y1201D01*
X1016Y1201D02*
X1032Y1201D01*
X1072Y1201D02*
X1089Y1201D01*
X1316Y1201D02*
X1332Y1201D01*
X1372Y1201D02*
X1389Y1201D01*
X1616Y1201D02*
X1632Y1201D01*
X1672Y1201D02*
X1689Y1201D01*
X1916Y1201D02*
X1932Y1201D01*
X1972Y1201D02*
X1989Y1201D01*
X2215Y1201D02*
X2232Y1201D01*
X2272Y1201D02*
X2289Y1201D01*
X116Y1200D02*
X132Y1200D01*
X172Y1200D02*
X189Y1200D01*
X416Y1200D02*
X432Y1200D01*
X472Y1200D02*
X489Y1200D01*
X716Y1200D02*
X732Y1200D01*
X772Y1200D02*
X789Y1200D01*
X1016Y1200D02*
X1032Y1200D01*
X1072Y1200D02*
X1089Y1200D01*
X1316Y1200D02*
X1332Y1200D01*
X1372Y1200D02*
X1389Y1200D01*
X1616Y1200D02*
X1632Y1200D01*
X1672Y1200D02*
X1689Y1200D01*
X1916Y1200D02*
X1932Y1200D01*
X1972Y1200D02*
X1989Y1200D01*
X2215Y1200D02*
X2232Y1200D01*
X2272Y1200D02*
X2289Y1200D01*
X116Y1199D02*
X132Y1199D01*
X173Y1199D02*
X189Y1199D01*
X416Y1199D02*
X432Y1199D01*
X473Y1199D02*
X489Y1199D01*
X716Y1199D02*
X732Y1199D01*
X772Y1199D02*
X789Y1199D01*
X1016Y1199D02*
X1032Y1199D01*
X1072Y1199D02*
X1089Y1199D01*
X1316Y1199D02*
X1332Y1199D01*
X1372Y1199D02*
X1389Y1199D01*
X1616Y1199D02*
X1632Y1199D01*
X1672Y1199D02*
X1689Y1199D01*
X1916Y1199D02*
X1932Y1199D01*
X1972Y1199D02*
X1989Y1199D01*
X2215Y1199D02*
X2232Y1199D01*
X2272Y1199D02*
X2289Y1199D01*
X116Y1198D02*
X132Y1198D01*
X172Y1198D02*
X189Y1198D01*
X416Y1198D02*
X432Y1198D01*
X472Y1198D02*
X489Y1198D01*
X716Y1198D02*
X732Y1198D01*
X772Y1198D02*
X789Y1198D01*
X1016Y1198D02*
X1032Y1198D01*
X1072Y1198D02*
X1089Y1198D01*
X1316Y1198D02*
X1332Y1198D01*
X1372Y1198D02*
X1389Y1198D01*
X1616Y1198D02*
X1632Y1198D01*
X1672Y1198D02*
X1689Y1198D01*
X1916Y1198D02*
X1932Y1198D01*
X1972Y1198D02*
X1989Y1198D01*
X2215Y1198D02*
X2232Y1198D01*
X2272Y1198D02*
X2289Y1198D01*
X116Y1197D02*
X132Y1197D01*
X172Y1197D02*
X189Y1197D01*
X416Y1197D02*
X432Y1197D01*
X472Y1197D02*
X489Y1197D01*
X716Y1197D02*
X732Y1197D01*
X772Y1197D02*
X789Y1197D01*
X1016Y1197D02*
X1032Y1197D01*
X1072Y1197D02*
X1089Y1197D01*
X1316Y1197D02*
X1332Y1197D01*
X1372Y1197D02*
X1389Y1197D01*
X1616Y1197D02*
X1632Y1197D01*
X1672Y1197D02*
X1689Y1197D01*
X1916Y1197D02*
X1932Y1197D01*
X1972Y1197D02*
X1989Y1197D01*
X2215Y1197D02*
X2232Y1197D01*
X2272Y1197D02*
X2289Y1197D01*
X116Y1196D02*
X132Y1196D01*
X172Y1196D02*
X189Y1196D01*
X416Y1196D02*
X432Y1196D01*
X472Y1196D02*
X489Y1196D01*
X716Y1196D02*
X732Y1196D01*
X772Y1196D02*
X789Y1196D01*
X1016Y1196D02*
X1032Y1196D01*
X1072Y1196D02*
X1089Y1196D01*
X1316Y1196D02*
X1332Y1196D01*
X1372Y1196D02*
X1389Y1196D01*
X1616Y1196D02*
X1632Y1196D01*
X1672Y1196D02*
X1689Y1196D01*
X1916Y1196D02*
X1932Y1196D01*
X1972Y1196D02*
X1989Y1196D01*
X2215Y1196D02*
X2232Y1196D01*
X2272Y1196D02*
X2289Y1196D01*
X116Y1195D02*
X132Y1195D01*
X172Y1195D02*
X189Y1195D01*
X416Y1195D02*
X432Y1195D01*
X472Y1195D02*
X489Y1195D01*
X716Y1195D02*
X732Y1195D01*
X772Y1195D02*
X789Y1195D01*
X1016Y1195D02*
X1032Y1195D01*
X1072Y1195D02*
X1089Y1195D01*
X1316Y1195D02*
X1332Y1195D01*
X1372Y1195D02*
X1389Y1195D01*
X1616Y1195D02*
X1632Y1195D01*
X1672Y1195D02*
X1689Y1195D01*
X1916Y1195D02*
X1932Y1195D01*
X1972Y1195D02*
X1989Y1195D01*
X2215Y1195D02*
X2232Y1195D01*
X2272Y1195D02*
X2289Y1195D01*
X116Y1194D02*
X132Y1194D01*
X172Y1194D02*
X189Y1194D01*
X416Y1194D02*
X432Y1194D01*
X472Y1194D02*
X489Y1194D01*
X716Y1194D02*
X732Y1194D01*
X772Y1194D02*
X789Y1194D01*
X1016Y1194D02*
X1032Y1194D01*
X1072Y1194D02*
X1089Y1194D01*
X1316Y1194D02*
X1332Y1194D01*
X1372Y1194D02*
X1389Y1194D01*
X1616Y1194D02*
X1632Y1194D01*
X1672Y1194D02*
X1689Y1194D01*
X1916Y1194D02*
X1932Y1194D01*
X1972Y1194D02*
X1989Y1194D01*
X2215Y1194D02*
X2232Y1194D01*
X2272Y1194D02*
X2289Y1194D01*
X116Y1193D02*
X133Y1193D01*
X171Y1193D02*
X189Y1193D01*
X416Y1193D02*
X433Y1193D01*
X471Y1193D02*
X489Y1193D01*
X716Y1193D02*
X733Y1193D01*
X771Y1193D02*
X789Y1193D01*
X1016Y1193D02*
X1033Y1193D01*
X1071Y1193D02*
X1089Y1193D01*
X1316Y1193D02*
X1333Y1193D01*
X1371Y1193D02*
X1389Y1193D01*
X1616Y1193D02*
X1633Y1193D01*
X1671Y1193D02*
X1689Y1193D01*
X1916Y1193D02*
X1933Y1193D01*
X1971Y1193D02*
X1989Y1193D01*
X2215Y1193D02*
X2233Y1193D01*
X2271Y1193D02*
X2289Y1193D01*
X116Y1192D02*
X133Y1192D01*
X171Y1192D02*
X189Y1192D01*
X416Y1192D02*
X433Y1192D01*
X471Y1192D02*
X489Y1192D01*
X716Y1192D02*
X733Y1192D01*
X771Y1192D02*
X789Y1192D01*
X1016Y1192D02*
X1033Y1192D01*
X1071Y1192D02*
X1089Y1192D01*
X1316Y1192D02*
X1333Y1192D01*
X1371Y1192D02*
X1389Y1192D01*
X1616Y1192D02*
X1633Y1192D01*
X1671Y1192D02*
X1689Y1192D01*
X1916Y1192D02*
X1933Y1192D01*
X1971Y1192D02*
X1989Y1192D01*
X2215Y1192D02*
X2233Y1192D01*
X2271Y1192D02*
X2289Y1192D01*
X116Y1191D02*
X133Y1191D01*
X171Y1191D02*
X189Y1191D01*
X416Y1191D02*
X433Y1191D01*
X471Y1191D02*
X489Y1191D01*
X716Y1191D02*
X733Y1191D01*
X771Y1191D02*
X789Y1191D01*
X1016Y1191D02*
X1033Y1191D01*
X1071Y1191D02*
X1089Y1191D01*
X1316Y1191D02*
X1333Y1191D01*
X1371Y1191D02*
X1389Y1191D01*
X1616Y1191D02*
X1633Y1191D01*
X1671Y1191D02*
X1689Y1191D01*
X1916Y1191D02*
X1933Y1191D01*
X1971Y1191D02*
X1989Y1191D01*
X2215Y1191D02*
X2233Y1191D01*
X2271Y1191D02*
X2289Y1191D01*
X116Y1190D02*
X134Y1190D01*
X170Y1190D02*
X189Y1190D01*
X416Y1190D02*
X434Y1190D01*
X470Y1190D02*
X489Y1190D01*
X716Y1190D02*
X734Y1190D01*
X770Y1190D02*
X789Y1190D01*
X1016Y1190D02*
X1034Y1190D01*
X1070Y1190D02*
X1089Y1190D01*
X1316Y1190D02*
X1334Y1190D01*
X1370Y1190D02*
X1389Y1190D01*
X1616Y1190D02*
X1634Y1190D01*
X1670Y1190D02*
X1689Y1190D01*
X1916Y1190D02*
X1934Y1190D01*
X1970Y1190D02*
X1989Y1190D01*
X2215Y1190D02*
X2234Y1190D01*
X2270Y1190D02*
X2289Y1190D01*
X116Y1189D02*
X134Y1189D01*
X170Y1189D02*
X189Y1189D01*
X416Y1189D02*
X434Y1189D01*
X470Y1189D02*
X489Y1189D01*
X716Y1189D02*
X734Y1189D01*
X770Y1189D02*
X789Y1189D01*
X1016Y1189D02*
X1034Y1189D01*
X1070Y1189D02*
X1089Y1189D01*
X1316Y1189D02*
X1334Y1189D01*
X1370Y1189D02*
X1389Y1189D01*
X1616Y1189D02*
X1634Y1189D01*
X1670Y1189D02*
X1689Y1189D01*
X1916Y1189D02*
X1934Y1189D01*
X1970Y1189D02*
X1989Y1189D01*
X2215Y1189D02*
X2234Y1189D01*
X2270Y1189D02*
X2289Y1189D01*
X116Y1188D02*
X135Y1188D01*
X169Y1188D02*
X189Y1188D01*
X416Y1188D02*
X435Y1188D01*
X469Y1188D02*
X489Y1188D01*
X716Y1188D02*
X735Y1188D01*
X769Y1188D02*
X789Y1188D01*
X1016Y1188D02*
X1035Y1188D01*
X1069Y1188D02*
X1089Y1188D01*
X1316Y1188D02*
X1335Y1188D01*
X1369Y1188D02*
X1389Y1188D01*
X1616Y1188D02*
X1635Y1188D01*
X1669Y1188D02*
X1689Y1188D01*
X1916Y1188D02*
X1935Y1188D01*
X1969Y1188D02*
X1989Y1188D01*
X2215Y1188D02*
X2235Y1188D01*
X2269Y1188D02*
X2289Y1188D01*
X116Y1187D02*
X136Y1187D01*
X168Y1187D02*
X189Y1187D01*
X416Y1187D02*
X436Y1187D01*
X468Y1187D02*
X489Y1187D01*
X716Y1187D02*
X736Y1187D01*
X768Y1187D02*
X789Y1187D01*
X1016Y1187D02*
X1036Y1187D01*
X1068Y1187D02*
X1089Y1187D01*
X1316Y1187D02*
X1336Y1187D01*
X1368Y1187D02*
X1389Y1187D01*
X1616Y1187D02*
X1636Y1187D01*
X1668Y1187D02*
X1689Y1187D01*
X1916Y1187D02*
X1936Y1187D01*
X1968Y1187D02*
X1989Y1187D01*
X2215Y1187D02*
X2236Y1187D01*
X2268Y1187D02*
X2289Y1187D01*
X116Y1186D02*
X137Y1186D01*
X167Y1186D02*
X189Y1186D01*
X416Y1186D02*
X437Y1186D01*
X467Y1186D02*
X489Y1186D01*
X716Y1186D02*
X737Y1186D01*
X767Y1186D02*
X789Y1186D01*
X1016Y1186D02*
X1037Y1186D01*
X1067Y1186D02*
X1089Y1186D01*
X1316Y1186D02*
X1337Y1186D01*
X1367Y1186D02*
X1389Y1186D01*
X1616Y1186D02*
X1637Y1186D01*
X1667Y1186D02*
X1689Y1186D01*
X1916Y1186D02*
X1937Y1186D01*
X1967Y1186D02*
X1989Y1186D01*
X2215Y1186D02*
X2237Y1186D01*
X2267Y1186D02*
X2289Y1186D01*
X116Y1185D02*
X138Y1185D01*
X167Y1185D02*
X189Y1185D01*
X416Y1185D02*
X438Y1185D01*
X467Y1185D02*
X489Y1185D01*
X716Y1185D02*
X738Y1185D01*
X767Y1185D02*
X789Y1185D01*
X1016Y1185D02*
X1038Y1185D01*
X1067Y1185D02*
X1089Y1185D01*
X1316Y1185D02*
X1338Y1185D01*
X1367Y1185D02*
X1389Y1185D01*
X1616Y1185D02*
X1638Y1185D01*
X1667Y1185D02*
X1689Y1185D01*
X1916Y1185D02*
X1938Y1185D01*
X1967Y1185D02*
X1989Y1185D01*
X2215Y1185D02*
X2238Y1185D01*
X2266Y1185D02*
X2289Y1185D01*
X116Y1184D02*
X139Y1184D01*
X165Y1184D02*
X189Y1184D01*
X416Y1184D02*
X439Y1184D01*
X465Y1184D02*
X489Y1184D01*
X716Y1184D02*
X739Y1184D01*
X765Y1184D02*
X789Y1184D01*
X1016Y1184D02*
X1039Y1184D01*
X1065Y1184D02*
X1089Y1184D01*
X1316Y1184D02*
X1339Y1184D01*
X1365Y1184D02*
X1389Y1184D01*
X1616Y1184D02*
X1639Y1184D01*
X1665Y1184D02*
X1689Y1184D01*
X1916Y1184D02*
X1939Y1184D01*
X1965Y1184D02*
X1989Y1184D01*
X2215Y1184D02*
X2239Y1184D01*
X2265Y1184D02*
X2289Y1184D01*
X116Y1183D02*
X140Y1183D01*
X164Y1183D02*
X189Y1183D01*
X416Y1183D02*
X440Y1183D01*
X464Y1183D02*
X489Y1183D01*
X716Y1183D02*
X740Y1183D01*
X764Y1183D02*
X789Y1183D01*
X1016Y1183D02*
X1040Y1183D01*
X1064Y1183D02*
X1089Y1183D01*
X1316Y1183D02*
X1340Y1183D01*
X1364Y1183D02*
X1389Y1183D01*
X1616Y1183D02*
X1640Y1183D01*
X1664Y1183D02*
X1689Y1183D01*
X1916Y1183D02*
X1940Y1183D01*
X1964Y1183D02*
X1989Y1183D01*
X2215Y1183D02*
X2240Y1183D01*
X2264Y1183D02*
X2289Y1183D01*
X116Y1182D02*
X142Y1182D01*
X163Y1182D02*
X189Y1182D01*
X416Y1182D02*
X442Y1182D01*
X463Y1182D02*
X489Y1182D01*
X716Y1182D02*
X742Y1182D01*
X763Y1182D02*
X789Y1182D01*
X1016Y1182D02*
X1042Y1182D01*
X1063Y1182D02*
X1089Y1182D01*
X1316Y1182D02*
X1342Y1182D01*
X1363Y1182D02*
X1389Y1182D01*
X1616Y1182D02*
X1642Y1182D01*
X1663Y1182D02*
X1689Y1182D01*
X1916Y1182D02*
X1942Y1182D01*
X1962Y1182D02*
X1989Y1182D01*
X2215Y1182D02*
X2242Y1182D01*
X2262Y1182D02*
X2289Y1182D01*
X116Y1181D02*
X143Y1181D01*
X161Y1181D02*
X189Y1181D01*
X416Y1181D02*
X443Y1181D01*
X461Y1181D02*
X489Y1181D01*
X716Y1181D02*
X743Y1181D01*
X761Y1181D02*
X789Y1181D01*
X1016Y1181D02*
X1043Y1181D01*
X1061Y1181D02*
X1089Y1181D01*
X1316Y1181D02*
X1343Y1181D01*
X1361Y1181D02*
X1389Y1181D01*
X1616Y1181D02*
X1643Y1181D01*
X1661Y1181D02*
X1689Y1181D01*
X1916Y1181D02*
X1943Y1181D01*
X1961Y1181D02*
X1989Y1181D01*
X2215Y1181D02*
X2243Y1181D01*
X2261Y1181D02*
X2289Y1181D01*
X116Y1180D02*
X146Y1180D01*
X158Y1180D02*
X189Y1180D01*
X416Y1180D02*
X446Y1180D01*
X458Y1180D02*
X489Y1180D01*
X716Y1180D02*
X746Y1180D01*
X758Y1180D02*
X789Y1180D01*
X1016Y1180D02*
X1046Y1180D01*
X1058Y1180D02*
X1089Y1180D01*
X1316Y1180D02*
X1346Y1180D01*
X1358Y1180D02*
X1389Y1180D01*
X1616Y1180D02*
X1646Y1180D01*
X1658Y1180D02*
X1689Y1180D01*
X1916Y1180D02*
X1946Y1180D01*
X1958Y1180D02*
X1989Y1180D01*
X2215Y1180D02*
X2246Y1180D01*
X2258Y1180D02*
X2289Y1180D01*
X116Y1179D02*
X189Y1179D01*
X416Y1179D02*
X489Y1179D01*
X716Y1179D02*
X789Y1179D01*
X1016Y1179D02*
X1089Y1179D01*
X1316Y1179D02*
X1389Y1179D01*
X1616Y1179D02*
X1689Y1179D01*
X1916Y1179D02*
X1989Y1179D01*
X2215Y1179D02*
X2289Y1179D01*
X116Y1178D02*
X189Y1178D01*
X416Y1178D02*
X489Y1178D01*
X716Y1178D02*
X789Y1178D01*
X1016Y1178D02*
X1089Y1178D01*
X1316Y1178D02*
X1389Y1178D01*
X1616Y1178D02*
X1689Y1178D01*
X1916Y1178D02*
X1989Y1178D01*
X2215Y1178D02*
X2289Y1178D01*
X116Y1177D02*
X189Y1177D01*
X416Y1177D02*
X489Y1177D01*
X716Y1177D02*
X789Y1177D01*
X1016Y1177D02*
X1089Y1177D01*
X1316Y1177D02*
X1389Y1177D01*
X1616Y1177D02*
X1689Y1177D01*
X1916Y1177D02*
X1989Y1177D01*
X2215Y1177D02*
X2289Y1177D01*
X116Y1176D02*
X189Y1176D01*
X416Y1176D02*
X489Y1176D01*
X716Y1176D02*
X789Y1176D01*
X1016Y1176D02*
X1089Y1176D01*
X1316Y1176D02*
X1389Y1176D01*
X1616Y1176D02*
X1689Y1176D01*
X1916Y1176D02*
X1989Y1176D01*
X2215Y1176D02*
X2289Y1176D01*
X116Y1175D02*
X189Y1175D01*
X416Y1175D02*
X489Y1175D01*
X716Y1175D02*
X789Y1175D01*
X1016Y1175D02*
X1089Y1175D01*
X1316Y1175D02*
X1389Y1175D01*
X1616Y1175D02*
X1689Y1175D01*
X1916Y1175D02*
X1989Y1175D01*
X2215Y1175D02*
X2289Y1175D01*
X116Y1174D02*
X189Y1174D01*
X416Y1174D02*
X489Y1174D01*
X716Y1174D02*
X789Y1174D01*
X1016Y1174D02*
X1089Y1174D01*
X1316Y1174D02*
X1389Y1174D01*
X1616Y1174D02*
X1689Y1174D01*
X1916Y1174D02*
X1989Y1174D01*
X2215Y1174D02*
X2289Y1174D01*
X116Y1173D02*
X189Y1173D01*
X416Y1173D02*
X489Y1173D01*
X716Y1173D02*
X789Y1173D01*
X1016Y1173D02*
X1089Y1173D01*
X1316Y1173D02*
X1389Y1173D01*
X1616Y1173D02*
X1689Y1173D01*
X1916Y1173D02*
X1989Y1173D01*
X2215Y1173D02*
X2289Y1173D01*
X116Y1172D02*
X189Y1172D01*
X416Y1172D02*
X489Y1172D01*
X716Y1172D02*
X789Y1172D01*
X1016Y1172D02*
X1089Y1172D01*
X1316Y1172D02*
X1389Y1172D01*
X1616Y1172D02*
X1689Y1172D01*
X1916Y1172D02*
X1989Y1172D01*
X2215Y1172D02*
X2289Y1172D01*
X116Y1171D02*
X189Y1171D01*
X416Y1171D02*
X489Y1171D01*
X716Y1171D02*
X789Y1171D01*
X1016Y1171D02*
X1089Y1171D01*
X1316Y1171D02*
X1389Y1171D01*
X1616Y1171D02*
X1689Y1171D01*
X1916Y1171D02*
X1989Y1171D01*
X2215Y1171D02*
X2289Y1171D01*
X116Y1170D02*
X189Y1170D01*
X416Y1170D02*
X489Y1170D01*
X716Y1170D02*
X789Y1170D01*
X1016Y1170D02*
X1089Y1170D01*
X1316Y1170D02*
X1389Y1170D01*
X1616Y1170D02*
X1689Y1170D01*
X1916Y1170D02*
X1989Y1170D01*
X2215Y1170D02*
X2289Y1170D01*
X116Y1169D02*
X189Y1169D01*
X416Y1169D02*
X489Y1169D01*
X716Y1169D02*
X789Y1169D01*
X1016Y1169D02*
X1089Y1169D01*
X1316Y1169D02*
X1389Y1169D01*
X1616Y1169D02*
X1689Y1169D01*
X1916Y1169D02*
X1989Y1169D01*
X2215Y1169D02*
X2289Y1169D01*
X116Y1168D02*
X189Y1168D01*
X416Y1168D02*
X489Y1168D01*
X716Y1168D02*
X789Y1168D01*
X1016Y1168D02*
X1089Y1168D01*
X1316Y1168D02*
X1389Y1168D01*
X1616Y1168D02*
X1689Y1168D01*
X1916Y1168D02*
X1989Y1168D01*
X2215Y1168D02*
X2289Y1168D01*
X116Y1167D02*
X189Y1167D01*
X416Y1167D02*
X489Y1167D01*
X716Y1167D02*
X789Y1167D01*
X1016Y1167D02*
X1089Y1167D01*
X1316Y1167D02*
X1389Y1167D01*
X1616Y1167D02*
X1689Y1167D01*
X1916Y1167D02*
X1989Y1167D01*
X2215Y1167D02*
X2289Y1167D01*
X116Y1166D02*
X189Y1166D01*
X416Y1166D02*
X489Y1166D01*
X716Y1166D02*
X789Y1166D01*
X1016Y1166D02*
X1089Y1166D01*
X1316Y1166D02*
X1389Y1166D01*
X1616Y1166D02*
X1689Y1166D01*
X1916Y1166D02*
X1989Y1166D01*
X2215Y1166D02*
X2289Y1166D01*
X116Y1165D02*
X189Y1165D01*
X416Y1165D02*
X489Y1165D01*
X716Y1165D02*
X789Y1165D01*
X1016Y1165D02*
X1089Y1165D01*
X1316Y1165D02*
X1389Y1165D01*
X1616Y1165D02*
X1689Y1165D01*
X1916Y1165D02*
X1989Y1165D01*
X2215Y1165D02*
X2289Y1165D01*
X116Y1164D02*
X189Y1164D01*
X416Y1164D02*
X489Y1164D01*
X716Y1164D02*
X789Y1164D01*
X1016Y1164D02*
X1089Y1164D01*
X1316Y1164D02*
X1389Y1164D01*
X1616Y1164D02*
X1689Y1164D01*
X1916Y1164D02*
X1989Y1164D01*
X2215Y1164D02*
X2289Y1164D01*
X116Y1163D02*
X189Y1163D01*
X416Y1163D02*
X489Y1163D01*
X716Y1163D02*
X789Y1163D01*
X1016Y1163D02*
X1089Y1163D01*
X1316Y1163D02*
X1389Y1163D01*
X1616Y1163D02*
X1689Y1163D01*
X1916Y1163D02*
X1989Y1163D01*
X2215Y1163D02*
X2289Y1163D01*
X136Y936D02*
X208Y936D01*
X436Y936D02*
X508Y936D01*
X736Y936D02*
X808Y936D01*
X1036Y936D02*
X1108Y936D01*
X1336Y936D02*
X1408Y936D01*
X1636Y936D02*
X1708Y936D01*
X1936Y936D02*
X2008Y936D01*
X2236Y936D02*
X2308Y936D01*
X136Y935D02*
X209Y935D01*
X436Y935D02*
X509Y935D01*
X736Y935D02*
X809Y935D01*
X1036Y935D02*
X1109Y935D01*
X1336Y935D02*
X1409Y935D01*
X1636Y935D02*
X1709Y935D01*
X1936Y935D02*
X2009Y935D01*
X2235Y935D02*
X2309Y935D01*
X136Y934D02*
X209Y934D01*
X436Y934D02*
X509Y934D01*
X736Y934D02*
X809Y934D01*
X1036Y934D02*
X1109Y934D01*
X1336Y934D02*
X1409Y934D01*
X1636Y934D02*
X1709Y934D01*
X1936Y934D02*
X2009Y934D01*
X2235Y934D02*
X2309Y934D01*
X136Y933D02*
X209Y933D01*
X436Y933D02*
X509Y933D01*
X736Y933D02*
X809Y933D01*
X1036Y933D02*
X1109Y933D01*
X1336Y933D02*
X1409Y933D01*
X1636Y933D02*
X1709Y933D01*
X1936Y933D02*
X2009Y933D01*
X2235Y933D02*
X2309Y933D01*
X136Y932D02*
X209Y932D01*
X436Y932D02*
X509Y932D01*
X736Y932D02*
X809Y932D01*
X1036Y932D02*
X1109Y932D01*
X1336Y932D02*
X1409Y932D01*
X1636Y932D02*
X1709Y932D01*
X1936Y932D02*
X2009Y932D01*
X2235Y932D02*
X2309Y932D01*
X136Y931D02*
X209Y931D01*
X436Y931D02*
X509Y931D01*
X736Y931D02*
X809Y931D01*
X1036Y931D02*
X1109Y931D01*
X1336Y931D02*
X1409Y931D01*
X1636Y931D02*
X1709Y931D01*
X1936Y931D02*
X2009Y931D01*
X2235Y931D02*
X2309Y931D01*
X136Y930D02*
X209Y930D01*
X436Y930D02*
X509Y930D01*
X736Y930D02*
X809Y930D01*
X1036Y930D02*
X1109Y930D01*
X1336Y930D02*
X1409Y930D01*
X1636Y930D02*
X1709Y930D01*
X1936Y930D02*
X2009Y930D01*
X2235Y930D02*
X2309Y930D01*
X136Y929D02*
X209Y929D01*
X436Y929D02*
X509Y929D01*
X736Y929D02*
X809Y929D01*
X1036Y929D02*
X1109Y929D01*
X1336Y929D02*
X1409Y929D01*
X1636Y929D02*
X1709Y929D01*
X1936Y929D02*
X2009Y929D01*
X2235Y929D02*
X2309Y929D01*
X136Y928D02*
X209Y928D01*
X436Y928D02*
X509Y928D01*
X736Y928D02*
X809Y928D01*
X1036Y928D02*
X1109Y928D01*
X1336Y928D02*
X1409Y928D01*
X1636Y928D02*
X1709Y928D01*
X1936Y928D02*
X2009Y928D01*
X2235Y928D02*
X2309Y928D01*
X136Y927D02*
X209Y927D01*
X436Y927D02*
X509Y927D01*
X736Y927D02*
X809Y927D01*
X1036Y927D02*
X1109Y927D01*
X1336Y927D02*
X1409Y927D01*
X1636Y927D02*
X1709Y927D01*
X1936Y927D02*
X2009Y927D01*
X2235Y927D02*
X2309Y927D01*
X136Y926D02*
X209Y926D01*
X436Y926D02*
X509Y926D01*
X736Y926D02*
X809Y926D01*
X1036Y926D02*
X1109Y926D01*
X1336Y926D02*
X1409Y926D01*
X1636Y926D02*
X1709Y926D01*
X1936Y926D02*
X2009Y926D01*
X2235Y926D02*
X2309Y926D01*
X136Y925D02*
X209Y925D01*
X436Y925D02*
X509Y925D01*
X736Y925D02*
X809Y925D01*
X1036Y925D02*
X1109Y925D01*
X1336Y925D02*
X1409Y925D01*
X1636Y925D02*
X1709Y925D01*
X1936Y925D02*
X2009Y925D01*
X2235Y925D02*
X2309Y925D01*
X136Y924D02*
X209Y924D01*
X436Y924D02*
X509Y924D01*
X736Y924D02*
X809Y924D01*
X1036Y924D02*
X1109Y924D01*
X1336Y924D02*
X1409Y924D01*
X1636Y924D02*
X1709Y924D01*
X1936Y924D02*
X2009Y924D01*
X2235Y924D02*
X2309Y924D01*
X136Y923D02*
X209Y923D01*
X436Y923D02*
X509Y923D01*
X736Y923D02*
X809Y923D01*
X1036Y923D02*
X1409Y923D01*
X1636Y923D02*
X1709Y923D01*
X1936Y923D02*
X2009Y923D01*
X2235Y923D02*
X2309Y923D01*
X136Y922D02*
X209Y922D01*
X436Y922D02*
X509Y922D01*
X736Y922D02*
X809Y922D01*
X1036Y922D02*
X1409Y922D01*
X1636Y922D02*
X1709Y922D01*
X1936Y922D02*
X2009Y922D01*
X2235Y922D02*
X2309Y922D01*
X136Y921D02*
X209Y921D01*
X436Y921D02*
X509Y921D01*
X736Y921D02*
X809Y921D01*
X1036Y921D02*
X1409Y921D01*
X1636Y921D02*
X1709Y921D01*
X1936Y921D02*
X2009Y921D01*
X2235Y921D02*
X2309Y921D01*
X136Y920D02*
X209Y920D01*
X436Y920D02*
X509Y920D01*
X736Y920D02*
X809Y920D01*
X1036Y920D02*
X1409Y920D01*
X1636Y920D02*
X1709Y920D01*
X1936Y920D02*
X2009Y920D01*
X2235Y920D02*
X2309Y920D01*
X136Y919D02*
X169Y919D01*
X175Y919D02*
X209Y919D01*
X436Y919D02*
X469Y919D01*
X475Y919D02*
X509Y919D01*
X736Y919D02*
X769Y919D01*
X775Y919D02*
X809Y919D01*
X1036Y919D02*
X1409Y919D01*
X1636Y919D02*
X1669Y919D01*
X1675Y919D02*
X1709Y919D01*
X1936Y919D02*
X1969Y919D01*
X1975Y919D02*
X2009Y919D01*
X2235Y919D02*
X2269Y919D01*
X2275Y919D02*
X2309Y919D01*
X136Y918D02*
X165Y918D01*
X179Y918D02*
X209Y918D01*
X436Y918D02*
X465Y918D01*
X479Y918D02*
X509Y918D01*
X736Y918D02*
X765Y918D01*
X779Y918D02*
X809Y918D01*
X1036Y918D02*
X1409Y918D01*
X1636Y918D02*
X1665Y918D01*
X1679Y918D02*
X1709Y918D01*
X1936Y918D02*
X1965Y918D01*
X1979Y918D02*
X2009Y918D01*
X2235Y918D02*
X2265Y918D01*
X2279Y918D02*
X2309Y918D01*
X136Y917D02*
X162Y917D01*
X182Y917D02*
X209Y917D01*
X436Y917D02*
X462Y917D01*
X482Y917D02*
X509Y917D01*
X736Y917D02*
X762Y917D01*
X782Y917D02*
X809Y917D01*
X1036Y917D02*
X1409Y917D01*
X1636Y917D02*
X1662Y917D01*
X1682Y917D02*
X1709Y917D01*
X1936Y917D02*
X1962Y917D01*
X1982Y917D02*
X2009Y917D01*
X2235Y917D02*
X2262Y917D01*
X2282Y917D02*
X2309Y917D01*
X136Y916D02*
X161Y916D01*
X183Y916D02*
X209Y916D01*
X436Y916D02*
X461Y916D01*
X483Y916D02*
X509Y916D01*
X736Y916D02*
X761Y916D01*
X783Y916D02*
X809Y916D01*
X1036Y916D02*
X1409Y916D01*
X1636Y916D02*
X1661Y916D01*
X1683Y916D02*
X1709Y916D01*
X1936Y916D02*
X1961Y916D01*
X1983Y916D02*
X2009Y916D01*
X2235Y916D02*
X2261Y916D01*
X2283Y916D02*
X2309Y916D01*
X136Y915D02*
X159Y915D01*
X185Y915D02*
X209Y915D01*
X436Y915D02*
X459Y915D01*
X485Y915D02*
X509Y915D01*
X736Y915D02*
X759Y915D01*
X785Y915D02*
X809Y915D01*
X1036Y915D02*
X1409Y915D01*
X1636Y915D02*
X1659Y915D01*
X1685Y915D02*
X1709Y915D01*
X1936Y915D02*
X1959Y915D01*
X1985Y915D02*
X2009Y915D01*
X2235Y915D02*
X2259Y915D01*
X2285Y915D02*
X2309Y915D01*
X136Y914D02*
X158Y914D01*
X186Y914D02*
X209Y914D01*
X436Y914D02*
X458Y914D01*
X486Y914D02*
X509Y914D01*
X736Y914D02*
X758Y914D01*
X786Y914D02*
X809Y914D01*
X1036Y914D02*
X1409Y914D01*
X1636Y914D02*
X1658Y914D01*
X1686Y914D02*
X1709Y914D01*
X1936Y914D02*
X1958Y914D01*
X1986Y914D02*
X2009Y914D01*
X2235Y914D02*
X2258Y914D01*
X2286Y914D02*
X2309Y914D01*
X136Y913D02*
X157Y913D01*
X187Y913D02*
X209Y913D01*
X436Y913D02*
X457Y913D01*
X487Y913D02*
X509Y913D01*
X736Y913D02*
X757Y913D01*
X787Y913D02*
X809Y913D01*
X1036Y913D02*
X1409Y913D01*
X1636Y913D02*
X1657Y913D01*
X1687Y913D02*
X1709Y913D01*
X1936Y913D02*
X1957Y913D01*
X1987Y913D02*
X2009Y913D01*
X2235Y913D02*
X2257Y913D01*
X2287Y913D02*
X2309Y913D01*
X136Y912D02*
X156Y912D01*
X188Y912D02*
X209Y912D01*
X436Y912D02*
X456Y912D01*
X488Y912D02*
X509Y912D01*
X736Y912D02*
X756Y912D01*
X788Y912D02*
X809Y912D01*
X1036Y912D02*
X1409Y912D01*
X1636Y912D02*
X1656Y912D01*
X1688Y912D02*
X1709Y912D01*
X1936Y912D02*
X1956Y912D01*
X1988Y912D02*
X2009Y912D01*
X2235Y912D02*
X2256Y912D01*
X2288Y912D02*
X2309Y912D01*
X136Y911D02*
X155Y911D01*
X189Y911D02*
X209Y911D01*
X436Y911D02*
X455Y911D01*
X489Y911D02*
X509Y911D01*
X736Y911D02*
X755Y911D01*
X789Y911D02*
X809Y911D01*
X1036Y911D02*
X1409Y911D01*
X1636Y911D02*
X1655Y911D01*
X1689Y911D02*
X1709Y911D01*
X1936Y911D02*
X1955Y911D01*
X1989Y911D02*
X2009Y911D01*
X2235Y911D02*
X2255Y911D01*
X2289Y911D02*
X2309Y911D01*
X136Y910D02*
X155Y910D01*
X189Y910D02*
X209Y910D01*
X436Y910D02*
X455Y910D01*
X489Y910D02*
X509Y910D01*
X736Y910D02*
X755Y910D01*
X789Y910D02*
X809Y910D01*
X1036Y910D02*
X1409Y910D01*
X1636Y910D02*
X1655Y910D01*
X1689Y910D02*
X1709Y910D01*
X1936Y910D02*
X1955Y910D01*
X1989Y910D02*
X2009Y910D01*
X2235Y910D02*
X2255Y910D01*
X2289Y910D02*
X2309Y910D01*
X136Y909D02*
X154Y909D01*
X190Y909D02*
X209Y909D01*
X436Y909D02*
X454Y909D01*
X490Y909D02*
X509Y909D01*
X736Y909D02*
X754Y909D01*
X790Y909D02*
X809Y909D01*
X1036Y909D02*
X1409Y909D01*
X1636Y909D02*
X1654Y909D01*
X1690Y909D02*
X1709Y909D01*
X1936Y909D02*
X1954Y909D01*
X1990Y909D02*
X2009Y909D01*
X2235Y909D02*
X2254Y909D01*
X2290Y909D02*
X2309Y909D01*
X136Y908D02*
X154Y908D01*
X190Y908D02*
X209Y908D01*
X436Y908D02*
X454Y908D01*
X490Y908D02*
X509Y908D01*
X736Y908D02*
X754Y908D01*
X790Y908D02*
X809Y908D01*
X1036Y908D02*
X1409Y908D01*
X1636Y908D02*
X1654Y908D01*
X1690Y908D02*
X1709Y908D01*
X1936Y908D02*
X1954Y908D01*
X1990Y908D02*
X2009Y908D01*
X2235Y908D02*
X2254Y908D01*
X2290Y908D02*
X2309Y908D01*
X136Y907D02*
X153Y907D01*
X191Y907D02*
X209Y907D01*
X436Y907D02*
X453Y907D01*
X491Y907D02*
X509Y907D01*
X736Y907D02*
X753Y907D01*
X791Y907D02*
X809Y907D01*
X1036Y907D02*
X1409Y907D01*
X1636Y907D02*
X1653Y907D01*
X1691Y907D02*
X1709Y907D01*
X1936Y907D02*
X1953Y907D01*
X1991Y907D02*
X2009Y907D01*
X2235Y907D02*
X2253Y907D01*
X2291Y907D02*
X2309Y907D01*
X136Y906D02*
X153Y906D01*
X191Y906D02*
X209Y906D01*
X436Y906D02*
X453Y906D01*
X491Y906D02*
X509Y906D01*
X736Y906D02*
X753Y906D01*
X791Y906D02*
X809Y906D01*
X1036Y906D02*
X1409Y906D01*
X1636Y906D02*
X1653Y906D01*
X1691Y906D02*
X1709Y906D01*
X1936Y906D02*
X1953Y906D01*
X1991Y906D02*
X2009Y906D01*
X2235Y906D02*
X2253Y906D01*
X2291Y906D02*
X2309Y906D01*
X136Y905D02*
X152Y905D01*
X192Y905D02*
X209Y905D01*
X436Y905D02*
X452Y905D01*
X492Y905D02*
X509Y905D01*
X736Y905D02*
X752Y905D01*
X792Y905D02*
X809Y905D01*
X1036Y905D02*
X1409Y905D01*
X1636Y905D02*
X1652Y905D01*
X1692Y905D02*
X1709Y905D01*
X1936Y905D02*
X1952Y905D01*
X1992Y905D02*
X2009Y905D01*
X2235Y905D02*
X2252Y905D01*
X2292Y905D02*
X2309Y905D01*
X136Y904D02*
X152Y904D01*
X192Y904D02*
X209Y904D01*
X436Y904D02*
X452Y904D01*
X492Y904D02*
X509Y904D01*
X736Y904D02*
X752Y904D01*
X792Y904D02*
X809Y904D01*
X1036Y904D02*
X1409Y904D01*
X1636Y904D02*
X1652Y904D01*
X1692Y904D02*
X1709Y904D01*
X1936Y904D02*
X1952Y904D01*
X1992Y904D02*
X2009Y904D01*
X2235Y904D02*
X2252Y904D01*
X2292Y904D02*
X2309Y904D01*
X136Y903D02*
X152Y903D01*
X192Y903D02*
X209Y903D01*
X436Y903D02*
X452Y903D01*
X492Y903D02*
X509Y903D01*
X736Y903D02*
X752Y903D01*
X792Y903D02*
X809Y903D01*
X1036Y903D02*
X1409Y903D01*
X1636Y903D02*
X1652Y903D01*
X1692Y903D02*
X1709Y903D01*
X1936Y903D02*
X1952Y903D01*
X1992Y903D02*
X2009Y903D01*
X2235Y903D02*
X2252Y903D01*
X2292Y903D02*
X2309Y903D01*
X136Y902D02*
X152Y902D01*
X192Y902D02*
X209Y902D01*
X436Y902D02*
X452Y902D01*
X492Y902D02*
X509Y902D01*
X736Y902D02*
X752Y902D01*
X792Y902D02*
X809Y902D01*
X1036Y902D02*
X1409Y902D01*
X1636Y902D02*
X1652Y902D01*
X1692Y902D02*
X1709Y902D01*
X1936Y902D02*
X1952Y902D01*
X1992Y902D02*
X2009Y902D01*
X2235Y902D02*
X2252Y902D01*
X2292Y902D02*
X2309Y902D01*
X136Y901D02*
X152Y901D01*
X192Y901D02*
X209Y901D01*
X436Y901D02*
X452Y901D01*
X492Y901D02*
X509Y901D01*
X736Y901D02*
X752Y901D01*
X792Y901D02*
X809Y901D01*
X1036Y901D02*
X1409Y901D01*
X1636Y901D02*
X1652Y901D01*
X1692Y901D02*
X1709Y901D01*
X1936Y901D02*
X1952Y901D01*
X1992Y901D02*
X2009Y901D01*
X2235Y901D02*
X2252Y901D01*
X2292Y901D02*
X2309Y901D01*
X136Y900D02*
X152Y900D01*
X192Y900D02*
X209Y900D01*
X436Y900D02*
X452Y900D01*
X492Y900D02*
X509Y900D01*
X736Y900D02*
X752Y900D01*
X792Y900D02*
X809Y900D01*
X1036Y900D02*
X1409Y900D01*
X1636Y900D02*
X1652Y900D01*
X1692Y900D02*
X1709Y900D01*
X1936Y900D02*
X1952Y900D01*
X1992Y900D02*
X2009Y900D01*
X2235Y900D02*
X2252Y900D01*
X2292Y900D02*
X2309Y900D01*
X136Y899D02*
X152Y899D01*
X193Y899D02*
X209Y899D01*
X436Y899D02*
X452Y899D01*
X493Y899D02*
X509Y899D01*
X736Y899D02*
X752Y899D01*
X792Y899D02*
X809Y899D01*
X1036Y899D02*
X1409Y899D01*
X1636Y899D02*
X1652Y899D01*
X1692Y899D02*
X1709Y899D01*
X1936Y899D02*
X1952Y899D01*
X1992Y899D02*
X2009Y899D01*
X2235Y899D02*
X2252Y899D01*
X2292Y899D02*
X2309Y899D01*
X136Y898D02*
X152Y898D01*
X192Y898D02*
X209Y898D01*
X436Y898D02*
X452Y898D01*
X492Y898D02*
X509Y898D01*
X736Y898D02*
X752Y898D01*
X792Y898D02*
X809Y898D01*
X1036Y898D02*
X1409Y898D01*
X1636Y898D02*
X1652Y898D01*
X1692Y898D02*
X1709Y898D01*
X1936Y898D02*
X1952Y898D01*
X1992Y898D02*
X2009Y898D01*
X2235Y898D02*
X2252Y898D01*
X2292Y898D02*
X2309Y898D01*
X136Y897D02*
X152Y897D01*
X192Y897D02*
X209Y897D01*
X436Y897D02*
X452Y897D01*
X492Y897D02*
X509Y897D01*
X736Y897D02*
X752Y897D01*
X792Y897D02*
X809Y897D01*
X1036Y897D02*
X1409Y897D01*
X1636Y897D02*
X1652Y897D01*
X1692Y897D02*
X1709Y897D01*
X1936Y897D02*
X1952Y897D01*
X1992Y897D02*
X2009Y897D01*
X2235Y897D02*
X2252Y897D01*
X2292Y897D02*
X2309Y897D01*
X136Y896D02*
X152Y896D01*
X192Y896D02*
X209Y896D01*
X436Y896D02*
X452Y896D01*
X492Y896D02*
X509Y896D01*
X736Y896D02*
X752Y896D01*
X792Y896D02*
X809Y896D01*
X1036Y896D02*
X1409Y896D01*
X1636Y896D02*
X1652Y896D01*
X1692Y896D02*
X1709Y896D01*
X1936Y896D02*
X1952Y896D01*
X1992Y896D02*
X2009Y896D01*
X2235Y896D02*
X2252Y896D01*
X2292Y896D02*
X2309Y896D01*
X136Y895D02*
X152Y895D01*
X192Y895D02*
X209Y895D01*
X436Y895D02*
X452Y895D01*
X492Y895D02*
X509Y895D01*
X736Y895D02*
X752Y895D01*
X792Y895D02*
X809Y895D01*
X1036Y895D02*
X1409Y895D01*
X1636Y895D02*
X1652Y895D01*
X1692Y895D02*
X1709Y895D01*
X1936Y895D02*
X1952Y895D01*
X1992Y895D02*
X2009Y895D01*
X2235Y895D02*
X2252Y895D01*
X2292Y895D02*
X2309Y895D01*
X136Y894D02*
X152Y894D01*
X192Y894D02*
X209Y894D01*
X436Y894D02*
X452Y894D01*
X492Y894D02*
X509Y894D01*
X736Y894D02*
X752Y894D01*
X792Y894D02*
X809Y894D01*
X1036Y894D02*
X1409Y894D01*
X1636Y894D02*
X1652Y894D01*
X1692Y894D02*
X1709Y894D01*
X1936Y894D02*
X1952Y894D01*
X1992Y894D02*
X2009Y894D01*
X2235Y894D02*
X2252Y894D01*
X2292Y894D02*
X2309Y894D01*
X136Y893D02*
X153Y893D01*
X191Y893D02*
X209Y893D01*
X436Y893D02*
X453Y893D01*
X491Y893D02*
X509Y893D01*
X736Y893D02*
X753Y893D01*
X791Y893D02*
X809Y893D01*
X1036Y893D02*
X1409Y893D01*
X1636Y893D02*
X1653Y893D01*
X1691Y893D02*
X1709Y893D01*
X1936Y893D02*
X1953Y893D01*
X1991Y893D02*
X2009Y893D01*
X2235Y893D02*
X2253Y893D01*
X2291Y893D02*
X2309Y893D01*
X136Y892D02*
X153Y892D01*
X191Y892D02*
X209Y892D01*
X436Y892D02*
X453Y892D01*
X491Y892D02*
X509Y892D01*
X736Y892D02*
X753Y892D01*
X791Y892D02*
X809Y892D01*
X1036Y892D02*
X1409Y892D01*
X1636Y892D02*
X1653Y892D01*
X1691Y892D02*
X1709Y892D01*
X1936Y892D02*
X1953Y892D01*
X1991Y892D02*
X2009Y892D01*
X2235Y892D02*
X2253Y892D01*
X2291Y892D02*
X2309Y892D01*
X136Y891D02*
X153Y891D01*
X191Y891D02*
X209Y891D01*
X436Y891D02*
X453Y891D01*
X491Y891D02*
X509Y891D01*
X736Y891D02*
X753Y891D01*
X791Y891D02*
X809Y891D01*
X1036Y891D02*
X1409Y891D01*
X1636Y891D02*
X1653Y891D01*
X1691Y891D02*
X1709Y891D01*
X1936Y891D02*
X1953Y891D01*
X1991Y891D02*
X2009Y891D01*
X2235Y891D02*
X2253Y891D01*
X2291Y891D02*
X2309Y891D01*
X136Y890D02*
X154Y890D01*
X190Y890D02*
X209Y890D01*
X436Y890D02*
X454Y890D01*
X490Y890D02*
X509Y890D01*
X736Y890D02*
X754Y890D01*
X790Y890D02*
X809Y890D01*
X1036Y890D02*
X1409Y890D01*
X1636Y890D02*
X1654Y890D01*
X1690Y890D02*
X1709Y890D01*
X1936Y890D02*
X1954Y890D01*
X1990Y890D02*
X2009Y890D01*
X2235Y890D02*
X2254Y890D01*
X2290Y890D02*
X2309Y890D01*
X136Y889D02*
X154Y889D01*
X190Y889D02*
X209Y889D01*
X436Y889D02*
X454Y889D01*
X490Y889D02*
X509Y889D01*
X736Y889D02*
X754Y889D01*
X790Y889D02*
X809Y889D01*
X1036Y889D02*
X1409Y889D01*
X1636Y889D02*
X1654Y889D01*
X1690Y889D02*
X1709Y889D01*
X1936Y889D02*
X1954Y889D01*
X1990Y889D02*
X2009Y889D01*
X2235Y889D02*
X2254Y889D01*
X2290Y889D02*
X2309Y889D01*
X136Y888D02*
X155Y888D01*
X189Y888D02*
X209Y888D01*
X436Y888D02*
X455Y888D01*
X489Y888D02*
X509Y888D01*
X736Y888D02*
X755Y888D01*
X789Y888D02*
X809Y888D01*
X1036Y888D02*
X1409Y888D01*
X1636Y888D02*
X1655Y888D01*
X1689Y888D02*
X1709Y888D01*
X1936Y888D02*
X1955Y888D01*
X1989Y888D02*
X2009Y888D01*
X2235Y888D02*
X2255Y888D01*
X2289Y888D02*
X2309Y888D01*
X136Y887D02*
X156Y887D01*
X188Y887D02*
X209Y887D01*
X436Y887D02*
X456Y887D01*
X488Y887D02*
X509Y887D01*
X736Y887D02*
X756Y887D01*
X788Y887D02*
X809Y887D01*
X1036Y887D02*
X1409Y887D01*
X1636Y887D02*
X1656Y887D01*
X1688Y887D02*
X1709Y887D01*
X1936Y887D02*
X1956Y887D01*
X1988Y887D02*
X2009Y887D01*
X2235Y887D02*
X2256Y887D01*
X2288Y887D02*
X2309Y887D01*
X136Y886D02*
X157Y886D01*
X187Y886D02*
X209Y886D01*
X436Y886D02*
X457Y886D01*
X487Y886D02*
X509Y886D01*
X736Y886D02*
X757Y886D01*
X787Y886D02*
X809Y886D01*
X1036Y886D02*
X1409Y886D01*
X1636Y886D02*
X1657Y886D01*
X1687Y886D02*
X1709Y886D01*
X1936Y886D02*
X1957Y886D01*
X1987Y886D02*
X2009Y886D01*
X2235Y886D02*
X2257Y886D01*
X2287Y886D02*
X2309Y886D01*
X136Y885D02*
X158Y885D01*
X187Y885D02*
X209Y885D01*
X436Y885D02*
X458Y885D01*
X487Y885D02*
X509Y885D01*
X736Y885D02*
X758Y885D01*
X786Y885D02*
X809Y885D01*
X1036Y885D02*
X1409Y885D01*
X1636Y885D02*
X1658Y885D01*
X1686Y885D02*
X1709Y885D01*
X1936Y885D02*
X1958Y885D01*
X1986Y885D02*
X2009Y885D01*
X2235Y885D02*
X2258Y885D01*
X2286Y885D02*
X2309Y885D01*
X136Y884D02*
X159Y884D01*
X185Y884D02*
X209Y884D01*
X436Y884D02*
X459Y884D01*
X485Y884D02*
X509Y884D01*
X736Y884D02*
X759Y884D01*
X785Y884D02*
X809Y884D01*
X1036Y884D02*
X1409Y884D01*
X1636Y884D02*
X1659Y884D01*
X1685Y884D02*
X1709Y884D01*
X1936Y884D02*
X1959Y884D01*
X1985Y884D02*
X2009Y884D01*
X2235Y884D02*
X2259Y884D01*
X2285Y884D02*
X2309Y884D01*
X136Y883D02*
X160Y883D01*
X184Y883D02*
X209Y883D01*
X436Y883D02*
X460Y883D01*
X484Y883D02*
X509Y883D01*
X736Y883D02*
X760Y883D01*
X784Y883D02*
X809Y883D01*
X1036Y883D02*
X1409Y883D01*
X1636Y883D02*
X1660Y883D01*
X1684Y883D02*
X1709Y883D01*
X1936Y883D02*
X1960Y883D01*
X1984Y883D02*
X2009Y883D01*
X2235Y883D02*
X2260Y883D01*
X2284Y883D02*
X2309Y883D01*
X136Y882D02*
X162Y882D01*
X182Y882D02*
X209Y882D01*
X436Y882D02*
X462Y882D01*
X482Y882D02*
X509Y882D01*
X736Y882D02*
X762Y882D01*
X782Y882D02*
X809Y882D01*
X1036Y882D02*
X1409Y882D01*
X1636Y882D02*
X1662Y882D01*
X1682Y882D02*
X1709Y882D01*
X1936Y882D02*
X1962Y882D01*
X1982Y882D02*
X2009Y882D01*
X2235Y882D02*
X2262Y882D01*
X2282Y882D02*
X2309Y882D01*
X136Y881D02*
X163Y881D01*
X181Y881D02*
X209Y881D01*
X436Y881D02*
X463Y881D01*
X481Y881D02*
X509Y881D01*
X736Y881D02*
X763Y881D01*
X781Y881D02*
X809Y881D01*
X1036Y881D02*
X1409Y881D01*
X1636Y881D02*
X1663Y881D01*
X1681Y881D02*
X1709Y881D01*
X1936Y881D02*
X1963Y881D01*
X1981Y881D02*
X2009Y881D01*
X2235Y881D02*
X2263Y881D01*
X2281Y881D02*
X2309Y881D01*
X136Y880D02*
X167Y880D01*
X178Y880D02*
X209Y880D01*
X436Y880D02*
X467Y880D01*
X478Y880D02*
X509Y880D01*
X736Y880D02*
X767Y880D01*
X778Y880D02*
X809Y880D01*
X1036Y880D02*
X1409Y880D01*
X1636Y880D02*
X1666Y880D01*
X1678Y880D02*
X1709Y880D01*
X1936Y880D02*
X1966Y880D01*
X1978Y880D02*
X2009Y880D01*
X2235Y880D02*
X2266Y880D01*
X2278Y880D02*
X2309Y880D01*
X136Y879D02*
X209Y879D01*
X436Y879D02*
X509Y879D01*
X736Y879D02*
X809Y879D01*
X1036Y879D02*
X1409Y879D01*
X1636Y879D02*
X1709Y879D01*
X1936Y879D02*
X2009Y879D01*
X2235Y879D02*
X2309Y879D01*
X136Y878D02*
X209Y878D01*
X436Y878D02*
X509Y878D01*
X736Y878D02*
X809Y878D01*
X1036Y878D02*
X1409Y878D01*
X1636Y878D02*
X1709Y878D01*
X1936Y878D02*
X2009Y878D01*
X2235Y878D02*
X2309Y878D01*
X136Y877D02*
X209Y877D01*
X436Y877D02*
X509Y877D01*
X736Y877D02*
X809Y877D01*
X1036Y877D02*
X1409Y877D01*
X1636Y877D02*
X1709Y877D01*
X1936Y877D02*
X2009Y877D01*
X2235Y877D02*
X2309Y877D01*
X136Y876D02*
X209Y876D01*
X436Y876D02*
X509Y876D01*
X736Y876D02*
X809Y876D01*
X1036Y876D02*
X1409Y876D01*
X1636Y876D02*
X1709Y876D01*
X1936Y876D02*
X2009Y876D01*
X2235Y876D02*
X2309Y876D01*
X136Y875D02*
X209Y875D01*
X436Y875D02*
X509Y875D01*
X736Y875D02*
X809Y875D01*
X1036Y875D02*
X1109Y875D01*
X1336Y875D02*
X1409Y875D01*
X1636Y875D02*
X1709Y875D01*
X1936Y875D02*
X2009Y875D01*
X2235Y875D02*
X2309Y875D01*
X136Y874D02*
X209Y874D01*
X436Y874D02*
X509Y874D01*
X736Y874D02*
X809Y874D01*
X1036Y874D02*
X1109Y874D01*
X1336Y874D02*
X1409Y874D01*
X1636Y874D02*
X1709Y874D01*
X1936Y874D02*
X2009Y874D01*
X2235Y874D02*
X2309Y874D01*
X136Y873D02*
X209Y873D01*
X436Y873D02*
X509Y873D01*
X736Y873D02*
X809Y873D01*
X1036Y873D02*
X1109Y873D01*
X1336Y873D02*
X1409Y873D01*
X1636Y873D02*
X1709Y873D01*
X1936Y873D02*
X2009Y873D01*
X2235Y873D02*
X2309Y873D01*
X136Y872D02*
X209Y872D01*
X436Y872D02*
X509Y872D01*
X736Y872D02*
X809Y872D01*
X1036Y872D02*
X1109Y872D01*
X1336Y872D02*
X1409Y872D01*
X1636Y872D02*
X1709Y872D01*
X1936Y872D02*
X2009Y872D01*
X2235Y872D02*
X2309Y872D01*
X136Y871D02*
X209Y871D01*
X436Y871D02*
X509Y871D01*
X736Y871D02*
X809Y871D01*
X1036Y871D02*
X1109Y871D01*
X1336Y871D02*
X1409Y871D01*
X1636Y871D02*
X1709Y871D01*
X1936Y871D02*
X2009Y871D01*
X2235Y871D02*
X2309Y871D01*
X136Y870D02*
X209Y870D01*
X436Y870D02*
X509Y870D01*
X736Y870D02*
X809Y870D01*
X1036Y870D02*
X1109Y870D01*
X1336Y870D02*
X1409Y870D01*
X1636Y870D02*
X1709Y870D01*
X1936Y870D02*
X2009Y870D01*
X2235Y870D02*
X2309Y870D01*
X136Y869D02*
X209Y869D01*
X436Y869D02*
X509Y869D01*
X736Y869D02*
X809Y869D01*
X1036Y869D02*
X1109Y869D01*
X1336Y869D02*
X1409Y869D01*
X1636Y869D02*
X1709Y869D01*
X1936Y869D02*
X2009Y869D01*
X2235Y869D02*
X2309Y869D01*
X136Y868D02*
X209Y868D01*
X436Y868D02*
X509Y868D01*
X736Y868D02*
X809Y868D01*
X1036Y868D02*
X1109Y868D01*
X1336Y868D02*
X1409Y868D01*
X1636Y868D02*
X1709Y868D01*
X1936Y868D02*
X2009Y868D01*
X2235Y868D02*
X2309Y868D01*
X136Y867D02*
X209Y867D01*
X436Y867D02*
X509Y867D01*
X736Y867D02*
X809Y867D01*
X1036Y867D02*
X1109Y867D01*
X1336Y867D02*
X1409Y867D01*
X1636Y867D02*
X1709Y867D01*
X1936Y867D02*
X2009Y867D01*
X2235Y867D02*
X2309Y867D01*
X136Y866D02*
X209Y866D01*
X436Y866D02*
X509Y866D01*
X736Y866D02*
X809Y866D01*
X1036Y866D02*
X1109Y866D01*
X1336Y866D02*
X1409Y866D01*
X1636Y866D02*
X1709Y866D01*
X1936Y866D02*
X2009Y866D01*
X2235Y866D02*
X2309Y866D01*
X136Y865D02*
X209Y865D01*
X436Y865D02*
X509Y865D01*
X736Y865D02*
X809Y865D01*
X1036Y865D02*
X1109Y865D01*
X1336Y865D02*
X1409Y865D01*
X1636Y865D02*
X1709Y865D01*
X1936Y865D02*
X2009Y865D01*
X2235Y865D02*
X2309Y865D01*
X136Y864D02*
X209Y864D01*
X436Y864D02*
X509Y864D01*
X736Y864D02*
X809Y864D01*
X1036Y864D02*
X1109Y864D01*
X1336Y864D02*
X1409Y864D01*
X1636Y864D02*
X1709Y864D01*
X1936Y864D02*
X2009Y864D01*
X2235Y864D02*
X2309Y864D01*
X136Y863D02*
X209Y863D01*
X436Y863D02*
X509Y863D01*
X736Y863D02*
X809Y863D01*
X1036Y863D02*
X1109Y863D01*
X1336Y863D02*
X1409Y863D01*
X1636Y863D02*
X1709Y863D01*
X1936Y863D02*
X2009Y863D01*
X2235Y863D02*
X2309Y863D01*
X1059Y823D02*
X1365Y823D01*
X1055Y822D02*
X1369Y822D01*
X1052Y821D02*
X1372Y821D01*
X1051Y820D02*
X1373Y820D01*
X1049Y819D02*
X1375Y819D01*
X1048Y818D02*
X1376Y818D01*
X1046Y817D02*
X1378Y817D01*
X1045Y816D02*
X1379Y816D01*
X1045Y815D02*
X1380Y815D01*
X1044Y814D02*
X1380Y814D01*
X1043Y813D02*
X1381Y813D01*
X1042Y812D02*
X1382Y812D01*
X1042Y811D02*
X1382Y811D01*
X1041Y810D02*
X1383Y810D01*
X1041Y809D02*
X1383Y809D01*
X1040Y808D02*
X1384Y808D01*
X1040Y807D02*
X1384Y807D01*
X1040Y806D02*
X1384Y806D01*
X1039Y805D02*
X1385Y805D01*
X1039Y804D02*
X1385Y804D01*
X1039Y803D02*
X1385Y803D01*
X1039Y802D02*
X1385Y802D01*
X1039Y801D02*
X1385Y801D01*
X1039Y800D02*
X1385Y800D01*
X1039Y799D02*
X1386Y799D01*
X1039Y798D02*
X1385Y798D01*
X1039Y797D02*
X1385Y797D01*
X1039Y796D02*
X1385Y796D01*
X1039Y795D02*
X1385Y795D01*
X1039Y794D02*
X1385Y794D01*
X1039Y793D02*
X1385Y793D01*
X1040Y792D02*
X1384Y792D01*
X1040Y791D02*
X1384Y791D01*
X1040Y790D02*
X1384Y790D01*
X1041Y789D02*
X1383Y789D01*
X1041Y788D02*
X1383Y788D01*
X1042Y787D02*
X1382Y787D01*
X1043Y786D02*
X1381Y786D01*
X1043Y785D02*
X1381Y785D01*
X1044Y784D02*
X1380Y784D01*
X1045Y783D02*
X1379Y783D01*
X1046Y782D02*
X1378Y782D01*
X1047Y781D02*
X1377Y781D01*
X1048Y780D02*
X1376Y780D01*
X1050Y779D02*
X1374Y779D01*
X1052Y778D02*
X1372Y778D01*
X1054Y777D02*
X1370Y777D01*
X1057Y776D02*
X1367Y776D01*
X33Y529D02*
X91Y529D01*
X233Y529D02*
X291Y529D01*
X33Y528D02*
X91Y528D01*
X233Y528D02*
X291Y528D01*
X33Y527D02*
X91Y527D01*
X233Y527D02*
X291Y527D01*
X33Y526D02*
X91Y526D01*
X233Y526D02*
X291Y526D01*
X33Y525D02*
X91Y525D01*
X233Y525D02*
X291Y525D01*
X33Y524D02*
X91Y524D01*
X233Y524D02*
X291Y524D01*
X33Y523D02*
X91Y523D01*
X233Y523D02*
X291Y523D01*
X33Y522D02*
X91Y522D01*
X233Y522D02*
X291Y522D01*
X33Y521D02*
X91Y521D01*
X233Y521D02*
X291Y521D01*
X555Y521D02*
X568Y521D01*
X33Y520D02*
X91Y520D01*
X233Y520D02*
X291Y520D01*
X551Y520D02*
X571Y520D01*
X33Y519D02*
X91Y519D01*
X233Y519D02*
X291Y519D01*
X549Y519D02*
X573Y519D01*
X33Y518D02*
X56Y518D01*
X68Y518D02*
X91Y518D01*
X233Y518D02*
X256Y518D01*
X268Y518D02*
X291Y518D01*
X547Y518D02*
X574Y518D01*
X33Y517D02*
X53Y517D01*
X71Y517D02*
X91Y517D01*
X233Y517D02*
X253Y517D01*
X271Y517D02*
X291Y517D01*
X545Y517D02*
X576Y517D01*
X33Y516D02*
X51Y516D01*
X73Y516D02*
X91Y516D01*
X233Y516D02*
X251Y516D01*
X273Y516D02*
X291Y516D01*
X544Y516D02*
X577Y516D01*
X33Y515D02*
X50Y515D01*
X74Y515D02*
X91Y515D01*
X233Y515D02*
X250Y515D01*
X274Y515D02*
X291Y515D01*
X543Y515D02*
X578Y515D01*
X33Y514D02*
X49Y514D01*
X76Y514D02*
X91Y514D01*
X233Y514D02*
X249Y514D01*
X276Y514D02*
X291Y514D01*
X542Y514D02*
X579Y514D01*
X33Y513D02*
X47Y513D01*
X77Y513D02*
X91Y513D01*
X233Y513D02*
X247Y513D01*
X277Y513D02*
X291Y513D01*
X541Y513D02*
X580Y513D01*
X33Y512D02*
X47Y512D01*
X77Y512D02*
X91Y512D01*
X233Y512D02*
X247Y512D01*
X277Y512D02*
X291Y512D01*
X540Y512D02*
X581Y512D01*
X33Y511D02*
X46Y511D01*
X78Y511D02*
X91Y511D01*
X233Y511D02*
X246Y511D01*
X278Y511D02*
X291Y511D01*
X539Y511D02*
X582Y511D01*
X33Y510D02*
X45Y510D01*
X79Y510D02*
X91Y510D01*
X233Y510D02*
X245Y510D01*
X279Y510D02*
X291Y510D01*
X538Y510D02*
X582Y510D01*
X33Y509D02*
X44Y509D01*
X80Y509D02*
X91Y509D01*
X233Y509D02*
X244Y509D01*
X280Y509D02*
X291Y509D01*
X538Y509D02*
X583Y509D01*
X33Y508D02*
X44Y508D01*
X80Y508D02*
X91Y508D01*
X233Y508D02*
X244Y508D01*
X280Y508D02*
X291Y508D01*
X537Y508D02*
X583Y508D01*
X33Y507D02*
X43Y507D01*
X81Y507D02*
X91Y507D01*
X233Y507D02*
X243Y507D01*
X281Y507D02*
X291Y507D01*
X537Y507D02*
X584Y507D01*
X33Y506D02*
X43Y506D01*
X81Y506D02*
X91Y506D01*
X233Y506D02*
X243Y506D01*
X281Y506D02*
X291Y506D01*
X536Y506D02*
X584Y506D01*
X33Y505D02*
X43Y505D01*
X81Y505D02*
X91Y505D01*
X233Y505D02*
X243Y505D01*
X281Y505D02*
X291Y505D01*
X536Y505D02*
X584Y505D01*
X33Y504D02*
X42Y504D01*
X82Y504D02*
X91Y504D01*
X233Y504D02*
X242Y504D01*
X282Y504D02*
X291Y504D01*
X535Y504D02*
X585Y504D01*
X33Y503D02*
X42Y503D01*
X82Y503D02*
X91Y503D01*
X233Y503D02*
X242Y503D01*
X282Y503D02*
X291Y503D01*
X535Y503D02*
X585Y503D01*
X33Y502D02*
X42Y502D01*
X82Y502D02*
X91Y502D01*
X233Y502D02*
X242Y502D01*
X282Y502D02*
X291Y502D01*
X535Y502D02*
X585Y502D01*
X33Y501D02*
X42Y501D01*
X82Y501D02*
X91Y501D01*
X233Y501D02*
X242Y501D01*
X282Y501D02*
X291Y501D01*
X534Y501D02*
X585Y501D01*
X33Y500D02*
X42Y500D01*
X82Y500D02*
X91Y500D01*
X233Y500D02*
X242Y500D01*
X282Y500D02*
X291Y500D01*
X534Y500D02*
X585Y500D01*
X33Y499D02*
X42Y499D01*
X82Y499D02*
X91Y499D01*
X233Y499D02*
X242Y499D01*
X282Y499D02*
X291Y499D01*
X534Y499D02*
X585Y499D01*
X33Y498D02*
X42Y498D01*
X82Y498D02*
X91Y498D01*
X233Y498D02*
X242Y498D01*
X282Y498D02*
X291Y498D01*
X534Y498D02*
X585Y498D01*
X33Y497D02*
X42Y497D01*
X82Y497D02*
X91Y497D01*
X233Y497D02*
X242Y497D01*
X282Y497D02*
X291Y497D01*
X534Y497D02*
X585Y497D01*
X33Y496D02*
X42Y496D01*
X82Y496D02*
X91Y496D01*
X233Y496D02*
X242Y496D01*
X282Y496D02*
X291Y496D01*
X534Y496D02*
X585Y496D01*
X33Y495D02*
X42Y495D01*
X82Y495D02*
X91Y495D01*
X233Y495D02*
X242Y495D01*
X282Y495D02*
X291Y495D01*
X534Y495D02*
X586Y495D01*
X33Y494D02*
X43Y494D01*
X81Y494D02*
X91Y494D01*
X233Y494D02*
X243Y494D01*
X281Y494D02*
X291Y494D01*
X534Y494D02*
X586Y494D01*
X33Y493D02*
X43Y493D01*
X81Y493D02*
X91Y493D01*
X233Y493D02*
X243Y493D01*
X281Y493D02*
X291Y493D01*
X534Y493D02*
X587Y493D01*
X33Y492D02*
X43Y492D01*
X81Y492D02*
X91Y492D01*
X233Y492D02*
X243Y492D01*
X281Y492D02*
X291Y492D01*
X534Y492D02*
X588Y492D01*
X33Y491D02*
X44Y491D01*
X80Y491D02*
X91Y491D01*
X233Y491D02*
X244Y491D01*
X280Y491D02*
X291Y491D01*
X534Y491D02*
X589Y491D01*
X33Y490D02*
X44Y490D01*
X80Y490D02*
X91Y490D01*
X233Y490D02*
X244Y490D01*
X280Y490D02*
X291Y490D01*
X534Y490D02*
X590Y490D01*
X33Y489D02*
X45Y489D01*
X79Y489D02*
X91Y489D01*
X233Y489D02*
X245Y489D01*
X279Y489D02*
X291Y489D01*
X534Y489D02*
X591Y489D01*
X33Y488D02*
X46Y488D01*
X79Y488D02*
X91Y488D01*
X233Y488D02*
X245Y488D01*
X279Y488D02*
X291Y488D01*
X535Y488D02*
X592Y488D01*
X33Y487D02*
X46Y487D01*
X78Y487D02*
X91Y487D01*
X233Y487D02*
X246Y487D01*
X278Y487D02*
X291Y487D01*
X535Y487D02*
X593Y487D01*
X33Y486D02*
X47Y486D01*
X77Y486D02*
X91Y486D01*
X233Y486D02*
X247Y486D01*
X277Y486D02*
X291Y486D01*
X535Y486D02*
X594Y486D01*
X33Y485D02*
X48Y485D01*
X76Y485D02*
X91Y485D01*
X233Y485D02*
X248Y485D01*
X276Y485D02*
X291Y485D01*
X535Y485D02*
X595Y485D01*
X33Y484D02*
X49Y484D01*
X75Y484D02*
X91Y484D01*
X233Y484D02*
X249Y484D01*
X275Y484D02*
X291Y484D01*
X536Y484D02*
X596Y484D01*
X33Y483D02*
X51Y483D01*
X73Y483D02*
X91Y483D01*
X233Y483D02*
X251Y483D01*
X273Y483D02*
X291Y483D01*
X536Y483D02*
X598Y483D01*
X33Y482D02*
X52Y482D01*
X72Y482D02*
X91Y482D01*
X233Y482D02*
X252Y482D01*
X272Y482D02*
X291Y482D01*
X537Y482D02*
X599Y482D01*
X33Y481D02*
X55Y481D01*
X70Y481D02*
X91Y481D01*
X233Y481D02*
X255Y481D01*
X270Y481D02*
X291Y481D01*
X537Y481D02*
X600Y481D01*
X33Y480D02*
X58Y480D01*
X66Y480D02*
X91Y480D01*
X233Y480D02*
X258Y480D01*
X266Y480D02*
X291Y480D01*
X538Y480D02*
X601Y480D01*
X33Y479D02*
X91Y479D01*
X233Y479D02*
X291Y479D01*
X538Y479D02*
X602Y479D01*
X33Y478D02*
X91Y478D01*
X233Y478D02*
X291Y478D01*
X539Y478D02*
X603Y478D01*
X33Y477D02*
X91Y477D01*
X233Y477D02*
X291Y477D01*
X539Y477D02*
X604Y477D01*
X33Y476D02*
X91Y476D01*
X233Y476D02*
X291Y476D01*
X540Y476D02*
X605Y476D01*
X33Y475D02*
X91Y475D01*
X233Y475D02*
X291Y475D01*
X541Y475D02*
X606Y475D01*
X33Y474D02*
X91Y474D01*
X233Y474D02*
X291Y474D01*
X541Y474D02*
X608Y474D01*
X33Y473D02*
X91Y473D01*
X233Y473D02*
X291Y473D01*
X542Y473D02*
X609Y473D01*
X33Y472D02*
X91Y472D01*
X233Y472D02*
X291Y472D01*
X543Y472D02*
X610Y472D01*
X33Y471D02*
X91Y471D01*
X233Y471D02*
X291Y471D01*
X544Y471D02*
X611Y471D01*
X33Y470D02*
X91Y470D01*
X233Y470D02*
X291Y470D01*
X545Y470D02*
X612Y470D01*
X545Y469D02*
X613Y469D01*
X546Y468D02*
X614Y468D01*
X547Y467D02*
X616Y467D01*
X548Y466D02*
X617Y466D01*
X549Y465D02*
X618Y465D01*
X550Y464D02*
X619Y464D01*
X551Y463D02*
X620Y463D01*
X552Y462D02*
X621Y462D01*
X552Y461D02*
X623Y461D01*
X553Y460D02*
X624Y460D01*
X554Y459D02*
X625Y459D01*
X555Y458D02*
X626Y458D01*
X556Y457D02*
X627Y457D01*
X557Y456D02*
X629Y456D01*
X558Y455D02*
X630Y455D01*
X559Y454D02*
X631Y454D01*
X560Y453D02*
X632Y453D01*
X561Y452D02*
X633Y452D01*
X562Y451D02*
X635Y451D01*
X564Y450D02*
X636Y450D01*
X565Y449D02*
X637Y449D01*
X566Y448D02*
X638Y448D01*
X567Y447D02*
X639Y447D01*
X568Y446D02*
X641Y446D01*
X569Y445D02*
X642Y445D01*
X570Y444D02*
X643Y444D01*
X571Y443D02*
X644Y443D01*
X572Y442D02*
X646Y442D01*
X573Y441D02*
X647Y441D01*
X575Y440D02*
X648Y440D01*
X576Y439D02*
X649Y439D01*
X577Y438D02*
X650Y438D01*
X578Y437D02*
X652Y437D01*
X579Y436D02*
X653Y436D01*
X580Y435D02*
X654Y435D01*
X581Y434D02*
X655Y434D01*
X583Y433D02*
X657Y433D01*
X584Y432D02*
X658Y432D01*
X585Y431D02*
X659Y431D01*
X586Y430D02*
X661Y430D01*
X587Y429D02*
X662Y429D01*
X588Y428D02*
X663Y428D01*
X590Y427D02*
X664Y427D01*
X591Y426D02*
X666Y426D01*
X592Y425D02*
X667Y425D01*
X593Y424D02*
X668Y424D01*
X594Y423D02*
X669Y423D01*
X595Y422D02*
X671Y422D01*
X597Y421D02*
X672Y421D01*
X598Y420D02*
X673Y420D01*
X599Y419D02*
X674Y419D01*
X600Y418D02*
X676Y418D01*
X601Y417D02*
X677Y417D01*
X603Y416D02*
X678Y416D01*
X604Y415D02*
X679Y415D01*
X605Y414D02*
X681Y414D01*
X606Y413D02*
X682Y413D01*
X607Y412D02*
X683Y412D01*
X609Y411D02*
X685Y411D01*
X610Y410D02*
X686Y410D01*
X611Y409D02*
X687Y409D01*
X612Y408D02*
X688Y408D01*
X614Y407D02*
X690Y407D01*
X615Y406D02*
X691Y406D01*
X616Y405D02*
X692Y405D01*
X617Y404D02*
X694Y404D01*
X618Y403D02*
X695Y403D01*
X620Y402D02*
X696Y402D01*
X621Y401D02*
X698Y401D01*
X622Y400D02*
X699Y400D01*
X623Y399D02*
X700Y399D01*
X625Y398D02*
X701Y398D01*
X626Y397D02*
X703Y397D01*
X627Y396D02*
X704Y396D01*
X628Y395D02*
X705Y395D01*
X630Y394D02*
X707Y394D01*
X631Y393D02*
X708Y393D01*
X632Y392D02*
X709Y392D01*
X633Y391D02*
X711Y391D01*
X635Y390D02*
X712Y390D01*
X636Y389D02*
X713Y389D01*
X637Y388D02*
X714Y388D01*
X638Y387D02*
X716Y387D01*
X640Y386D02*
X717Y386D01*
X641Y385D02*
X718Y385D01*
X642Y384D02*
X720Y384D01*
X644Y383D02*
X721Y383D01*
X645Y382D02*
X722Y382D01*
X646Y381D02*
X724Y381D01*
X647Y380D02*
X725Y380D01*
X649Y379D02*
X726Y379D01*
X650Y378D02*
X728Y378D01*
X651Y377D02*
X729Y377D01*
X652Y376D02*
X730Y376D01*
X654Y375D02*
X732Y375D01*
X655Y374D02*
X733Y374D01*
X656Y373D02*
X734Y373D01*
X658Y372D02*
X736Y372D01*
X659Y371D02*
X737Y371D01*
X660Y370D02*
X738Y370D01*
X661Y369D02*
X740Y369D01*
X663Y368D02*
X741Y368D01*
X664Y367D02*
X742Y367D01*
X665Y366D02*
X744Y366D01*
X667Y365D02*
X745Y365D01*
X668Y364D02*
X746Y364D01*
X669Y363D02*
X748Y363D01*
X670Y362D02*
X749Y362D01*
X672Y361D02*
X750Y361D01*
X673Y360D02*
X752Y360D01*
X674Y359D02*
X753Y359D01*
X676Y358D02*
X754Y358D01*
X677Y357D02*
X755Y357D01*
X678Y356D02*
X757Y356D01*
X680Y355D02*
X758Y355D01*
X681Y354D02*
X759Y354D01*
X682Y353D02*
X761Y353D01*
X683Y352D02*
X762Y352D01*
X685Y351D02*
X763Y351D01*
X686Y350D02*
X765Y350D01*
X687Y349D02*
X766Y349D01*
X689Y348D02*
X767Y348D01*
X690Y347D02*
X769Y347D01*
X691Y346D02*
X770Y346D01*
X693Y345D02*
X771Y345D01*
X694Y344D02*
X773Y344D01*
X695Y343D02*
X774Y343D01*
X697Y342D02*
X776Y342D01*
X698Y341D02*
X777Y341D01*
X699Y340D02*
X778Y340D01*
X701Y339D02*
X780Y339D01*
X702Y338D02*
X781Y338D01*
X703Y337D02*
X782Y337D01*
X705Y336D02*
X784Y336D01*
X706Y335D02*
X785Y335D01*
X707Y334D02*
X786Y334D01*
X709Y333D02*
X788Y333D01*
X710Y332D02*
X789Y332D01*
X711Y331D02*
X790Y331D01*
X713Y330D02*
X792Y330D01*
X714Y329D02*
X793Y329D01*
X715Y328D02*
X794Y328D01*
X717Y327D02*
X796Y327D01*
X718Y326D02*
X797Y326D01*
X719Y325D02*
X799Y325D01*
X721Y324D02*
X800Y324D01*
X722Y323D02*
X801Y323D01*
X723Y322D02*
X803Y322D01*
X725Y321D02*
X804Y321D01*
X726Y320D02*
X805Y320D01*
X727Y319D02*
X807Y319D01*
X728Y318D02*
X808Y318D01*
X730Y317D02*
X809Y317D01*
X731Y316D02*
X811Y316D01*
X732Y315D02*
X812Y315D01*
X734Y314D02*
X813Y314D01*
X735Y313D02*
X815Y313D01*
X736Y312D02*
X816Y312D01*
X738Y311D02*
X817Y311D01*
X739Y310D02*
X819Y310D01*
X740Y309D02*
X820Y309D01*
X742Y308D02*
X822Y308D01*
X743Y307D02*
X823Y307D01*
X744Y306D02*
X824Y306D01*
X746Y305D02*
X826Y305D01*
X747Y304D02*
X827Y304D01*
X749Y303D02*
X828Y303D01*
X750Y302D02*
X830Y302D01*
X751Y301D02*
X831Y301D01*
X753Y300D02*
X833Y300D01*
X754Y299D02*
X834Y299D01*
X755Y298D02*
X835Y298D01*
X757Y297D02*
X837Y297D01*
X758Y296D02*
X838Y296D01*
X759Y295D02*
X839Y295D01*
X761Y294D02*
X841Y294D01*
X762Y293D02*
X842Y293D01*
X763Y292D02*
X844Y292D01*
X765Y291D02*
X845Y291D01*
X766Y290D02*
X846Y290D01*
X767Y289D02*
X848Y289D01*
X769Y288D02*
X849Y288D01*
X770Y287D02*
X851Y287D01*
X772Y286D02*
X852Y286D01*
X773Y285D02*
X853Y285D01*
X774Y284D02*
X855Y284D01*
X776Y283D02*
X856Y283D01*
X777Y282D02*
X857Y282D01*
X778Y281D02*
X859Y281D01*
X780Y280D02*
X860Y280D01*
X781Y279D02*
X862Y279D01*
X782Y278D02*
X863Y278D01*
X784Y277D02*
X864Y277D01*
X785Y276D02*
X866Y276D01*
X786Y275D02*
X867Y275D01*
X788Y274D02*
X868Y274D01*
X789Y273D02*
X870Y273D01*
X791Y272D02*
X871Y272D01*
X792Y271D02*
X873Y271D01*
X793Y270D02*
X874Y270D01*
X795Y269D02*
X875Y269D01*
X796Y268D02*
X877Y268D01*
X797Y267D02*
X878Y267D01*
X799Y266D02*
X879Y266D01*
X800Y265D02*
X880Y265D01*
X801Y264D02*
X880Y264D01*
X803Y263D02*
X881Y263D01*
X804Y262D02*
X882Y262D01*
X806Y261D02*
X882Y261D01*
X807Y260D02*
X883Y260D01*
X808Y259D02*
X883Y259D01*
X810Y258D02*
X884Y258D01*
X811Y257D02*
X884Y257D01*
X813Y256D02*
X884Y256D01*
X814Y255D02*
X885Y255D01*
X815Y254D02*
X885Y254D01*
X817Y253D02*
X885Y253D01*
X818Y252D02*
X885Y252D01*
X819Y251D02*
X885Y251D01*
X821Y250D02*
X886Y250D01*
X822Y249D02*
X886Y249D01*
X824Y248D02*
X885Y248D01*
X825Y247D02*
X885Y247D01*
X826Y246D02*
X885Y246D01*
X828Y245D02*
X885Y245D01*
X829Y244D02*
X885Y244D01*
X830Y243D02*
X885Y243D01*
X832Y242D02*
X884Y242D01*
X833Y241D02*
X884Y241D01*
X835Y240D02*
X884Y240D01*
X836Y239D02*
X883Y239D01*
X837Y238D02*
X883Y238D01*
X839Y237D02*
X882Y237D01*
X840Y236D02*
X881Y236D01*
X841Y235D02*
X881Y235D01*
X843Y234D02*
X880Y234D01*
X844Y233D02*
X879Y233D01*
X846Y232D02*
X878Y232D01*
X847Y231D02*
X877Y231D01*
X848Y230D02*
X876Y230D01*
X33Y229D02*
X91Y229D01*
X233Y229D02*
X291Y229D01*
X850Y229D02*
X874Y229D01*
X33Y228D02*
X91Y228D01*
X233Y228D02*
X291Y228D01*
X852Y228D02*
X872Y228D01*
X33Y227D02*
X91Y227D01*
X233Y227D02*
X291Y227D01*
X854Y227D02*
X870Y227D01*
X33Y226D02*
X91Y226D01*
X233Y226D02*
X291Y226D01*
X857Y226D02*
X867Y226D01*
X33Y225D02*
X91Y225D01*
X233Y225D02*
X291Y225D01*
X33Y224D02*
X91Y224D01*
X233Y224D02*
X291Y224D01*
X33Y223D02*
X91Y223D01*
X233Y223D02*
X291Y223D01*
X33Y222D02*
X91Y222D01*
X233Y222D02*
X291Y222D01*
X33Y221D02*
X91Y221D01*
X233Y221D02*
X291Y221D01*
X33Y220D02*
X91Y220D01*
X233Y220D02*
X291Y220D01*
X33Y219D02*
X61Y219D01*
X63Y219D02*
X91Y219D01*
X233Y219D02*
X261Y219D01*
X263Y219D02*
X291Y219D01*
X33Y218D02*
X55Y218D01*
X69Y218D02*
X91Y218D01*
X233Y218D02*
X255Y218D01*
X269Y218D02*
X291Y218D01*
X33Y217D02*
X53Y217D01*
X71Y217D02*
X91Y217D01*
X233Y217D02*
X253Y217D01*
X271Y217D02*
X291Y217D01*
X33Y216D02*
X51Y216D01*
X73Y216D02*
X91Y216D01*
X233Y216D02*
X251Y216D01*
X273Y216D02*
X291Y216D01*
X33Y215D02*
X50Y215D01*
X74Y215D02*
X91Y215D01*
X233Y215D02*
X250Y215D01*
X274Y215D02*
X291Y215D01*
X33Y214D02*
X48Y214D01*
X76Y214D02*
X91Y214D01*
X233Y214D02*
X248Y214D01*
X276Y214D02*
X291Y214D01*
X33Y213D02*
X47Y213D01*
X77Y213D02*
X91Y213D01*
X233Y213D02*
X247Y213D01*
X277Y213D02*
X291Y213D01*
X33Y212D02*
X47Y212D01*
X78Y212D02*
X91Y212D01*
X233Y212D02*
X247Y212D01*
X278Y212D02*
X291Y212D01*
X33Y211D02*
X46Y211D01*
X78Y211D02*
X91Y211D01*
X233Y211D02*
X246Y211D01*
X278Y211D02*
X291Y211D01*
X33Y210D02*
X45Y210D01*
X79Y210D02*
X91Y210D01*
X233Y210D02*
X245Y210D01*
X279Y210D02*
X291Y210D01*
X33Y209D02*
X44Y209D01*
X80Y209D02*
X91Y209D01*
X233Y209D02*
X244Y209D01*
X280Y209D02*
X291Y209D01*
X33Y208D02*
X44Y208D01*
X80Y208D02*
X91Y208D01*
X233Y208D02*
X244Y208D01*
X280Y208D02*
X291Y208D01*
X33Y207D02*
X43Y207D01*
X81Y207D02*
X91Y207D01*
X233Y207D02*
X243Y207D01*
X281Y207D02*
X291Y207D01*
X33Y206D02*
X43Y206D01*
X81Y206D02*
X91Y206D01*
X233Y206D02*
X243Y206D01*
X281Y206D02*
X291Y206D01*
X33Y205D02*
X43Y205D01*
X81Y205D02*
X91Y205D01*
X233Y205D02*
X243Y205D01*
X281Y205D02*
X291Y205D01*
X33Y204D02*
X42Y204D01*
X82Y204D02*
X91Y204D01*
X233Y204D02*
X242Y204D01*
X282Y204D02*
X291Y204D01*
X33Y203D02*
X42Y203D01*
X82Y203D02*
X91Y203D01*
X233Y203D02*
X242Y203D01*
X282Y203D02*
X291Y203D01*
X33Y202D02*
X42Y202D01*
X82Y202D02*
X91Y202D01*
X233Y202D02*
X242Y202D01*
X282Y202D02*
X291Y202D01*
X33Y201D02*
X42Y201D01*
X82Y201D02*
X91Y201D01*
X233Y201D02*
X242Y201D01*
X282Y201D02*
X291Y201D01*
X33Y200D02*
X42Y200D01*
X82Y200D02*
X91Y200D01*
X233Y200D02*
X242Y200D01*
X282Y200D02*
X291Y200D01*
X33Y199D02*
X42Y199D01*
X82Y199D02*
X91Y199D01*
X233Y199D02*
X242Y199D01*
X282Y199D02*
X291Y199D01*
X33Y198D02*
X42Y198D01*
X82Y198D02*
X91Y198D01*
X233Y198D02*
X242Y198D01*
X282Y198D02*
X291Y198D01*
X33Y197D02*
X42Y197D01*
X82Y197D02*
X91Y197D01*
X233Y197D02*
X242Y197D01*
X282Y197D02*
X291Y197D01*
X33Y196D02*
X42Y196D01*
X82Y196D02*
X91Y196D01*
X233Y196D02*
X242Y196D01*
X282Y196D02*
X291Y196D01*
X33Y195D02*
X42Y195D01*
X82Y195D02*
X91Y195D01*
X233Y195D02*
X242Y195D01*
X282Y195D02*
X291Y195D01*
X33Y194D02*
X43Y194D01*
X81Y194D02*
X91Y194D01*
X233Y194D02*
X243Y194D01*
X281Y194D02*
X291Y194D01*
X33Y193D02*
X43Y193D01*
X81Y193D02*
X91Y193D01*
X233Y193D02*
X243Y193D01*
X281Y193D02*
X291Y193D01*
X33Y192D02*
X43Y192D01*
X81Y192D02*
X91Y192D01*
X233Y192D02*
X243Y192D01*
X281Y192D02*
X291Y192D01*
X33Y191D02*
X44Y191D01*
X80Y191D02*
X91Y191D01*
X233Y191D02*
X244Y191D01*
X280Y191D02*
X291Y191D01*
X33Y190D02*
X44Y190D01*
X80Y190D02*
X91Y190D01*
X233Y190D02*
X244Y190D01*
X280Y190D02*
X291Y190D01*
X33Y189D02*
X45Y189D01*
X79Y189D02*
X91Y189D01*
X233Y189D02*
X245Y189D01*
X279Y189D02*
X291Y189D01*
X33Y188D02*
X46Y188D01*
X79Y188D02*
X91Y188D01*
X233Y188D02*
X246Y188D01*
X279Y188D02*
X291Y188D01*
X33Y187D02*
X46Y187D01*
X78Y187D02*
X91Y187D01*
X233Y187D02*
X246Y187D01*
X278Y187D02*
X291Y187D01*
X33Y186D02*
X47Y186D01*
X77Y186D02*
X91Y186D01*
X233Y186D02*
X247Y186D01*
X277Y186D02*
X291Y186D01*
X33Y185D02*
X48Y185D01*
X76Y185D02*
X91Y185D01*
X233Y185D02*
X248Y185D01*
X276Y185D02*
X291Y185D01*
X33Y184D02*
X49Y184D01*
X75Y184D02*
X91Y184D01*
X233Y184D02*
X249Y184D01*
X275Y184D02*
X291Y184D01*
X33Y183D02*
X51Y183D01*
X73Y183D02*
X91Y183D01*
X233Y183D02*
X251Y183D01*
X273Y183D02*
X291Y183D01*
X33Y182D02*
X53Y182D01*
X72Y182D02*
X91Y182D01*
X233Y182D02*
X253Y182D01*
X272Y182D02*
X291Y182D01*
X33Y181D02*
X55Y181D01*
X69Y181D02*
X91Y181D01*
X233Y181D02*
X255Y181D01*
X269Y181D02*
X291Y181D01*
X33Y180D02*
X59Y180D01*
X66Y180D02*
X91Y180D01*
X233Y180D02*
X259Y180D01*
X266Y180D02*
X291Y180D01*
X33Y179D02*
X91Y179D01*
X233Y179D02*
X291Y179D01*
X33Y178D02*
X91Y178D01*
X233Y178D02*
X291Y178D01*
X33Y177D02*
X91Y177D01*
X233Y177D02*
X291Y177D01*
X33Y176D02*
X91Y176D01*
X233Y176D02*
X291Y176D01*
X33Y175D02*
X91Y175D01*
X233Y175D02*
X291Y175D01*
X33Y174D02*
X91Y174D01*
X233Y174D02*
X291Y174D01*
X33Y173D02*
X91Y173D01*
X233Y173D02*
X291Y173D01*
X33Y172D02*
X91Y172D01*
X233Y172D02*
X291Y172D01*
X33Y171D02*
X91Y171D01*
X233Y171D02*
X291Y171D01*
X33Y170D02*
X91Y170D01*
X233Y170D02*
X291Y170D01*
D02*
G04 End of Copper1*
M02*