G04 MADE WITH FRITZING*
G04 WWW.FRITZING.ORG*
G04 DOUBLE SIDED*
G04 HOLES PLATED*
G04 CONTOUR ON CENTER OF CONTOUR VECTOR*
%ASAXBY*%
%FSLAX23Y23*%
%MOIN*%
%OFA0B0*%
%SFA1.0B1.0*%
%ADD10C,0.082917*%
%ADD11C,0.084000*%
%ADD12R,0.001000X0.001000*%
%LNMASK0*%
G90*
G70*
G54D10*
X3013Y155D03*
X1413Y155D03*
X3113Y155D03*
X3213Y155D03*
X3313Y155D03*
X3413Y155D03*
X3713Y1555D03*
X3513Y155D03*
X3613Y155D03*
X1453Y2055D03*
X2013Y155D03*
X2113Y155D03*
X2213Y155D03*
X2313Y155D03*
X3713Y755D03*
X2413Y155D03*
X2513Y155D03*
X2613Y155D03*
X2713Y155D03*
X2213Y2055D03*
X3713Y1955D03*
X3713Y1155D03*
X3713Y355D03*
X1053Y2055D03*
X1813Y155D03*
X1813Y2055D03*
X3713Y1755D03*
X3713Y1355D03*
X3713Y955D03*
X3413Y2055D03*
X3713Y555D03*
X3313Y2055D03*
X3213Y2055D03*
X3113Y2055D03*
X3013Y2055D03*
X2913Y2055D03*
X2813Y2055D03*
X2713Y2055D03*
X853Y2055D03*
X1253Y2055D03*
X1653Y2055D03*
X1213Y155D03*
X1613Y155D03*
X2413Y2055D03*
X2013Y2055D03*
X3713Y2055D03*
X3713Y1855D03*
X3713Y1655D03*
X3713Y1455D03*
X3713Y1255D03*
X3713Y1055D03*
X3713Y855D03*
X3713Y655D03*
X3713Y455D03*
X753Y2055D03*
X953Y2055D03*
X1153Y2055D03*
X1353Y2055D03*
X1553Y2055D03*
X1113Y155D03*
X1313Y155D03*
X1513Y155D03*
X1713Y155D03*
X2513Y2055D03*
X2313Y2055D03*
X2113Y2055D03*
X1913Y2055D03*
X3813Y2055D03*
X3813Y1955D03*
X3813Y1855D03*
X3813Y1755D03*
X3813Y1655D03*
X3813Y1555D03*
X3813Y1455D03*
X3813Y1355D03*
X3813Y1255D03*
X3813Y1155D03*
X3813Y1055D03*
X3813Y955D03*
X3813Y855D03*
X3813Y755D03*
X3813Y655D03*
X3813Y555D03*
X3813Y455D03*
X3813Y355D03*
X2913Y155D03*
G54D11*
X2713Y1215D03*
X2813Y1205D03*
X2913Y1215D03*
X3013Y1205D03*
X3113Y1215D03*
X3213Y1205D03*
X3313Y1215D03*
X3413Y1205D03*
X2113Y895D03*
X2013Y905D03*
X1913Y895D03*
X1813Y905D03*
X2913Y895D03*
X2813Y905D03*
X2713Y895D03*
X2613Y905D03*
X3313Y895D03*
X3213Y905D03*
X3113Y895D03*
X3013Y905D03*
X513Y895D03*
X413Y905D03*
X313Y895D03*
X213Y905D03*
X2513Y895D03*
X2413Y905D03*
X2313Y895D03*
X2213Y905D03*
X1713Y895D03*
X1613Y905D03*
X1513Y895D03*
X1413Y905D03*
X913Y895D03*
X813Y905D03*
X713Y895D03*
X613Y905D03*
X313Y1215D03*
X413Y1205D03*
X513Y1215D03*
X613Y1205D03*
X713Y1215D03*
X813Y1205D03*
X913Y1215D03*
X1013Y1205D03*
X1113Y1215D03*
X1213Y1205D03*
X1313Y1215D03*
X1413Y1205D03*
X1513Y1215D03*
X1613Y1205D03*
X1713Y1215D03*
X1813Y1205D03*
X1913Y1215D03*
X2013Y1205D03*
X2113Y1215D03*
X2213Y1205D03*
X2313Y1215D03*
X2413Y1205D03*
X2513Y1215D03*
X2613Y1205D03*
X1313Y895D03*
X1213Y905D03*
X1113Y895D03*
X1013Y905D03*
G54D12*
X271Y1257D02*
X354Y1257D01*
X671Y1257D02*
X754Y1257D01*
X1071Y1257D02*
X1154Y1257D01*
X1471Y1257D02*
X1554Y1257D01*
X1871Y1257D02*
X1954Y1257D01*
X2271Y1257D02*
X2354Y1257D01*
X2671Y1257D02*
X2754Y1257D01*
X3071Y1257D02*
X3154Y1257D01*
X271Y1256D02*
X354Y1256D01*
X671Y1256D02*
X754Y1256D01*
X1071Y1256D02*
X1154Y1256D01*
X1471Y1256D02*
X1554Y1256D01*
X1871Y1256D02*
X1954Y1256D01*
X2271Y1256D02*
X2354Y1256D01*
X2671Y1256D02*
X2754Y1256D01*
X3071Y1256D02*
X3154Y1256D01*
X271Y1255D02*
X354Y1255D01*
X671Y1255D02*
X754Y1255D01*
X1071Y1255D02*
X1154Y1255D01*
X1471Y1255D02*
X1554Y1255D01*
X1871Y1255D02*
X1954Y1255D01*
X2271Y1255D02*
X2354Y1255D01*
X2671Y1255D02*
X2754Y1255D01*
X3071Y1255D02*
X3154Y1255D01*
X271Y1254D02*
X354Y1254D01*
X671Y1254D02*
X754Y1254D01*
X1071Y1254D02*
X1154Y1254D01*
X1471Y1254D02*
X1554Y1254D01*
X1871Y1254D02*
X1954Y1254D01*
X2271Y1254D02*
X2354Y1254D01*
X2671Y1254D02*
X2754Y1254D01*
X3071Y1254D02*
X3154Y1254D01*
X271Y1253D02*
X354Y1253D01*
X671Y1253D02*
X754Y1253D01*
X1071Y1253D02*
X1154Y1253D01*
X1471Y1253D02*
X1554Y1253D01*
X1871Y1253D02*
X1954Y1253D01*
X2271Y1253D02*
X2354Y1253D01*
X2671Y1253D02*
X2754Y1253D01*
X3071Y1253D02*
X3154Y1253D01*
X271Y1252D02*
X354Y1252D01*
X671Y1252D02*
X754Y1252D01*
X1071Y1252D02*
X1154Y1252D01*
X1471Y1252D02*
X1554Y1252D01*
X1871Y1252D02*
X1954Y1252D01*
X2271Y1252D02*
X2354Y1252D01*
X2671Y1252D02*
X2754Y1252D01*
X3071Y1252D02*
X3154Y1252D01*
X271Y1251D02*
X354Y1251D01*
X671Y1251D02*
X754Y1251D01*
X1071Y1251D02*
X1154Y1251D01*
X1471Y1251D02*
X1554Y1251D01*
X1871Y1251D02*
X1954Y1251D01*
X2271Y1251D02*
X2354Y1251D01*
X2671Y1251D02*
X2754Y1251D01*
X3071Y1251D02*
X3154Y1251D01*
X271Y1250D02*
X354Y1250D01*
X671Y1250D02*
X754Y1250D01*
X1071Y1250D02*
X1154Y1250D01*
X1471Y1250D02*
X1554Y1250D01*
X1871Y1250D02*
X1954Y1250D01*
X2271Y1250D02*
X2354Y1250D01*
X2671Y1250D02*
X2754Y1250D01*
X3071Y1250D02*
X3154Y1250D01*
X271Y1249D02*
X354Y1249D01*
X671Y1249D02*
X754Y1249D01*
X1071Y1249D02*
X1154Y1249D01*
X1471Y1249D02*
X1554Y1249D01*
X1871Y1249D02*
X1954Y1249D01*
X2271Y1249D02*
X2354Y1249D01*
X2671Y1249D02*
X2754Y1249D01*
X3071Y1249D02*
X3154Y1249D01*
X271Y1248D02*
X354Y1248D01*
X671Y1248D02*
X754Y1248D01*
X1071Y1248D02*
X1154Y1248D01*
X1471Y1248D02*
X1554Y1248D01*
X1871Y1248D02*
X1954Y1248D01*
X2271Y1248D02*
X2354Y1248D01*
X2671Y1248D02*
X2754Y1248D01*
X3071Y1248D02*
X3154Y1248D01*
X271Y1247D02*
X354Y1247D01*
X671Y1247D02*
X754Y1247D01*
X1071Y1247D02*
X1154Y1247D01*
X1471Y1247D02*
X1554Y1247D01*
X1871Y1247D02*
X1954Y1247D01*
X2271Y1247D02*
X2354Y1247D01*
X2671Y1247D02*
X2754Y1247D01*
X3071Y1247D02*
X3154Y1247D01*
X271Y1246D02*
X354Y1246D01*
X671Y1246D02*
X754Y1246D01*
X1071Y1246D02*
X1154Y1246D01*
X1471Y1246D02*
X1554Y1246D01*
X1871Y1246D02*
X1954Y1246D01*
X2271Y1246D02*
X2354Y1246D01*
X2671Y1246D02*
X2754Y1246D01*
X3071Y1246D02*
X3154Y1246D01*
X271Y1245D02*
X354Y1245D01*
X671Y1245D02*
X754Y1245D01*
X1071Y1245D02*
X1154Y1245D01*
X1471Y1245D02*
X1554Y1245D01*
X1871Y1245D02*
X1954Y1245D01*
X2271Y1245D02*
X2354Y1245D01*
X2671Y1245D02*
X2754Y1245D01*
X3071Y1245D02*
X3154Y1245D01*
X271Y1244D02*
X354Y1244D01*
X671Y1244D02*
X754Y1244D01*
X1071Y1244D02*
X1154Y1244D01*
X1471Y1244D02*
X1554Y1244D01*
X1871Y1244D02*
X1954Y1244D01*
X2271Y1244D02*
X2354Y1244D01*
X2671Y1244D02*
X2754Y1244D01*
X3071Y1244D02*
X3154Y1244D01*
X271Y1243D02*
X354Y1243D01*
X671Y1243D02*
X754Y1243D01*
X1071Y1243D02*
X1154Y1243D01*
X1471Y1243D02*
X1554Y1243D01*
X1871Y1243D02*
X1954Y1243D01*
X2271Y1243D02*
X2354Y1243D01*
X2671Y1243D02*
X2754Y1243D01*
X3071Y1243D02*
X3154Y1243D01*
X271Y1242D02*
X354Y1242D01*
X671Y1242D02*
X754Y1242D01*
X1071Y1242D02*
X1154Y1242D01*
X1471Y1242D02*
X1554Y1242D01*
X1871Y1242D02*
X1954Y1242D01*
X2271Y1242D02*
X2354Y1242D01*
X2671Y1242D02*
X2754Y1242D01*
X3071Y1242D02*
X3154Y1242D01*
X271Y1241D02*
X354Y1241D01*
X671Y1241D02*
X754Y1241D01*
X1071Y1241D02*
X1154Y1241D01*
X1471Y1241D02*
X1554Y1241D01*
X1871Y1241D02*
X1954Y1241D01*
X2271Y1241D02*
X2354Y1241D01*
X2671Y1241D02*
X2754Y1241D01*
X3071Y1241D02*
X3154Y1241D01*
X271Y1240D02*
X354Y1240D01*
X671Y1240D02*
X754Y1240D01*
X1071Y1240D02*
X1154Y1240D01*
X1471Y1240D02*
X1554Y1240D01*
X1871Y1240D02*
X1954Y1240D01*
X2271Y1240D02*
X2354Y1240D01*
X2671Y1240D02*
X2754Y1240D01*
X3071Y1240D02*
X3154Y1240D01*
X271Y1239D02*
X354Y1239D01*
X671Y1239D02*
X754Y1239D01*
X1071Y1239D02*
X1154Y1239D01*
X1471Y1239D02*
X1554Y1239D01*
X1871Y1239D02*
X1954Y1239D01*
X2271Y1239D02*
X2354Y1239D01*
X2671Y1239D02*
X2754Y1239D01*
X3071Y1239D02*
X3154Y1239D01*
X271Y1238D02*
X354Y1238D01*
X671Y1238D02*
X754Y1238D01*
X1071Y1238D02*
X1154Y1238D01*
X1471Y1238D02*
X1554Y1238D01*
X1871Y1238D02*
X1954Y1238D01*
X2271Y1238D02*
X2354Y1238D01*
X2671Y1238D02*
X2754Y1238D01*
X3071Y1238D02*
X3154Y1238D01*
X271Y1237D02*
X354Y1237D01*
X671Y1237D02*
X754Y1237D01*
X1071Y1237D02*
X1154Y1237D01*
X1471Y1237D02*
X1554Y1237D01*
X1871Y1237D02*
X1954Y1237D01*
X2271Y1237D02*
X2354Y1237D01*
X2671Y1237D02*
X2754Y1237D01*
X3071Y1237D02*
X3154Y1237D01*
X271Y1236D02*
X354Y1236D01*
X671Y1236D02*
X754Y1236D01*
X1071Y1236D02*
X1154Y1236D01*
X1471Y1236D02*
X1554Y1236D01*
X1871Y1236D02*
X1954Y1236D01*
X2271Y1236D02*
X2354Y1236D01*
X2671Y1236D02*
X2754Y1236D01*
X3071Y1236D02*
X3154Y1236D01*
X271Y1235D02*
X354Y1235D01*
X671Y1235D02*
X754Y1235D01*
X1071Y1235D02*
X1154Y1235D01*
X1471Y1235D02*
X1554Y1235D01*
X1871Y1235D02*
X1954Y1235D01*
X2271Y1235D02*
X2354Y1235D01*
X2671Y1235D02*
X2754Y1235D01*
X3071Y1235D02*
X3154Y1235D01*
X271Y1234D02*
X354Y1234D01*
X671Y1234D02*
X754Y1234D01*
X1071Y1234D02*
X1154Y1234D01*
X1471Y1234D02*
X1554Y1234D01*
X1871Y1234D02*
X1954Y1234D01*
X2271Y1234D02*
X2354Y1234D01*
X2671Y1234D02*
X2754Y1234D01*
X3071Y1234D02*
X3154Y1234D01*
X271Y1233D02*
X354Y1233D01*
X671Y1233D02*
X754Y1233D01*
X1071Y1233D02*
X1154Y1233D01*
X1471Y1233D02*
X1554Y1233D01*
X1871Y1233D02*
X1954Y1233D01*
X2271Y1233D02*
X2354Y1233D01*
X2671Y1233D02*
X2754Y1233D01*
X3071Y1233D02*
X3154Y1233D01*
X271Y1232D02*
X354Y1232D01*
X671Y1232D02*
X754Y1232D01*
X1071Y1232D02*
X1154Y1232D01*
X1471Y1232D02*
X1554Y1232D01*
X1871Y1232D02*
X1954Y1232D01*
X2271Y1232D02*
X2354Y1232D01*
X2671Y1232D02*
X2754Y1232D01*
X3071Y1232D02*
X3154Y1232D01*
X271Y1231D02*
X354Y1231D01*
X671Y1231D02*
X754Y1231D01*
X1071Y1231D02*
X1154Y1231D01*
X1471Y1231D02*
X1554Y1231D01*
X1871Y1231D02*
X1954Y1231D01*
X2271Y1231D02*
X2354Y1231D01*
X2671Y1231D02*
X2754Y1231D01*
X3071Y1231D02*
X3154Y1231D01*
X271Y1230D02*
X308Y1230D01*
X317Y1230D02*
X354Y1230D01*
X671Y1230D02*
X708Y1230D01*
X717Y1230D02*
X754Y1230D01*
X1071Y1230D02*
X1108Y1230D01*
X1117Y1230D02*
X1154Y1230D01*
X1471Y1230D02*
X1508Y1230D01*
X1517Y1230D02*
X1554Y1230D01*
X1871Y1230D02*
X1908Y1230D01*
X1917Y1230D02*
X1954Y1230D01*
X2271Y1230D02*
X2308Y1230D01*
X2317Y1230D02*
X2354Y1230D01*
X2671Y1230D02*
X2708Y1230D01*
X2717Y1230D02*
X2754Y1230D01*
X3071Y1230D02*
X3108Y1230D01*
X3117Y1230D02*
X3154Y1230D01*
X271Y1229D02*
X306Y1229D01*
X320Y1229D02*
X354Y1229D01*
X671Y1229D02*
X706Y1229D01*
X720Y1229D02*
X754Y1229D01*
X1071Y1229D02*
X1106Y1229D01*
X1120Y1229D02*
X1154Y1229D01*
X1471Y1229D02*
X1506Y1229D01*
X1520Y1229D02*
X1554Y1229D01*
X1871Y1229D02*
X1906Y1229D01*
X1920Y1229D02*
X1954Y1229D01*
X2271Y1229D02*
X2306Y1229D01*
X2320Y1229D02*
X2354Y1229D01*
X2671Y1229D02*
X2706Y1229D01*
X2720Y1229D02*
X2754Y1229D01*
X3071Y1229D02*
X3106Y1229D01*
X3120Y1229D02*
X3154Y1229D01*
X271Y1228D02*
X304Y1228D01*
X322Y1228D02*
X354Y1228D01*
X671Y1228D02*
X704Y1228D01*
X722Y1228D02*
X754Y1228D01*
X1071Y1228D02*
X1104Y1228D01*
X1122Y1228D02*
X1154Y1228D01*
X1471Y1228D02*
X1504Y1228D01*
X1522Y1228D02*
X1554Y1228D01*
X1871Y1228D02*
X1904Y1228D01*
X1921Y1228D02*
X1954Y1228D01*
X2271Y1228D02*
X2304Y1228D01*
X2321Y1228D02*
X2354Y1228D01*
X2671Y1228D02*
X2704Y1228D01*
X2721Y1228D02*
X2754Y1228D01*
X3071Y1228D02*
X3104Y1228D01*
X3121Y1228D02*
X3154Y1228D01*
X271Y1227D02*
X303Y1227D01*
X323Y1227D02*
X354Y1227D01*
X671Y1227D02*
X703Y1227D01*
X723Y1227D02*
X754Y1227D01*
X1071Y1227D02*
X1103Y1227D01*
X1123Y1227D02*
X1154Y1227D01*
X1471Y1227D02*
X1503Y1227D01*
X1523Y1227D02*
X1554Y1227D01*
X1871Y1227D02*
X1903Y1227D01*
X1923Y1227D02*
X1954Y1227D01*
X2271Y1227D02*
X2303Y1227D01*
X2323Y1227D02*
X2354Y1227D01*
X2671Y1227D02*
X2703Y1227D01*
X2723Y1227D02*
X2754Y1227D01*
X3071Y1227D02*
X3103Y1227D01*
X3123Y1227D02*
X3154Y1227D01*
X271Y1226D02*
X302Y1226D01*
X324Y1226D02*
X354Y1226D01*
X671Y1226D02*
X702Y1226D01*
X724Y1226D02*
X754Y1226D01*
X1071Y1226D02*
X1102Y1226D01*
X1124Y1226D02*
X1154Y1226D01*
X1471Y1226D02*
X1502Y1226D01*
X1524Y1226D02*
X1554Y1226D01*
X1871Y1226D02*
X1902Y1226D01*
X1924Y1226D02*
X1954Y1226D01*
X2271Y1226D02*
X2302Y1226D01*
X2324Y1226D02*
X2354Y1226D01*
X2671Y1226D02*
X2701Y1226D01*
X2724Y1226D02*
X2754Y1226D01*
X3071Y1226D02*
X3101Y1226D01*
X3124Y1226D02*
X3154Y1226D01*
X271Y1225D02*
X301Y1225D01*
X325Y1225D02*
X354Y1225D01*
X671Y1225D02*
X701Y1225D01*
X725Y1225D02*
X754Y1225D01*
X1071Y1225D02*
X1101Y1225D01*
X1125Y1225D02*
X1154Y1225D01*
X1471Y1225D02*
X1501Y1225D01*
X1525Y1225D02*
X1554Y1225D01*
X1871Y1225D02*
X1901Y1225D01*
X1925Y1225D02*
X1954Y1225D01*
X2271Y1225D02*
X2301Y1225D01*
X2325Y1225D02*
X2354Y1225D01*
X2671Y1225D02*
X2701Y1225D01*
X2725Y1225D02*
X2754Y1225D01*
X3071Y1225D02*
X3101Y1225D01*
X3125Y1225D02*
X3154Y1225D01*
X271Y1224D02*
X300Y1224D01*
X326Y1224D02*
X354Y1224D01*
X671Y1224D02*
X700Y1224D01*
X726Y1224D02*
X754Y1224D01*
X1071Y1224D02*
X1100Y1224D01*
X1126Y1224D02*
X1154Y1224D01*
X1471Y1224D02*
X1500Y1224D01*
X1526Y1224D02*
X1554Y1224D01*
X1871Y1224D02*
X1900Y1224D01*
X1926Y1224D02*
X1954Y1224D01*
X2271Y1224D02*
X2300Y1224D01*
X2326Y1224D02*
X2354Y1224D01*
X2671Y1224D02*
X2700Y1224D01*
X2726Y1224D02*
X2754Y1224D01*
X3071Y1224D02*
X3100Y1224D01*
X3125Y1224D02*
X3154Y1224D01*
X271Y1223D02*
X299Y1223D01*
X326Y1223D02*
X354Y1223D01*
X671Y1223D02*
X699Y1223D01*
X726Y1223D02*
X754Y1223D01*
X1071Y1223D02*
X1099Y1223D01*
X1126Y1223D02*
X1154Y1223D01*
X1471Y1223D02*
X1499Y1223D01*
X1526Y1223D02*
X1554Y1223D01*
X1871Y1223D02*
X1899Y1223D01*
X1926Y1223D02*
X1954Y1223D01*
X2271Y1223D02*
X2299Y1223D01*
X2326Y1223D02*
X2354Y1223D01*
X2671Y1223D02*
X2699Y1223D01*
X2726Y1223D02*
X2754Y1223D01*
X3071Y1223D02*
X3099Y1223D01*
X3126Y1223D02*
X3154Y1223D01*
X271Y1222D02*
X299Y1222D01*
X327Y1222D02*
X354Y1222D01*
X671Y1222D02*
X699Y1222D01*
X727Y1222D02*
X754Y1222D01*
X1071Y1222D02*
X1099Y1222D01*
X1127Y1222D02*
X1154Y1222D01*
X1471Y1222D02*
X1499Y1222D01*
X1527Y1222D02*
X1554Y1222D01*
X1871Y1222D02*
X1899Y1222D01*
X1927Y1222D02*
X1954Y1222D01*
X2271Y1222D02*
X2299Y1222D01*
X2327Y1222D02*
X2354Y1222D01*
X2671Y1222D02*
X2699Y1222D01*
X2727Y1222D02*
X2754Y1222D01*
X3071Y1222D02*
X3099Y1222D01*
X3127Y1222D02*
X3154Y1222D01*
X271Y1221D02*
X298Y1221D01*
X327Y1221D02*
X354Y1221D01*
X671Y1221D02*
X698Y1221D01*
X727Y1221D02*
X754Y1221D01*
X1071Y1221D02*
X1098Y1221D01*
X1127Y1221D02*
X1154Y1221D01*
X1471Y1221D02*
X1498Y1221D01*
X1527Y1221D02*
X1554Y1221D01*
X1871Y1221D02*
X1898Y1221D01*
X1927Y1221D02*
X1954Y1221D01*
X2271Y1221D02*
X2298Y1221D01*
X2327Y1221D02*
X2354Y1221D01*
X2671Y1221D02*
X2698Y1221D01*
X2727Y1221D02*
X2754Y1221D01*
X3071Y1221D02*
X3098Y1221D01*
X3127Y1221D02*
X3154Y1221D01*
X271Y1220D02*
X298Y1220D01*
X328Y1220D02*
X354Y1220D01*
X671Y1220D02*
X698Y1220D01*
X728Y1220D02*
X754Y1220D01*
X1071Y1220D02*
X1098Y1220D01*
X1128Y1220D02*
X1154Y1220D01*
X1471Y1220D02*
X1498Y1220D01*
X1528Y1220D02*
X1554Y1220D01*
X1871Y1220D02*
X1898Y1220D01*
X1927Y1220D02*
X1954Y1220D01*
X2271Y1220D02*
X2298Y1220D01*
X2327Y1220D02*
X2354Y1220D01*
X2671Y1220D02*
X2698Y1220D01*
X2727Y1220D02*
X2754Y1220D01*
X3071Y1220D02*
X3098Y1220D01*
X3127Y1220D02*
X3154Y1220D01*
X271Y1219D02*
X298Y1219D01*
X328Y1219D02*
X354Y1219D01*
X671Y1219D02*
X698Y1219D01*
X728Y1219D02*
X754Y1219D01*
X1071Y1219D02*
X1098Y1219D01*
X1128Y1219D02*
X1154Y1219D01*
X1471Y1219D02*
X1498Y1219D01*
X1528Y1219D02*
X1554Y1219D01*
X1871Y1219D02*
X1898Y1219D01*
X1928Y1219D02*
X1954Y1219D01*
X2271Y1219D02*
X2298Y1219D01*
X2328Y1219D02*
X2354Y1219D01*
X2671Y1219D02*
X2698Y1219D01*
X2728Y1219D02*
X2754Y1219D01*
X3071Y1219D02*
X3098Y1219D01*
X3128Y1219D02*
X3154Y1219D01*
X271Y1218D02*
X297Y1218D01*
X328Y1218D02*
X354Y1218D01*
X671Y1218D02*
X697Y1218D01*
X728Y1218D02*
X754Y1218D01*
X1071Y1218D02*
X1097Y1218D01*
X1128Y1218D02*
X1154Y1218D01*
X1471Y1218D02*
X1497Y1218D01*
X1528Y1218D02*
X1554Y1218D01*
X1871Y1218D02*
X1897Y1218D01*
X1928Y1218D02*
X1954Y1218D01*
X2271Y1218D02*
X2297Y1218D01*
X2328Y1218D02*
X2354Y1218D01*
X2671Y1218D02*
X2697Y1218D01*
X2728Y1218D02*
X2754Y1218D01*
X3071Y1218D02*
X3097Y1218D01*
X3128Y1218D02*
X3154Y1218D01*
X271Y1217D02*
X297Y1217D01*
X328Y1217D02*
X354Y1217D01*
X671Y1217D02*
X697Y1217D01*
X728Y1217D02*
X754Y1217D01*
X1071Y1217D02*
X1097Y1217D01*
X1128Y1217D02*
X1154Y1217D01*
X1471Y1217D02*
X1497Y1217D01*
X1528Y1217D02*
X1554Y1217D01*
X1871Y1217D02*
X1897Y1217D01*
X1928Y1217D02*
X1954Y1217D01*
X2271Y1217D02*
X2297Y1217D01*
X2328Y1217D02*
X2354Y1217D01*
X2671Y1217D02*
X2697Y1217D01*
X2728Y1217D02*
X2754Y1217D01*
X3071Y1217D02*
X3097Y1217D01*
X3128Y1217D02*
X3154Y1217D01*
X271Y1216D02*
X297Y1216D01*
X328Y1216D02*
X354Y1216D01*
X671Y1216D02*
X697Y1216D01*
X728Y1216D02*
X754Y1216D01*
X1071Y1216D02*
X1097Y1216D01*
X1128Y1216D02*
X1154Y1216D01*
X1471Y1216D02*
X1497Y1216D01*
X1528Y1216D02*
X1554Y1216D01*
X1871Y1216D02*
X1897Y1216D01*
X1928Y1216D02*
X1954Y1216D01*
X2271Y1216D02*
X2297Y1216D01*
X2328Y1216D02*
X2354Y1216D01*
X2671Y1216D02*
X2697Y1216D01*
X2728Y1216D02*
X2754Y1216D01*
X3071Y1216D02*
X3097Y1216D01*
X3128Y1216D02*
X3154Y1216D01*
X271Y1215D02*
X297Y1215D01*
X328Y1215D02*
X354Y1215D01*
X671Y1215D02*
X697Y1215D01*
X728Y1215D02*
X754Y1215D01*
X1071Y1215D02*
X1097Y1215D01*
X1128Y1215D02*
X1154Y1215D01*
X1471Y1215D02*
X1497Y1215D01*
X1528Y1215D02*
X1554Y1215D01*
X1871Y1215D02*
X1897Y1215D01*
X1928Y1215D02*
X1954Y1215D01*
X2271Y1215D02*
X2297Y1215D01*
X2328Y1215D02*
X2354Y1215D01*
X2671Y1215D02*
X2697Y1215D01*
X2728Y1215D02*
X2754Y1215D01*
X3071Y1215D02*
X3097Y1215D01*
X3128Y1215D02*
X3154Y1215D01*
X271Y1214D02*
X297Y1214D01*
X328Y1214D02*
X354Y1214D01*
X671Y1214D02*
X697Y1214D01*
X728Y1214D02*
X754Y1214D01*
X1071Y1214D02*
X1097Y1214D01*
X1128Y1214D02*
X1154Y1214D01*
X1471Y1214D02*
X1497Y1214D01*
X1528Y1214D02*
X1554Y1214D01*
X1871Y1214D02*
X1897Y1214D01*
X1928Y1214D02*
X1954Y1214D01*
X2271Y1214D02*
X2297Y1214D01*
X2328Y1214D02*
X2354Y1214D01*
X2671Y1214D02*
X2697Y1214D01*
X2728Y1214D02*
X2754Y1214D01*
X3071Y1214D02*
X3097Y1214D01*
X3128Y1214D02*
X3154Y1214D01*
X271Y1213D02*
X297Y1213D01*
X328Y1213D02*
X354Y1213D01*
X671Y1213D02*
X697Y1213D01*
X728Y1213D02*
X754Y1213D01*
X1071Y1213D02*
X1097Y1213D01*
X1128Y1213D02*
X1154Y1213D01*
X1471Y1213D02*
X1497Y1213D01*
X1528Y1213D02*
X1554Y1213D01*
X1871Y1213D02*
X1897Y1213D01*
X1928Y1213D02*
X1954Y1213D01*
X2271Y1213D02*
X2297Y1213D01*
X2328Y1213D02*
X2354Y1213D01*
X2671Y1213D02*
X2697Y1213D01*
X2728Y1213D02*
X2754Y1213D01*
X3071Y1213D02*
X3097Y1213D01*
X3128Y1213D02*
X3154Y1213D01*
X271Y1212D02*
X298Y1212D01*
X328Y1212D02*
X354Y1212D01*
X671Y1212D02*
X698Y1212D01*
X728Y1212D02*
X754Y1212D01*
X1071Y1212D02*
X1098Y1212D01*
X1128Y1212D02*
X1154Y1212D01*
X1471Y1212D02*
X1498Y1212D01*
X1528Y1212D02*
X1554Y1212D01*
X1871Y1212D02*
X1898Y1212D01*
X1928Y1212D02*
X1954Y1212D01*
X2271Y1212D02*
X2298Y1212D01*
X2328Y1212D02*
X2354Y1212D01*
X2671Y1212D02*
X2698Y1212D01*
X2728Y1212D02*
X2754Y1212D01*
X3071Y1212D02*
X3098Y1212D01*
X3128Y1212D02*
X3154Y1212D01*
X271Y1211D02*
X298Y1211D01*
X328Y1211D02*
X354Y1211D01*
X671Y1211D02*
X698Y1211D01*
X728Y1211D02*
X754Y1211D01*
X1071Y1211D02*
X1098Y1211D01*
X1128Y1211D02*
X1154Y1211D01*
X1471Y1211D02*
X1498Y1211D01*
X1528Y1211D02*
X1554Y1211D01*
X1871Y1211D02*
X1898Y1211D01*
X1927Y1211D02*
X1954Y1211D01*
X2271Y1211D02*
X2298Y1211D01*
X2327Y1211D02*
X2354Y1211D01*
X2671Y1211D02*
X2698Y1211D01*
X2727Y1211D02*
X2754Y1211D01*
X3071Y1211D02*
X3098Y1211D01*
X3127Y1211D02*
X3154Y1211D01*
X271Y1210D02*
X298Y1210D01*
X327Y1210D02*
X354Y1210D01*
X671Y1210D02*
X698Y1210D01*
X727Y1210D02*
X754Y1210D01*
X1071Y1210D02*
X1098Y1210D01*
X1127Y1210D02*
X1154Y1210D01*
X1471Y1210D02*
X1498Y1210D01*
X1527Y1210D02*
X1554Y1210D01*
X1871Y1210D02*
X1898Y1210D01*
X1927Y1210D02*
X1954Y1210D01*
X2271Y1210D02*
X2298Y1210D01*
X2327Y1210D02*
X2354Y1210D01*
X2671Y1210D02*
X2698Y1210D01*
X2727Y1210D02*
X2754Y1210D01*
X3071Y1210D02*
X3098Y1210D01*
X3127Y1210D02*
X3154Y1210D01*
X271Y1209D02*
X299Y1209D01*
X327Y1209D02*
X354Y1209D01*
X671Y1209D02*
X699Y1209D01*
X727Y1209D02*
X754Y1209D01*
X1071Y1209D02*
X1099Y1209D01*
X1127Y1209D02*
X1154Y1209D01*
X1471Y1209D02*
X1499Y1209D01*
X1527Y1209D02*
X1554Y1209D01*
X1871Y1209D02*
X1899Y1209D01*
X1927Y1209D02*
X1954Y1209D01*
X2271Y1209D02*
X2299Y1209D01*
X2327Y1209D02*
X2354Y1209D01*
X2671Y1209D02*
X2699Y1209D01*
X2727Y1209D02*
X2754Y1209D01*
X3071Y1209D02*
X3099Y1209D01*
X3127Y1209D02*
X3154Y1209D01*
X271Y1208D02*
X299Y1208D01*
X326Y1208D02*
X354Y1208D01*
X671Y1208D02*
X699Y1208D01*
X726Y1208D02*
X754Y1208D01*
X1071Y1208D02*
X1099Y1208D01*
X1126Y1208D02*
X1154Y1208D01*
X1471Y1208D02*
X1499Y1208D01*
X1526Y1208D02*
X1554Y1208D01*
X1871Y1208D02*
X1899Y1208D01*
X1926Y1208D02*
X1954Y1208D01*
X2271Y1208D02*
X2299Y1208D01*
X2326Y1208D02*
X2354Y1208D01*
X2671Y1208D02*
X2699Y1208D01*
X2726Y1208D02*
X2754Y1208D01*
X3071Y1208D02*
X3099Y1208D01*
X3126Y1208D02*
X3154Y1208D01*
X271Y1207D02*
X300Y1207D01*
X326Y1207D02*
X354Y1207D01*
X671Y1207D02*
X700Y1207D01*
X726Y1207D02*
X754Y1207D01*
X1071Y1207D02*
X1100Y1207D01*
X1126Y1207D02*
X1154Y1207D01*
X1471Y1207D02*
X1500Y1207D01*
X1526Y1207D02*
X1554Y1207D01*
X1871Y1207D02*
X1900Y1207D01*
X1926Y1207D02*
X1954Y1207D01*
X2271Y1207D02*
X2300Y1207D01*
X2326Y1207D02*
X2354Y1207D01*
X2671Y1207D02*
X2700Y1207D01*
X2726Y1207D02*
X2754Y1207D01*
X3071Y1207D02*
X3100Y1207D01*
X3126Y1207D02*
X3154Y1207D01*
X271Y1206D02*
X301Y1206D01*
X325Y1206D02*
X354Y1206D01*
X671Y1206D02*
X701Y1206D01*
X725Y1206D02*
X754Y1206D01*
X1071Y1206D02*
X1101Y1206D01*
X1125Y1206D02*
X1154Y1206D01*
X1471Y1206D02*
X1501Y1206D01*
X1525Y1206D02*
X1554Y1206D01*
X1871Y1206D02*
X1901Y1206D01*
X1925Y1206D02*
X1954Y1206D01*
X2271Y1206D02*
X2301Y1206D01*
X2325Y1206D02*
X2354Y1206D01*
X2671Y1206D02*
X2701Y1206D01*
X2725Y1206D02*
X2754Y1206D01*
X3071Y1206D02*
X3101Y1206D01*
X3125Y1206D02*
X3154Y1206D01*
X271Y1205D02*
X302Y1205D01*
X324Y1205D02*
X354Y1205D01*
X671Y1205D02*
X702Y1205D01*
X724Y1205D02*
X754Y1205D01*
X1071Y1205D02*
X1102Y1205D01*
X1124Y1205D02*
X1154Y1205D01*
X1471Y1205D02*
X1502Y1205D01*
X1524Y1205D02*
X1554Y1205D01*
X1871Y1205D02*
X1902Y1205D01*
X1924Y1205D02*
X1954Y1205D01*
X2271Y1205D02*
X2301Y1205D01*
X2324Y1205D02*
X2354Y1205D01*
X2671Y1205D02*
X2701Y1205D01*
X2724Y1205D02*
X2754Y1205D01*
X3071Y1205D02*
X3101Y1205D01*
X3124Y1205D02*
X3154Y1205D01*
X271Y1204D02*
X303Y1204D01*
X323Y1204D02*
X354Y1204D01*
X671Y1204D02*
X703Y1204D01*
X723Y1204D02*
X754Y1204D01*
X1071Y1204D02*
X1103Y1204D01*
X1123Y1204D02*
X1154Y1204D01*
X1471Y1204D02*
X1503Y1204D01*
X1523Y1204D02*
X1554Y1204D01*
X1871Y1204D02*
X1903Y1204D01*
X1923Y1204D02*
X1954Y1204D01*
X2271Y1204D02*
X2303Y1204D01*
X2323Y1204D02*
X2354Y1204D01*
X2671Y1204D02*
X2703Y1204D01*
X2723Y1204D02*
X2754Y1204D01*
X3071Y1204D02*
X3103Y1204D01*
X3123Y1204D02*
X3154Y1204D01*
X271Y1203D02*
X304Y1203D01*
X322Y1203D02*
X354Y1203D01*
X671Y1203D02*
X704Y1203D01*
X722Y1203D02*
X754Y1203D01*
X1071Y1203D02*
X1104Y1203D01*
X1122Y1203D02*
X1154Y1203D01*
X1471Y1203D02*
X1504Y1203D01*
X1522Y1203D02*
X1554Y1203D01*
X1871Y1203D02*
X1904Y1203D01*
X1922Y1203D02*
X1954Y1203D01*
X2271Y1203D02*
X2304Y1203D01*
X2321Y1203D02*
X2354Y1203D01*
X2671Y1203D02*
X2704Y1203D01*
X2721Y1203D02*
X2754Y1203D01*
X3071Y1203D02*
X3104Y1203D01*
X3121Y1203D02*
X3154Y1203D01*
X271Y1202D02*
X306Y1202D01*
X320Y1202D02*
X354Y1202D01*
X671Y1202D02*
X706Y1202D01*
X720Y1202D02*
X754Y1202D01*
X1071Y1202D02*
X1106Y1202D01*
X1120Y1202D02*
X1154Y1202D01*
X1471Y1202D02*
X1506Y1202D01*
X1520Y1202D02*
X1554Y1202D01*
X1871Y1202D02*
X1906Y1202D01*
X1920Y1202D02*
X1954Y1202D01*
X2271Y1202D02*
X2306Y1202D01*
X2320Y1202D02*
X2354Y1202D01*
X2671Y1202D02*
X2706Y1202D01*
X2720Y1202D02*
X2754Y1202D01*
X3071Y1202D02*
X3106Y1202D01*
X3120Y1202D02*
X3154Y1202D01*
X271Y1201D02*
X308Y1201D01*
X317Y1201D02*
X354Y1201D01*
X671Y1201D02*
X708Y1201D01*
X717Y1201D02*
X754Y1201D01*
X1071Y1201D02*
X1108Y1201D01*
X1117Y1201D02*
X1154Y1201D01*
X1471Y1201D02*
X1508Y1201D01*
X1517Y1201D02*
X1554Y1201D01*
X1871Y1201D02*
X1908Y1201D01*
X1917Y1201D02*
X1954Y1201D01*
X2271Y1201D02*
X2308Y1201D01*
X2317Y1201D02*
X2354Y1201D01*
X2671Y1201D02*
X2708Y1201D01*
X2717Y1201D02*
X2754Y1201D01*
X3071Y1201D02*
X3108Y1201D01*
X3117Y1201D02*
X3154Y1201D01*
X271Y1200D02*
X354Y1200D01*
X671Y1200D02*
X754Y1200D01*
X1071Y1200D02*
X1154Y1200D01*
X1471Y1200D02*
X1554Y1200D01*
X1871Y1200D02*
X1954Y1200D01*
X2271Y1200D02*
X2354Y1200D01*
X2671Y1200D02*
X2754Y1200D01*
X3071Y1200D02*
X3154Y1200D01*
X271Y1199D02*
X354Y1199D01*
X671Y1199D02*
X754Y1199D01*
X1071Y1199D02*
X1154Y1199D01*
X1471Y1199D02*
X1554Y1199D01*
X1871Y1199D02*
X1954Y1199D01*
X2271Y1199D02*
X2354Y1199D01*
X2671Y1199D02*
X2754Y1199D01*
X3071Y1199D02*
X3154Y1199D01*
X271Y1198D02*
X354Y1198D01*
X671Y1198D02*
X754Y1198D01*
X1071Y1198D02*
X1154Y1198D01*
X1471Y1198D02*
X1554Y1198D01*
X1871Y1198D02*
X1954Y1198D01*
X2271Y1198D02*
X2354Y1198D01*
X2671Y1198D02*
X2754Y1198D01*
X3071Y1198D02*
X3154Y1198D01*
X271Y1197D02*
X354Y1197D01*
X671Y1197D02*
X754Y1197D01*
X1071Y1197D02*
X1154Y1197D01*
X1471Y1197D02*
X1554Y1197D01*
X1871Y1197D02*
X1954Y1197D01*
X2271Y1197D02*
X2354Y1197D01*
X2671Y1197D02*
X2754Y1197D01*
X3071Y1197D02*
X3154Y1197D01*
X271Y1196D02*
X354Y1196D01*
X671Y1196D02*
X754Y1196D01*
X1071Y1196D02*
X1154Y1196D01*
X1471Y1196D02*
X1554Y1196D01*
X1871Y1196D02*
X1954Y1196D01*
X2271Y1196D02*
X2354Y1196D01*
X2671Y1196D02*
X2754Y1196D01*
X3071Y1196D02*
X3154Y1196D01*
X271Y1195D02*
X354Y1195D01*
X671Y1195D02*
X754Y1195D01*
X1071Y1195D02*
X1154Y1195D01*
X1471Y1195D02*
X1554Y1195D01*
X1871Y1195D02*
X1954Y1195D01*
X2271Y1195D02*
X2354Y1195D01*
X2671Y1195D02*
X2754Y1195D01*
X3071Y1195D02*
X3154Y1195D01*
X271Y1194D02*
X354Y1194D01*
X671Y1194D02*
X754Y1194D01*
X1071Y1194D02*
X1154Y1194D01*
X1471Y1194D02*
X1554Y1194D01*
X1871Y1194D02*
X1954Y1194D01*
X2271Y1194D02*
X2354Y1194D01*
X2671Y1194D02*
X2754Y1194D01*
X3071Y1194D02*
X3154Y1194D01*
X271Y1193D02*
X354Y1193D01*
X671Y1193D02*
X754Y1193D01*
X1071Y1193D02*
X1154Y1193D01*
X1471Y1193D02*
X1554Y1193D01*
X1871Y1193D02*
X1954Y1193D01*
X2271Y1193D02*
X2354Y1193D01*
X2671Y1193D02*
X2754Y1193D01*
X3071Y1193D02*
X3154Y1193D01*
X271Y1192D02*
X354Y1192D01*
X671Y1192D02*
X754Y1192D01*
X1071Y1192D02*
X1154Y1192D01*
X1471Y1192D02*
X1554Y1192D01*
X1871Y1192D02*
X1954Y1192D01*
X2271Y1192D02*
X2354Y1192D01*
X2671Y1192D02*
X2754Y1192D01*
X3071Y1192D02*
X3154Y1192D01*
X271Y1191D02*
X354Y1191D01*
X671Y1191D02*
X754Y1191D01*
X1071Y1191D02*
X1154Y1191D01*
X1471Y1191D02*
X1554Y1191D01*
X1871Y1191D02*
X1954Y1191D01*
X2271Y1191D02*
X2354Y1191D01*
X2671Y1191D02*
X2754Y1191D01*
X3071Y1191D02*
X3154Y1191D01*
X271Y1190D02*
X354Y1190D01*
X671Y1190D02*
X754Y1190D01*
X1071Y1190D02*
X1154Y1190D01*
X1471Y1190D02*
X1554Y1190D01*
X1871Y1190D02*
X1954Y1190D01*
X2271Y1190D02*
X2354Y1190D01*
X2671Y1190D02*
X2754Y1190D01*
X3071Y1190D02*
X3154Y1190D01*
X271Y1189D02*
X354Y1189D01*
X671Y1189D02*
X754Y1189D01*
X1071Y1189D02*
X1154Y1189D01*
X1471Y1189D02*
X1554Y1189D01*
X1871Y1189D02*
X1954Y1189D01*
X2271Y1189D02*
X2354Y1189D01*
X2671Y1189D02*
X2754Y1189D01*
X3071Y1189D02*
X3154Y1189D01*
X271Y1188D02*
X354Y1188D01*
X671Y1188D02*
X754Y1188D01*
X1071Y1188D02*
X1154Y1188D01*
X1471Y1188D02*
X1554Y1188D01*
X1871Y1188D02*
X1954Y1188D01*
X2271Y1188D02*
X2354Y1188D01*
X2671Y1188D02*
X2754Y1188D01*
X3071Y1188D02*
X3154Y1188D01*
X271Y1187D02*
X354Y1187D01*
X671Y1187D02*
X754Y1187D01*
X1071Y1187D02*
X1154Y1187D01*
X1471Y1187D02*
X1554Y1187D01*
X1871Y1187D02*
X1954Y1187D01*
X2271Y1187D02*
X2354Y1187D01*
X2671Y1187D02*
X2754Y1187D01*
X3071Y1187D02*
X3154Y1187D01*
X271Y1186D02*
X354Y1186D01*
X671Y1186D02*
X754Y1186D01*
X1071Y1186D02*
X1154Y1186D01*
X1471Y1186D02*
X1554Y1186D01*
X1871Y1186D02*
X1954Y1186D01*
X2271Y1186D02*
X2354Y1186D01*
X2671Y1186D02*
X2754Y1186D01*
X3071Y1186D02*
X3154Y1186D01*
X271Y1185D02*
X354Y1185D01*
X671Y1185D02*
X754Y1185D01*
X1071Y1185D02*
X1154Y1185D01*
X1471Y1185D02*
X1554Y1185D01*
X1871Y1185D02*
X1954Y1185D01*
X2271Y1185D02*
X2354Y1185D01*
X2671Y1185D02*
X2754Y1185D01*
X3071Y1185D02*
X3154Y1185D01*
X271Y1184D02*
X354Y1184D01*
X671Y1184D02*
X754Y1184D01*
X1071Y1184D02*
X1154Y1184D01*
X1471Y1184D02*
X1554Y1184D01*
X1871Y1184D02*
X1954Y1184D01*
X2271Y1184D02*
X2354Y1184D01*
X2671Y1184D02*
X2754Y1184D01*
X3071Y1184D02*
X3154Y1184D01*
X271Y1183D02*
X354Y1183D01*
X671Y1183D02*
X754Y1183D01*
X1071Y1183D02*
X1154Y1183D01*
X1471Y1183D02*
X1554Y1183D01*
X1871Y1183D02*
X1954Y1183D01*
X2271Y1183D02*
X2354Y1183D01*
X2671Y1183D02*
X2754Y1183D01*
X3071Y1183D02*
X3154Y1183D01*
X271Y1182D02*
X354Y1182D01*
X671Y1182D02*
X754Y1182D01*
X1071Y1182D02*
X1154Y1182D01*
X1471Y1182D02*
X1554Y1182D01*
X1871Y1182D02*
X1954Y1182D01*
X2271Y1182D02*
X2354Y1182D01*
X2671Y1182D02*
X2754Y1182D01*
X3071Y1182D02*
X3154Y1182D01*
X271Y1181D02*
X354Y1181D01*
X671Y1181D02*
X754Y1181D01*
X1071Y1181D02*
X1154Y1181D01*
X1471Y1181D02*
X1554Y1181D01*
X1871Y1181D02*
X1954Y1181D01*
X2271Y1181D02*
X2354Y1181D01*
X2671Y1181D02*
X2754Y1181D01*
X3071Y1181D02*
X3154Y1181D01*
X271Y1180D02*
X354Y1180D01*
X671Y1180D02*
X754Y1180D01*
X1071Y1180D02*
X1154Y1180D01*
X1471Y1180D02*
X1554Y1180D01*
X1871Y1180D02*
X1954Y1180D01*
X2271Y1180D02*
X2354Y1180D01*
X2671Y1180D02*
X2754Y1180D01*
X3071Y1180D02*
X3154Y1180D01*
X271Y1179D02*
X354Y1179D01*
X671Y1179D02*
X754Y1179D01*
X1071Y1179D02*
X1154Y1179D01*
X1471Y1179D02*
X1554Y1179D01*
X1871Y1179D02*
X1954Y1179D01*
X2271Y1179D02*
X2354Y1179D01*
X2671Y1179D02*
X2754Y1179D01*
X3071Y1179D02*
X3154Y1179D01*
X271Y1178D02*
X354Y1178D01*
X671Y1178D02*
X754Y1178D01*
X1071Y1178D02*
X1154Y1178D01*
X1471Y1178D02*
X1554Y1178D01*
X1871Y1178D02*
X1954Y1178D01*
X2271Y1178D02*
X2354Y1178D01*
X2671Y1178D02*
X2754Y1178D01*
X3071Y1178D02*
X3154Y1178D01*
X271Y1177D02*
X354Y1177D01*
X671Y1177D02*
X754Y1177D01*
X1071Y1177D02*
X1154Y1177D01*
X1471Y1177D02*
X1554Y1177D01*
X1871Y1177D02*
X1954Y1177D01*
X2271Y1177D02*
X2354Y1177D01*
X2671Y1177D02*
X2754Y1177D01*
X3071Y1177D02*
X3154Y1177D01*
X271Y1176D02*
X354Y1176D01*
X671Y1176D02*
X754Y1176D01*
X1071Y1176D02*
X1154Y1176D01*
X1471Y1176D02*
X1554Y1176D01*
X1871Y1176D02*
X1954Y1176D01*
X2271Y1176D02*
X2354Y1176D01*
X2671Y1176D02*
X2754Y1176D01*
X3071Y1176D02*
X3154Y1176D01*
X271Y1175D02*
X354Y1175D01*
X671Y1175D02*
X754Y1175D01*
X1071Y1175D02*
X1154Y1175D01*
X1471Y1175D02*
X1554Y1175D01*
X1871Y1175D02*
X1954Y1175D01*
X2271Y1175D02*
X2354Y1175D01*
X2671Y1175D02*
X2754Y1175D01*
X3071Y1175D02*
X3154Y1175D01*
X271Y1174D02*
X354Y1174D01*
X671Y1174D02*
X754Y1174D01*
X1071Y1174D02*
X1154Y1174D01*
X1471Y1174D02*
X1554Y1174D01*
X1871Y1174D02*
X1954Y1174D01*
X2271Y1174D02*
X2354Y1174D01*
X2671Y1174D02*
X2754Y1174D01*
X3071Y1174D02*
X3154Y1174D01*
X471Y937D02*
X554Y937D01*
X871Y937D02*
X954Y937D01*
X1271Y937D02*
X1354Y937D01*
X1671Y937D02*
X1754Y937D01*
X2071Y937D02*
X2154Y937D01*
X2471Y937D02*
X2554Y937D01*
X2871Y937D02*
X2954Y937D01*
X3271Y937D02*
X3354Y937D01*
X471Y936D02*
X554Y936D01*
X871Y936D02*
X954Y936D01*
X1271Y936D02*
X1354Y936D01*
X1671Y936D02*
X1754Y936D01*
X2071Y936D02*
X2154Y936D01*
X2471Y936D02*
X2554Y936D01*
X2871Y936D02*
X2954Y936D01*
X3271Y936D02*
X3354Y936D01*
X471Y935D02*
X554Y935D01*
X871Y935D02*
X954Y935D01*
X1271Y935D02*
X1354Y935D01*
X1671Y935D02*
X1754Y935D01*
X2071Y935D02*
X2154Y935D01*
X2471Y935D02*
X2554Y935D01*
X2871Y935D02*
X2954Y935D01*
X3271Y935D02*
X3354Y935D01*
X471Y934D02*
X554Y934D01*
X871Y934D02*
X954Y934D01*
X1271Y934D02*
X1354Y934D01*
X1671Y934D02*
X1754Y934D01*
X2071Y934D02*
X2154Y934D01*
X2471Y934D02*
X2554Y934D01*
X2871Y934D02*
X2954Y934D01*
X3271Y934D02*
X3354Y934D01*
X471Y933D02*
X554Y933D01*
X871Y933D02*
X954Y933D01*
X1271Y933D02*
X1354Y933D01*
X1671Y933D02*
X1754Y933D01*
X2071Y933D02*
X2154Y933D01*
X2471Y933D02*
X2554Y933D01*
X2871Y933D02*
X2954Y933D01*
X3271Y933D02*
X3354Y933D01*
X471Y932D02*
X554Y932D01*
X871Y932D02*
X954Y932D01*
X1271Y932D02*
X1354Y932D01*
X1671Y932D02*
X1754Y932D01*
X2071Y932D02*
X2154Y932D01*
X2471Y932D02*
X2554Y932D01*
X2871Y932D02*
X2954Y932D01*
X3271Y932D02*
X3354Y932D01*
X471Y931D02*
X554Y931D01*
X871Y931D02*
X954Y931D01*
X1271Y931D02*
X1354Y931D01*
X1671Y931D02*
X1754Y931D01*
X2071Y931D02*
X2154Y931D01*
X2471Y931D02*
X2554Y931D01*
X2871Y931D02*
X2954Y931D01*
X3271Y931D02*
X3354Y931D01*
X471Y930D02*
X554Y930D01*
X871Y930D02*
X954Y930D01*
X1271Y930D02*
X1354Y930D01*
X1671Y930D02*
X1754Y930D01*
X2071Y930D02*
X2154Y930D01*
X2471Y930D02*
X2554Y930D01*
X2871Y930D02*
X2954Y930D01*
X3271Y930D02*
X3354Y930D01*
X471Y929D02*
X554Y929D01*
X871Y929D02*
X954Y929D01*
X1271Y929D02*
X1354Y929D01*
X1671Y929D02*
X1754Y929D01*
X2071Y929D02*
X2154Y929D01*
X2471Y929D02*
X2554Y929D01*
X2871Y929D02*
X2954Y929D01*
X3271Y929D02*
X3354Y929D01*
X471Y928D02*
X554Y928D01*
X871Y928D02*
X954Y928D01*
X1271Y928D02*
X1354Y928D01*
X1671Y928D02*
X1754Y928D01*
X2071Y928D02*
X2154Y928D01*
X2471Y928D02*
X2554Y928D01*
X2871Y928D02*
X2954Y928D01*
X3271Y928D02*
X3354Y928D01*
X471Y927D02*
X554Y927D01*
X871Y927D02*
X954Y927D01*
X1271Y927D02*
X1354Y927D01*
X1671Y927D02*
X1754Y927D01*
X2071Y927D02*
X2154Y927D01*
X2471Y927D02*
X2554Y927D01*
X2871Y927D02*
X2954Y927D01*
X3271Y927D02*
X3354Y927D01*
X471Y926D02*
X554Y926D01*
X871Y926D02*
X954Y926D01*
X1271Y926D02*
X1354Y926D01*
X1671Y926D02*
X1754Y926D01*
X2071Y926D02*
X2154Y926D01*
X2471Y926D02*
X2554Y926D01*
X2871Y926D02*
X2954Y926D01*
X3271Y926D02*
X3354Y926D01*
X471Y925D02*
X554Y925D01*
X871Y925D02*
X954Y925D01*
X1271Y925D02*
X1354Y925D01*
X1671Y925D02*
X1754Y925D01*
X2071Y925D02*
X2154Y925D01*
X2471Y925D02*
X2554Y925D01*
X2871Y925D02*
X2954Y925D01*
X3271Y925D02*
X3354Y925D01*
X471Y924D02*
X554Y924D01*
X871Y924D02*
X954Y924D01*
X1271Y924D02*
X1354Y924D01*
X1671Y924D02*
X1754Y924D01*
X2071Y924D02*
X2154Y924D01*
X2471Y924D02*
X2554Y924D01*
X2871Y924D02*
X2954Y924D01*
X3271Y924D02*
X3354Y924D01*
X471Y923D02*
X554Y923D01*
X871Y923D02*
X954Y923D01*
X1271Y923D02*
X1354Y923D01*
X1671Y923D02*
X1754Y923D01*
X2071Y923D02*
X2154Y923D01*
X2471Y923D02*
X2554Y923D01*
X2871Y923D02*
X2954Y923D01*
X3271Y923D02*
X3354Y923D01*
X471Y922D02*
X554Y922D01*
X871Y922D02*
X954Y922D01*
X1271Y922D02*
X1354Y922D01*
X1671Y922D02*
X1754Y922D01*
X2071Y922D02*
X2154Y922D01*
X2471Y922D02*
X2554Y922D01*
X2871Y922D02*
X2954Y922D01*
X3271Y922D02*
X3354Y922D01*
X471Y921D02*
X554Y921D01*
X871Y921D02*
X954Y921D01*
X1271Y921D02*
X1354Y921D01*
X1671Y921D02*
X1754Y921D01*
X2071Y921D02*
X2154Y921D01*
X2471Y921D02*
X2554Y921D01*
X2871Y921D02*
X2954Y921D01*
X3271Y921D02*
X3354Y921D01*
X471Y920D02*
X554Y920D01*
X871Y920D02*
X954Y920D01*
X1271Y920D02*
X1354Y920D01*
X1671Y920D02*
X1754Y920D01*
X2071Y920D02*
X2154Y920D01*
X2471Y920D02*
X2554Y920D01*
X2871Y920D02*
X2954Y920D01*
X3271Y920D02*
X3354Y920D01*
X471Y919D02*
X554Y919D01*
X871Y919D02*
X954Y919D01*
X1271Y919D02*
X1354Y919D01*
X1671Y919D02*
X1754Y919D01*
X2071Y919D02*
X2154Y919D01*
X2471Y919D02*
X2554Y919D01*
X2871Y919D02*
X2954Y919D01*
X3271Y919D02*
X3354Y919D01*
X471Y918D02*
X554Y918D01*
X871Y918D02*
X954Y918D01*
X1271Y918D02*
X1354Y918D01*
X1671Y918D02*
X1754Y918D01*
X2071Y918D02*
X2154Y918D01*
X2471Y918D02*
X2554Y918D01*
X2871Y918D02*
X2954Y918D01*
X3271Y918D02*
X3354Y918D01*
X471Y917D02*
X554Y917D01*
X871Y917D02*
X954Y917D01*
X1271Y917D02*
X1354Y917D01*
X1671Y917D02*
X1754Y917D01*
X2071Y917D02*
X2154Y917D01*
X2471Y917D02*
X2554Y917D01*
X2871Y917D02*
X2954Y917D01*
X3271Y917D02*
X3354Y917D01*
X471Y916D02*
X554Y916D01*
X871Y916D02*
X954Y916D01*
X1271Y916D02*
X1354Y916D01*
X1671Y916D02*
X1754Y916D01*
X2071Y916D02*
X2154Y916D01*
X2471Y916D02*
X2554Y916D01*
X2871Y916D02*
X2954Y916D01*
X3271Y916D02*
X3354Y916D01*
X471Y915D02*
X554Y915D01*
X871Y915D02*
X954Y915D01*
X1271Y915D02*
X1354Y915D01*
X1671Y915D02*
X1754Y915D01*
X2071Y915D02*
X2154Y915D01*
X2471Y915D02*
X2554Y915D01*
X2871Y915D02*
X2954Y915D01*
X3271Y915D02*
X3354Y915D01*
X471Y914D02*
X554Y914D01*
X871Y914D02*
X954Y914D01*
X1271Y914D02*
X1354Y914D01*
X1671Y914D02*
X1754Y914D01*
X2071Y914D02*
X2154Y914D01*
X2471Y914D02*
X2554Y914D01*
X2871Y914D02*
X2954Y914D01*
X3271Y914D02*
X3354Y914D01*
X471Y913D02*
X554Y913D01*
X871Y913D02*
X954Y913D01*
X1271Y913D02*
X1354Y913D01*
X1671Y913D02*
X1754Y913D01*
X2071Y913D02*
X2154Y913D01*
X2471Y913D02*
X2554Y913D01*
X2871Y913D02*
X2954Y913D01*
X3271Y913D02*
X3354Y913D01*
X471Y912D02*
X554Y912D01*
X871Y912D02*
X954Y912D01*
X1271Y912D02*
X1354Y912D01*
X1671Y912D02*
X1754Y912D01*
X2071Y912D02*
X2154Y912D01*
X2471Y912D02*
X2554Y912D01*
X2871Y912D02*
X2954Y912D01*
X3271Y912D02*
X3354Y912D01*
X471Y911D02*
X554Y911D01*
X871Y911D02*
X954Y911D01*
X1271Y911D02*
X1354Y911D01*
X1671Y911D02*
X1754Y911D01*
X2071Y911D02*
X2154Y911D01*
X2471Y911D02*
X2554Y911D01*
X2871Y911D02*
X2954Y911D01*
X3271Y911D02*
X3354Y911D01*
X471Y910D02*
X508Y910D01*
X517Y910D02*
X554Y910D01*
X871Y910D02*
X908Y910D01*
X917Y910D02*
X954Y910D01*
X1271Y910D02*
X1308Y910D01*
X1317Y910D02*
X1354Y910D01*
X1671Y910D02*
X1708Y910D01*
X1717Y910D02*
X1754Y910D01*
X2071Y910D02*
X2108Y910D01*
X2117Y910D02*
X2154Y910D01*
X2471Y910D02*
X2508Y910D01*
X2517Y910D02*
X2554Y910D01*
X2871Y910D02*
X2908Y910D01*
X2917Y910D02*
X2954Y910D01*
X3271Y910D02*
X3308Y910D01*
X3317Y910D02*
X3354Y910D01*
X471Y909D02*
X506Y909D01*
X520Y909D02*
X554Y909D01*
X871Y909D02*
X906Y909D01*
X920Y909D02*
X954Y909D01*
X1271Y909D02*
X1306Y909D01*
X1320Y909D02*
X1354Y909D01*
X1671Y909D02*
X1706Y909D01*
X1720Y909D02*
X1754Y909D01*
X2071Y909D02*
X2106Y909D01*
X2120Y909D02*
X2154Y909D01*
X2471Y909D02*
X2506Y909D01*
X2520Y909D02*
X2554Y909D01*
X2871Y909D02*
X2905Y909D01*
X2920Y909D02*
X2954Y909D01*
X3271Y909D02*
X3305Y909D01*
X3320Y909D02*
X3354Y909D01*
X471Y908D02*
X504Y908D01*
X522Y908D02*
X554Y908D01*
X871Y908D02*
X904Y908D01*
X922Y908D02*
X954Y908D01*
X1271Y908D02*
X1304Y908D01*
X1322Y908D02*
X1354Y908D01*
X1671Y908D02*
X1704Y908D01*
X1722Y908D02*
X1754Y908D01*
X2071Y908D02*
X2104Y908D01*
X2122Y908D02*
X2154Y908D01*
X2471Y908D02*
X2504Y908D01*
X2522Y908D02*
X2554Y908D01*
X2871Y908D02*
X2904Y908D01*
X2921Y908D02*
X2954Y908D01*
X3271Y908D02*
X3304Y908D01*
X3321Y908D02*
X3354Y908D01*
X471Y907D02*
X503Y907D01*
X523Y907D02*
X554Y907D01*
X871Y907D02*
X903Y907D01*
X923Y907D02*
X954Y907D01*
X1271Y907D02*
X1303Y907D01*
X1323Y907D02*
X1354Y907D01*
X1671Y907D02*
X1703Y907D01*
X1723Y907D02*
X1754Y907D01*
X2071Y907D02*
X2103Y907D01*
X2123Y907D02*
X2154Y907D01*
X2471Y907D02*
X2503Y907D01*
X2523Y907D02*
X2554Y907D01*
X2871Y907D02*
X2903Y907D01*
X2923Y907D02*
X2954Y907D01*
X3271Y907D02*
X3303Y907D01*
X3323Y907D02*
X3354Y907D01*
X471Y906D02*
X502Y906D01*
X524Y906D02*
X554Y906D01*
X871Y906D02*
X902Y906D01*
X924Y906D02*
X954Y906D01*
X1271Y906D02*
X1302Y906D01*
X1324Y906D02*
X1354Y906D01*
X1671Y906D02*
X1701Y906D01*
X1724Y906D02*
X1754Y906D01*
X2071Y906D02*
X2101Y906D01*
X2124Y906D02*
X2154Y906D01*
X2471Y906D02*
X2501Y906D01*
X2524Y906D02*
X2554Y906D01*
X2871Y906D02*
X2901Y906D01*
X2924Y906D02*
X2954Y906D01*
X3271Y906D02*
X3301Y906D01*
X3324Y906D02*
X3354Y906D01*
X471Y905D02*
X501Y905D01*
X525Y905D02*
X554Y905D01*
X871Y905D02*
X901Y905D01*
X925Y905D02*
X954Y905D01*
X1271Y905D02*
X1301Y905D01*
X1325Y905D02*
X1354Y905D01*
X1671Y905D02*
X1701Y905D01*
X1725Y905D02*
X1754Y905D01*
X2071Y905D02*
X2101Y905D01*
X2125Y905D02*
X2154Y905D01*
X2471Y905D02*
X2501Y905D01*
X2525Y905D02*
X2554Y905D01*
X2871Y905D02*
X2901Y905D01*
X2925Y905D02*
X2954Y905D01*
X3271Y905D02*
X3301Y905D01*
X3325Y905D02*
X3354Y905D01*
X471Y904D02*
X500Y904D01*
X526Y904D02*
X554Y904D01*
X871Y904D02*
X900Y904D01*
X926Y904D02*
X954Y904D01*
X1271Y904D02*
X1300Y904D01*
X1326Y904D02*
X1354Y904D01*
X1671Y904D02*
X1700Y904D01*
X1726Y904D02*
X1754Y904D01*
X2071Y904D02*
X2100Y904D01*
X2126Y904D02*
X2154Y904D01*
X2471Y904D02*
X2500Y904D01*
X2526Y904D02*
X2554Y904D01*
X2871Y904D02*
X2900Y904D01*
X2926Y904D02*
X2954Y904D01*
X3271Y904D02*
X3300Y904D01*
X3326Y904D02*
X3354Y904D01*
X471Y903D02*
X499Y903D01*
X526Y903D02*
X554Y903D01*
X871Y903D02*
X899Y903D01*
X926Y903D02*
X954Y903D01*
X1271Y903D02*
X1299Y903D01*
X1326Y903D02*
X1354Y903D01*
X1671Y903D02*
X1699Y903D01*
X1726Y903D02*
X1754Y903D01*
X2071Y903D02*
X2099Y903D01*
X2126Y903D02*
X2154Y903D01*
X2471Y903D02*
X2499Y903D01*
X2526Y903D02*
X2554Y903D01*
X2871Y903D02*
X2899Y903D01*
X2926Y903D02*
X2954Y903D01*
X3271Y903D02*
X3299Y903D01*
X3326Y903D02*
X3354Y903D01*
X471Y902D02*
X499Y902D01*
X527Y902D02*
X554Y902D01*
X871Y902D02*
X899Y902D01*
X927Y902D02*
X954Y902D01*
X1271Y902D02*
X1299Y902D01*
X1327Y902D02*
X1354Y902D01*
X1671Y902D02*
X1699Y902D01*
X1727Y902D02*
X1754Y902D01*
X2071Y902D02*
X2099Y902D01*
X2127Y902D02*
X2154Y902D01*
X2471Y902D02*
X2499Y902D01*
X2527Y902D02*
X2554Y902D01*
X2871Y902D02*
X2899Y902D01*
X2927Y902D02*
X2954Y902D01*
X3271Y902D02*
X3299Y902D01*
X3327Y902D02*
X3354Y902D01*
X471Y901D02*
X498Y901D01*
X527Y901D02*
X554Y901D01*
X871Y901D02*
X898Y901D01*
X927Y901D02*
X954Y901D01*
X1271Y901D02*
X1298Y901D01*
X1327Y901D02*
X1354Y901D01*
X1671Y901D02*
X1698Y901D01*
X1727Y901D02*
X1754Y901D01*
X2071Y901D02*
X2098Y901D01*
X2127Y901D02*
X2154Y901D01*
X2471Y901D02*
X2498Y901D01*
X2527Y901D02*
X2554Y901D01*
X2871Y901D02*
X2898Y901D01*
X2927Y901D02*
X2954Y901D01*
X3271Y901D02*
X3298Y901D01*
X3327Y901D02*
X3354Y901D01*
X471Y900D02*
X498Y900D01*
X528Y900D02*
X554Y900D01*
X871Y900D02*
X898Y900D01*
X928Y900D02*
X954Y900D01*
X1271Y900D02*
X1298Y900D01*
X1328Y900D02*
X1354Y900D01*
X1671Y900D02*
X1698Y900D01*
X1728Y900D02*
X1754Y900D01*
X2071Y900D02*
X2098Y900D01*
X2127Y900D02*
X2154Y900D01*
X2471Y900D02*
X2498Y900D01*
X2527Y900D02*
X2554Y900D01*
X2871Y900D02*
X2898Y900D01*
X2927Y900D02*
X2954Y900D01*
X3271Y900D02*
X3298Y900D01*
X3327Y900D02*
X3354Y900D01*
X471Y899D02*
X498Y899D01*
X528Y899D02*
X554Y899D01*
X871Y899D02*
X898Y899D01*
X928Y899D02*
X954Y899D01*
X1271Y899D02*
X1298Y899D01*
X1328Y899D02*
X1354Y899D01*
X1671Y899D02*
X1698Y899D01*
X1728Y899D02*
X1754Y899D01*
X2071Y899D02*
X2098Y899D01*
X2128Y899D02*
X2154Y899D01*
X2471Y899D02*
X2498Y899D01*
X2528Y899D02*
X2554Y899D01*
X2871Y899D02*
X2898Y899D01*
X2928Y899D02*
X2954Y899D01*
X3271Y899D02*
X3298Y899D01*
X3328Y899D02*
X3354Y899D01*
X471Y898D02*
X497Y898D01*
X528Y898D02*
X554Y898D01*
X871Y898D02*
X897Y898D01*
X928Y898D02*
X954Y898D01*
X1271Y898D02*
X1297Y898D01*
X1328Y898D02*
X1354Y898D01*
X1671Y898D02*
X1697Y898D01*
X1728Y898D02*
X1754Y898D01*
X2071Y898D02*
X2097Y898D01*
X2128Y898D02*
X2154Y898D01*
X2471Y898D02*
X2497Y898D01*
X2528Y898D02*
X2554Y898D01*
X2871Y898D02*
X2897Y898D01*
X2928Y898D02*
X2954Y898D01*
X3271Y898D02*
X3297Y898D01*
X3328Y898D02*
X3354Y898D01*
X471Y897D02*
X497Y897D01*
X528Y897D02*
X554Y897D01*
X871Y897D02*
X897Y897D01*
X928Y897D02*
X954Y897D01*
X1271Y897D02*
X1297Y897D01*
X1328Y897D02*
X1354Y897D01*
X1671Y897D02*
X1697Y897D01*
X1728Y897D02*
X1754Y897D01*
X2071Y897D02*
X2097Y897D01*
X2128Y897D02*
X2154Y897D01*
X2471Y897D02*
X2497Y897D01*
X2528Y897D02*
X2554Y897D01*
X2871Y897D02*
X2897Y897D01*
X2928Y897D02*
X2954Y897D01*
X3271Y897D02*
X3297Y897D01*
X3328Y897D02*
X3354Y897D01*
X471Y896D02*
X497Y896D01*
X528Y896D02*
X554Y896D01*
X871Y896D02*
X897Y896D01*
X928Y896D02*
X954Y896D01*
X1271Y896D02*
X1297Y896D01*
X1328Y896D02*
X1354Y896D01*
X1671Y896D02*
X1697Y896D01*
X1728Y896D02*
X1754Y896D01*
X2071Y896D02*
X2097Y896D01*
X2128Y896D02*
X2154Y896D01*
X2471Y896D02*
X2497Y896D01*
X2528Y896D02*
X2554Y896D01*
X2871Y896D02*
X2897Y896D01*
X2928Y896D02*
X2954Y896D01*
X3271Y896D02*
X3297Y896D01*
X3328Y896D02*
X3354Y896D01*
X471Y895D02*
X497Y895D01*
X528Y895D02*
X554Y895D01*
X871Y895D02*
X897Y895D01*
X928Y895D02*
X954Y895D01*
X1271Y895D02*
X1297Y895D01*
X1328Y895D02*
X1354Y895D01*
X1671Y895D02*
X1697Y895D01*
X1728Y895D02*
X1754Y895D01*
X2071Y895D02*
X2097Y895D01*
X2128Y895D02*
X2154Y895D01*
X2471Y895D02*
X2497Y895D01*
X2528Y895D02*
X2554Y895D01*
X2871Y895D02*
X2897Y895D01*
X2928Y895D02*
X2954Y895D01*
X3271Y895D02*
X3297Y895D01*
X3328Y895D02*
X3354Y895D01*
X471Y894D02*
X497Y894D01*
X528Y894D02*
X554Y894D01*
X871Y894D02*
X897Y894D01*
X928Y894D02*
X954Y894D01*
X1271Y894D02*
X1297Y894D01*
X1328Y894D02*
X1354Y894D01*
X1671Y894D02*
X1697Y894D01*
X1728Y894D02*
X1754Y894D01*
X2071Y894D02*
X2097Y894D01*
X2128Y894D02*
X2154Y894D01*
X2471Y894D02*
X2497Y894D01*
X2528Y894D02*
X2554Y894D01*
X2871Y894D02*
X2897Y894D01*
X2928Y894D02*
X2954Y894D01*
X3271Y894D02*
X3297Y894D01*
X3328Y894D02*
X3354Y894D01*
X471Y893D02*
X497Y893D01*
X528Y893D02*
X554Y893D01*
X871Y893D02*
X897Y893D01*
X928Y893D02*
X954Y893D01*
X1271Y893D02*
X1297Y893D01*
X1328Y893D02*
X1354Y893D01*
X1671Y893D02*
X1697Y893D01*
X1728Y893D02*
X1754Y893D01*
X2071Y893D02*
X2097Y893D01*
X2128Y893D02*
X2154Y893D01*
X2471Y893D02*
X2497Y893D01*
X2528Y893D02*
X2554Y893D01*
X2871Y893D02*
X2897Y893D01*
X2928Y893D02*
X2954Y893D01*
X3271Y893D02*
X3297Y893D01*
X3328Y893D02*
X3354Y893D01*
X471Y892D02*
X498Y892D01*
X528Y892D02*
X554Y892D01*
X871Y892D02*
X898Y892D01*
X928Y892D02*
X954Y892D01*
X1271Y892D02*
X1298Y892D01*
X1328Y892D02*
X1354Y892D01*
X1671Y892D02*
X1698Y892D01*
X1728Y892D02*
X1754Y892D01*
X2071Y892D02*
X2098Y892D01*
X2128Y892D02*
X2154Y892D01*
X2471Y892D02*
X2498Y892D01*
X2528Y892D02*
X2554Y892D01*
X2871Y892D02*
X2898Y892D01*
X2928Y892D02*
X2954Y892D01*
X3271Y892D02*
X3298Y892D01*
X3328Y892D02*
X3354Y892D01*
X471Y891D02*
X498Y891D01*
X528Y891D02*
X554Y891D01*
X871Y891D02*
X898Y891D01*
X928Y891D02*
X954Y891D01*
X1271Y891D02*
X1298Y891D01*
X1328Y891D02*
X1354Y891D01*
X1671Y891D02*
X1698Y891D01*
X1728Y891D02*
X1754Y891D01*
X2071Y891D02*
X2098Y891D01*
X2127Y891D02*
X2154Y891D01*
X2471Y891D02*
X2498Y891D01*
X2527Y891D02*
X2554Y891D01*
X2871Y891D02*
X2898Y891D01*
X2927Y891D02*
X2954Y891D01*
X3271Y891D02*
X3298Y891D01*
X3327Y891D02*
X3354Y891D01*
X471Y890D02*
X498Y890D01*
X527Y890D02*
X554Y890D01*
X871Y890D02*
X898Y890D01*
X927Y890D02*
X954Y890D01*
X1271Y890D02*
X1298Y890D01*
X1327Y890D02*
X1354Y890D01*
X1671Y890D02*
X1698Y890D01*
X1727Y890D02*
X1754Y890D01*
X2071Y890D02*
X2098Y890D01*
X2127Y890D02*
X2154Y890D01*
X2471Y890D02*
X2498Y890D01*
X2527Y890D02*
X2554Y890D01*
X2871Y890D02*
X2898Y890D01*
X2927Y890D02*
X2954Y890D01*
X3271Y890D02*
X3298Y890D01*
X3327Y890D02*
X3354Y890D01*
X471Y889D02*
X499Y889D01*
X527Y889D02*
X554Y889D01*
X871Y889D02*
X899Y889D01*
X927Y889D02*
X954Y889D01*
X1271Y889D02*
X1299Y889D01*
X1327Y889D02*
X1354Y889D01*
X1671Y889D02*
X1699Y889D01*
X1727Y889D02*
X1754Y889D01*
X2071Y889D02*
X2099Y889D01*
X2127Y889D02*
X2154Y889D01*
X2471Y889D02*
X2499Y889D01*
X2527Y889D02*
X2554Y889D01*
X2871Y889D02*
X2899Y889D01*
X2927Y889D02*
X2954Y889D01*
X3271Y889D02*
X3299Y889D01*
X3327Y889D02*
X3354Y889D01*
X471Y888D02*
X499Y888D01*
X526Y888D02*
X554Y888D01*
X871Y888D02*
X899Y888D01*
X926Y888D02*
X954Y888D01*
X1271Y888D02*
X1299Y888D01*
X1326Y888D02*
X1354Y888D01*
X1671Y888D02*
X1699Y888D01*
X1726Y888D02*
X1754Y888D01*
X2071Y888D02*
X2099Y888D01*
X2126Y888D02*
X2154Y888D01*
X2471Y888D02*
X2499Y888D01*
X2526Y888D02*
X2554Y888D01*
X2871Y888D02*
X2899Y888D01*
X2926Y888D02*
X2954Y888D01*
X3271Y888D02*
X3299Y888D01*
X3326Y888D02*
X3354Y888D01*
X471Y887D02*
X500Y887D01*
X526Y887D02*
X554Y887D01*
X871Y887D02*
X900Y887D01*
X926Y887D02*
X954Y887D01*
X1271Y887D02*
X1300Y887D01*
X1326Y887D02*
X1354Y887D01*
X1671Y887D02*
X1700Y887D01*
X1726Y887D02*
X1754Y887D01*
X2071Y887D02*
X2100Y887D01*
X2126Y887D02*
X2154Y887D01*
X2471Y887D02*
X2500Y887D01*
X2526Y887D02*
X2554Y887D01*
X2871Y887D02*
X2900Y887D01*
X2926Y887D02*
X2954Y887D01*
X3271Y887D02*
X3300Y887D01*
X3325Y887D02*
X3354Y887D01*
X471Y886D02*
X501Y886D01*
X525Y886D02*
X554Y886D01*
X871Y886D02*
X901Y886D01*
X925Y886D02*
X954Y886D01*
X1271Y886D02*
X1301Y886D01*
X1325Y886D02*
X1354Y886D01*
X1671Y886D02*
X1701Y886D01*
X1725Y886D02*
X1754Y886D01*
X2071Y886D02*
X2101Y886D01*
X2125Y886D02*
X2154Y886D01*
X2471Y886D02*
X2501Y886D01*
X2525Y886D02*
X2554Y886D01*
X2871Y886D02*
X2901Y886D01*
X2925Y886D02*
X2954Y886D01*
X3271Y886D02*
X3301Y886D01*
X3325Y886D02*
X3354Y886D01*
X471Y885D02*
X502Y885D01*
X524Y885D02*
X554Y885D01*
X871Y885D02*
X902Y885D01*
X924Y885D02*
X954Y885D01*
X1271Y885D02*
X1302Y885D01*
X1324Y885D02*
X1354Y885D01*
X1671Y885D02*
X1702Y885D01*
X1724Y885D02*
X1754Y885D01*
X2071Y885D02*
X2102Y885D01*
X2124Y885D02*
X2154Y885D01*
X2471Y885D02*
X2501Y885D01*
X2524Y885D02*
X2554Y885D01*
X2871Y885D02*
X2901Y885D01*
X2924Y885D02*
X2954Y885D01*
X3271Y885D02*
X3301Y885D01*
X3324Y885D02*
X3354Y885D01*
X471Y884D02*
X503Y884D01*
X523Y884D02*
X554Y884D01*
X871Y884D02*
X903Y884D01*
X923Y884D02*
X954Y884D01*
X1271Y884D02*
X1303Y884D01*
X1323Y884D02*
X1354Y884D01*
X1671Y884D02*
X1703Y884D01*
X1723Y884D02*
X1754Y884D01*
X2071Y884D02*
X2103Y884D01*
X2123Y884D02*
X2154Y884D01*
X2471Y884D02*
X2503Y884D01*
X2523Y884D02*
X2554Y884D01*
X2871Y884D02*
X2903Y884D01*
X2923Y884D02*
X2954Y884D01*
X3271Y884D02*
X3303Y884D01*
X3323Y884D02*
X3354Y884D01*
X471Y883D02*
X504Y883D01*
X522Y883D02*
X554Y883D01*
X871Y883D02*
X904Y883D01*
X922Y883D02*
X954Y883D01*
X1271Y883D02*
X1304Y883D01*
X1322Y883D02*
X1354Y883D01*
X1671Y883D02*
X1704Y883D01*
X1721Y883D02*
X1754Y883D01*
X2071Y883D02*
X2104Y883D01*
X2121Y883D02*
X2154Y883D01*
X2471Y883D02*
X2504Y883D01*
X2521Y883D02*
X2554Y883D01*
X2871Y883D02*
X2904Y883D01*
X2921Y883D02*
X2954Y883D01*
X3271Y883D02*
X3304Y883D01*
X3321Y883D02*
X3354Y883D01*
X471Y882D02*
X506Y882D01*
X520Y882D02*
X554Y882D01*
X871Y882D02*
X906Y882D01*
X920Y882D02*
X954Y882D01*
X1271Y882D02*
X1306Y882D01*
X1320Y882D02*
X1354Y882D01*
X1671Y882D02*
X1706Y882D01*
X1720Y882D02*
X1754Y882D01*
X2071Y882D02*
X2106Y882D01*
X2120Y882D02*
X2154Y882D01*
X2471Y882D02*
X2506Y882D01*
X2520Y882D02*
X2554Y882D01*
X2871Y882D02*
X2906Y882D01*
X2920Y882D02*
X2954Y882D01*
X3271Y882D02*
X3306Y882D01*
X3320Y882D02*
X3354Y882D01*
X471Y881D02*
X508Y881D01*
X517Y881D02*
X554Y881D01*
X871Y881D02*
X908Y881D01*
X917Y881D02*
X954Y881D01*
X1271Y881D02*
X1308Y881D01*
X1317Y881D02*
X1354Y881D01*
X1671Y881D02*
X1708Y881D01*
X1717Y881D02*
X1754Y881D01*
X2071Y881D02*
X2108Y881D01*
X2117Y881D02*
X2154Y881D01*
X2471Y881D02*
X2508Y881D01*
X2517Y881D02*
X2554Y881D01*
X2871Y881D02*
X2908Y881D01*
X2917Y881D02*
X2954Y881D01*
X3271Y881D02*
X3308Y881D01*
X3317Y881D02*
X3354Y881D01*
X471Y880D02*
X554Y880D01*
X871Y880D02*
X954Y880D01*
X1271Y880D02*
X1354Y880D01*
X1671Y880D02*
X1754Y880D01*
X2071Y880D02*
X2154Y880D01*
X2471Y880D02*
X2554Y880D01*
X2871Y880D02*
X2954Y880D01*
X3271Y880D02*
X3354Y880D01*
X471Y879D02*
X554Y879D01*
X871Y879D02*
X954Y879D01*
X1271Y879D02*
X1354Y879D01*
X1671Y879D02*
X1754Y879D01*
X2071Y879D02*
X2154Y879D01*
X2471Y879D02*
X2554Y879D01*
X2871Y879D02*
X2954Y879D01*
X3271Y879D02*
X3354Y879D01*
X471Y878D02*
X554Y878D01*
X871Y878D02*
X954Y878D01*
X1271Y878D02*
X1354Y878D01*
X1671Y878D02*
X1754Y878D01*
X2071Y878D02*
X2154Y878D01*
X2471Y878D02*
X2554Y878D01*
X2871Y878D02*
X2954Y878D01*
X3271Y878D02*
X3354Y878D01*
X471Y877D02*
X554Y877D01*
X871Y877D02*
X954Y877D01*
X1271Y877D02*
X1354Y877D01*
X1671Y877D02*
X1754Y877D01*
X2071Y877D02*
X2154Y877D01*
X2471Y877D02*
X2554Y877D01*
X2871Y877D02*
X2954Y877D01*
X3271Y877D02*
X3354Y877D01*
X471Y876D02*
X554Y876D01*
X871Y876D02*
X954Y876D01*
X1271Y876D02*
X1354Y876D01*
X1671Y876D02*
X1754Y876D01*
X2071Y876D02*
X2154Y876D01*
X2471Y876D02*
X2554Y876D01*
X2871Y876D02*
X2954Y876D01*
X3271Y876D02*
X3354Y876D01*
X471Y875D02*
X554Y875D01*
X871Y875D02*
X954Y875D01*
X1271Y875D02*
X1354Y875D01*
X1671Y875D02*
X1754Y875D01*
X2071Y875D02*
X2154Y875D01*
X2471Y875D02*
X2554Y875D01*
X2871Y875D02*
X2954Y875D01*
X3271Y875D02*
X3354Y875D01*
X471Y874D02*
X554Y874D01*
X871Y874D02*
X954Y874D01*
X1271Y874D02*
X1354Y874D01*
X1671Y874D02*
X1754Y874D01*
X2071Y874D02*
X2154Y874D01*
X2471Y874D02*
X2554Y874D01*
X2871Y874D02*
X2954Y874D01*
X3271Y874D02*
X3354Y874D01*
X471Y873D02*
X554Y873D01*
X871Y873D02*
X954Y873D01*
X1271Y873D02*
X1354Y873D01*
X1671Y873D02*
X1754Y873D01*
X2071Y873D02*
X2154Y873D01*
X2471Y873D02*
X2554Y873D01*
X2871Y873D02*
X2954Y873D01*
X3271Y873D02*
X3354Y873D01*
X471Y872D02*
X554Y872D01*
X871Y872D02*
X954Y872D01*
X1271Y872D02*
X1354Y872D01*
X1671Y872D02*
X1754Y872D01*
X2071Y872D02*
X2154Y872D01*
X2471Y872D02*
X2554Y872D01*
X2871Y872D02*
X2954Y872D01*
X3271Y872D02*
X3354Y872D01*
X471Y871D02*
X554Y871D01*
X871Y871D02*
X954Y871D01*
X1271Y871D02*
X1354Y871D01*
X1671Y871D02*
X1754Y871D01*
X2071Y871D02*
X2154Y871D01*
X2471Y871D02*
X2554Y871D01*
X2871Y871D02*
X2954Y871D01*
X3271Y871D02*
X3354Y871D01*
X471Y870D02*
X554Y870D01*
X871Y870D02*
X954Y870D01*
X1271Y870D02*
X1354Y870D01*
X1671Y870D02*
X1754Y870D01*
X2071Y870D02*
X2154Y870D01*
X2471Y870D02*
X2554Y870D01*
X2871Y870D02*
X2954Y870D01*
X3271Y870D02*
X3354Y870D01*
X471Y869D02*
X554Y869D01*
X871Y869D02*
X954Y869D01*
X1271Y869D02*
X1354Y869D01*
X1671Y869D02*
X1754Y869D01*
X2071Y869D02*
X2154Y869D01*
X2471Y869D02*
X2554Y869D01*
X2871Y869D02*
X2954Y869D01*
X3271Y869D02*
X3354Y869D01*
X471Y868D02*
X554Y868D01*
X871Y868D02*
X954Y868D01*
X1271Y868D02*
X1354Y868D01*
X1671Y868D02*
X1754Y868D01*
X2071Y868D02*
X2154Y868D01*
X2471Y868D02*
X2554Y868D01*
X2871Y868D02*
X2954Y868D01*
X3271Y868D02*
X3354Y868D01*
X471Y867D02*
X554Y867D01*
X871Y867D02*
X954Y867D01*
X1271Y867D02*
X1354Y867D01*
X1671Y867D02*
X1754Y867D01*
X2071Y867D02*
X2154Y867D01*
X2471Y867D02*
X2554Y867D01*
X2871Y867D02*
X2954Y867D01*
X3271Y867D02*
X3354Y867D01*
X471Y866D02*
X554Y866D01*
X871Y866D02*
X954Y866D01*
X1271Y866D02*
X1354Y866D01*
X1671Y866D02*
X1754Y866D01*
X2071Y866D02*
X2154Y866D01*
X2471Y866D02*
X2554Y866D01*
X2871Y866D02*
X2954Y866D01*
X3271Y866D02*
X3354Y866D01*
X471Y865D02*
X554Y865D01*
X871Y865D02*
X954Y865D01*
X1271Y865D02*
X1354Y865D01*
X1671Y865D02*
X1754Y865D01*
X2071Y865D02*
X2154Y865D01*
X2471Y865D02*
X2554Y865D01*
X2871Y865D02*
X2954Y865D01*
X3271Y865D02*
X3354Y865D01*
X471Y864D02*
X554Y864D01*
X871Y864D02*
X954Y864D01*
X1271Y864D02*
X1354Y864D01*
X1671Y864D02*
X1754Y864D01*
X2071Y864D02*
X2154Y864D01*
X2471Y864D02*
X2554Y864D01*
X2871Y864D02*
X2954Y864D01*
X3271Y864D02*
X3354Y864D01*
X471Y863D02*
X554Y863D01*
X871Y863D02*
X954Y863D01*
X1271Y863D02*
X1354Y863D01*
X1671Y863D02*
X1754Y863D01*
X2071Y863D02*
X2154Y863D01*
X2471Y863D02*
X2554Y863D01*
X2871Y863D02*
X2954Y863D01*
X3271Y863D02*
X3354Y863D01*
X471Y862D02*
X554Y862D01*
X871Y862D02*
X954Y862D01*
X1271Y862D02*
X1354Y862D01*
X1671Y862D02*
X1754Y862D01*
X2071Y862D02*
X2154Y862D01*
X2471Y862D02*
X2554Y862D01*
X2871Y862D02*
X2954Y862D01*
X3271Y862D02*
X3354Y862D01*
X471Y861D02*
X554Y861D01*
X871Y861D02*
X954Y861D01*
X1271Y861D02*
X1354Y861D01*
X1671Y861D02*
X1754Y861D01*
X2071Y861D02*
X2154Y861D01*
X2471Y861D02*
X2554Y861D01*
X2871Y861D02*
X2954Y861D01*
X3271Y861D02*
X3354Y861D01*
X471Y860D02*
X554Y860D01*
X871Y860D02*
X954Y860D01*
X1271Y860D02*
X1354Y860D01*
X1671Y860D02*
X1754Y860D01*
X2071Y860D02*
X2154Y860D01*
X2471Y860D02*
X2554Y860D01*
X2871Y860D02*
X2954Y860D01*
X3271Y860D02*
X3354Y860D01*
X471Y859D02*
X554Y859D01*
X871Y859D02*
X954Y859D01*
X1271Y859D02*
X1354Y859D01*
X1671Y859D02*
X1754Y859D01*
X2071Y859D02*
X2154Y859D01*
X2471Y859D02*
X2554Y859D01*
X2871Y859D02*
X2954Y859D01*
X3271Y859D02*
X3354Y859D01*
X471Y858D02*
X554Y858D01*
X871Y858D02*
X954Y858D01*
X1271Y858D02*
X1354Y858D01*
X1671Y858D02*
X1754Y858D01*
X2071Y858D02*
X2154Y858D01*
X2471Y858D02*
X2554Y858D01*
X2871Y858D02*
X2954Y858D01*
X3271Y858D02*
X3354Y858D01*
X471Y857D02*
X554Y857D01*
X871Y857D02*
X954Y857D01*
X1271Y857D02*
X1354Y857D01*
X1671Y857D02*
X1754Y857D01*
X2071Y857D02*
X2154Y857D01*
X2471Y857D02*
X2554Y857D01*
X2871Y857D02*
X2954Y857D01*
X3271Y857D02*
X3354Y857D01*
X471Y856D02*
X554Y856D01*
X871Y856D02*
X954Y856D01*
X1271Y856D02*
X1354Y856D01*
X1671Y856D02*
X1754Y856D01*
X2071Y856D02*
X2154Y856D01*
X2471Y856D02*
X2554Y856D01*
X2871Y856D02*
X2954Y856D01*
X3271Y856D02*
X3354Y856D01*
X471Y855D02*
X554Y855D01*
X871Y855D02*
X954Y855D01*
X1271Y855D02*
X1354Y855D01*
X1671Y855D02*
X1754Y855D01*
X2071Y855D02*
X2154Y855D01*
X2471Y855D02*
X2554Y855D01*
X2871Y855D02*
X2954Y855D01*
X3271Y855D02*
X3354Y855D01*
X471Y854D02*
X554Y854D01*
X871Y854D02*
X954Y854D01*
X1271Y854D02*
X1354Y854D01*
X1671Y854D02*
X1754Y854D01*
X2071Y854D02*
X2154Y854D01*
X2471Y854D02*
X2554Y854D01*
X2871Y854D02*
X2954Y854D01*
X3271Y854D02*
X3354Y854D01*
D02*
G04 End of Mask0*
M02*