G04 MADE WITH FRITZING*
G04 WWW.FRITZING.ORG*
G04 DOUBLE SIDED*
G04 HOLES PLATED*
G04 CONTOUR ON CENTER OF CONTOUR VECTOR*
%ASAXBY*%
%FSLAX23Y23*%
%MOIN*%
%OFA0B0*%
%SFA1.0B1.0*%
%ADD10C,0.049370*%
%ADD11C,0.082917*%
%ADD12C,0.084000*%
%ADD13C,0.069370*%
%ADD14R,0.001000X0.001000*%
%LNMASK0*%
G90*
G70*
G54D10*
X163Y1049D03*
X563Y1099D03*
X513Y1099D03*
X463Y1099D03*
X563Y1049D03*
X563Y999D03*
X513Y1049D03*
X513Y999D03*
X463Y1049D03*
X463Y999D03*
X213Y999D03*
X263Y1099D03*
X213Y1049D03*
X263Y999D03*
X213Y1099D03*
X163Y999D03*
X263Y1049D03*
X163Y1099D03*
G54D11*
X1963Y99D03*
X363Y99D03*
X2063Y99D03*
X2163Y99D03*
X2263Y99D03*
X2363Y99D03*
X2663Y1499D03*
X2463Y99D03*
X2563Y99D03*
X403Y1999D03*
X963Y99D03*
X1063Y99D03*
X1163Y99D03*
X1263Y99D03*
X2663Y699D03*
X1363Y99D03*
X1463Y99D03*
X1563Y99D03*
X1663Y99D03*
X1163Y1999D03*
X2663Y1899D03*
X2663Y1099D03*
X2663Y299D03*
X763Y99D03*
X763Y1999D03*
X2663Y1699D03*
X2663Y1299D03*
X2663Y899D03*
X2363Y1999D03*
X2663Y499D03*
X2263Y1999D03*
X2163Y1999D03*
X2063Y1999D03*
X1963Y1999D03*
X1863Y1999D03*
X1763Y1999D03*
X1663Y1999D03*
X203Y1999D03*
X603Y1999D03*
X163Y99D03*
X563Y99D03*
X1363Y1999D03*
X963Y1999D03*
X2663Y1999D03*
X2663Y1799D03*
X2663Y1599D03*
X2663Y1399D03*
X2663Y1199D03*
X2663Y999D03*
X2663Y799D03*
X2663Y599D03*
X2663Y399D03*
X103Y1999D03*
X303Y1999D03*
X503Y1999D03*
X63Y99D03*
X263Y99D03*
X463Y99D03*
X663Y99D03*
X1463Y1999D03*
X1263Y1999D03*
X1063Y1999D03*
X863Y1999D03*
X2763Y1999D03*
X2763Y1899D03*
X2763Y1799D03*
X2763Y1699D03*
X2763Y1599D03*
X2763Y1499D03*
X2763Y1399D03*
X2763Y1299D03*
X2763Y1199D03*
X2763Y1099D03*
X2763Y999D03*
X2763Y899D03*
X2763Y799D03*
X2763Y699D03*
X2763Y599D03*
X2763Y499D03*
X2763Y399D03*
X2763Y299D03*
X1863Y99D03*
G54D12*
X1953Y1199D03*
X1963Y1299D03*
X1953Y1399D03*
X1963Y1499D03*
X2253Y1199D03*
X2263Y1299D03*
X2253Y1399D03*
X2263Y1499D03*
X1373Y899D03*
X1363Y799D03*
X1373Y699D03*
X1363Y599D03*
X1973Y899D03*
X1963Y799D03*
X1973Y699D03*
X1963Y599D03*
X2273Y899D03*
X2263Y799D03*
X2273Y699D03*
X2263Y599D03*
X173Y899D03*
X163Y799D03*
X173Y699D03*
X163Y599D03*
X1673Y899D03*
X1663Y799D03*
X1673Y699D03*
X1663Y599D03*
X1073Y899D03*
X1063Y799D03*
X1073Y699D03*
X1063Y599D03*
X473Y899D03*
X463Y799D03*
X473Y699D03*
X463Y599D03*
X153Y1199D03*
X163Y1299D03*
X153Y1399D03*
X163Y1499D03*
X453Y1199D03*
X463Y1299D03*
X453Y1399D03*
X463Y1499D03*
X753Y1199D03*
X763Y1299D03*
X753Y1399D03*
X763Y1499D03*
X1053Y1199D03*
X1063Y1299D03*
X1053Y1399D03*
X1063Y1499D03*
X1353Y1199D03*
X1363Y1299D03*
X1353Y1399D03*
X1363Y1499D03*
X1653Y1199D03*
X1663Y1299D03*
X1653Y1399D03*
X1663Y1499D03*
X773Y899D03*
X763Y799D03*
X773Y699D03*
X763Y599D03*
G54D13*
X263Y499D03*
X263Y199D03*
X63Y499D03*
X63Y199D03*
G54D10*
X63Y399D03*
X113Y399D03*
X163Y399D03*
X263Y399D03*
X213Y499D03*
X163Y499D03*
X113Y499D03*
X213Y399D03*
X63Y299D03*
X262Y299D03*
X113Y199D03*
X113Y299D03*
X163Y199D03*
X163Y299D03*
X213Y199D03*
X213Y299D03*
X63Y399D03*
G54D14*
X0Y2040D02*
X8Y2040D01*
X0Y2039D02*
X12Y2039D01*
X0Y2038D02*
X16Y2038D01*
X0Y2037D02*
X18Y2037D01*
X0Y2036D02*
X20Y2036D01*
X0Y2035D02*
X22Y2035D01*
X0Y2034D02*
X24Y2034D01*
X0Y2033D02*
X25Y2033D01*
X0Y2032D02*
X27Y2032D01*
X0Y2031D02*
X28Y2031D01*
X0Y2030D02*
X29Y2030D01*
X0Y2029D02*
X30Y2029D01*
X0Y2028D02*
X31Y2028D01*
X0Y2027D02*
X32Y2027D01*
X0Y2026D02*
X33Y2026D01*
X0Y2025D02*
X34Y2025D01*
X0Y2024D02*
X35Y2024D01*
X0Y2023D02*
X35Y2023D01*
X0Y2022D02*
X36Y2022D01*
X0Y2021D02*
X37Y2021D01*
X0Y2020D02*
X37Y2020D01*
X0Y2019D02*
X38Y2019D01*
X0Y2018D02*
X38Y2018D01*
X0Y2017D02*
X39Y2017D01*
X0Y2016D02*
X39Y2016D01*
X0Y2015D02*
X40Y2015D01*
X0Y2014D02*
X40Y2014D01*
X0Y2013D02*
X41Y2013D01*
X0Y2012D02*
X41Y2012D01*
X0Y2011D02*
X41Y2011D01*
X0Y2010D02*
X41Y2010D01*
X0Y2009D02*
X42Y2009D01*
X0Y2008D02*
X42Y2008D01*
X0Y2007D02*
X42Y2007D01*
X0Y2006D02*
X42Y2006D01*
X0Y2005D02*
X42Y2005D01*
X0Y2004D02*
X43Y2004D01*
X0Y2003D02*
X43Y2003D01*
X0Y2002D02*
X43Y2002D01*
X0Y2001D02*
X43Y2001D01*
X0Y2000D02*
X43Y2000D01*
X0Y1999D02*
X43Y1999D01*
X0Y1998D02*
X43Y1998D01*
X0Y1997D02*
X43Y1997D01*
X0Y1996D02*
X43Y1996D01*
X0Y1995D02*
X43Y1995D01*
X0Y1994D02*
X43Y1994D01*
X0Y1993D02*
X42Y1993D01*
X0Y1992D02*
X42Y1992D01*
X0Y1991D02*
X42Y1991D01*
X0Y1990D02*
X42Y1990D01*
X0Y1989D02*
X42Y1989D01*
X0Y1988D02*
X41Y1988D01*
X0Y1987D02*
X41Y1987D01*
X0Y1986D02*
X41Y1986D01*
X0Y1985D02*
X40Y1985D01*
X0Y1984D02*
X40Y1984D01*
X0Y1983D02*
X40Y1983D01*
X0Y1982D02*
X39Y1982D01*
X0Y1981D02*
X39Y1981D01*
X0Y1980D02*
X38Y1980D01*
X0Y1979D02*
X38Y1979D01*
X0Y1978D02*
X37Y1978D01*
X0Y1977D02*
X37Y1977D01*
X0Y1976D02*
X36Y1976D01*
X0Y1975D02*
X35Y1975D01*
X0Y1974D02*
X34Y1974D01*
X0Y1973D02*
X34Y1973D01*
X0Y1972D02*
X33Y1972D01*
X0Y1971D02*
X32Y1971D01*
X0Y1970D02*
X31Y1970D01*
X0Y1969D02*
X30Y1969D01*
X0Y1968D02*
X29Y1968D01*
X0Y1967D02*
X28Y1967D01*
X0Y1966D02*
X26Y1966D01*
X0Y1965D02*
X25Y1965D01*
X0Y1964D02*
X23Y1964D01*
X0Y1963D02*
X22Y1963D01*
X0Y1962D02*
X20Y1962D01*
X0Y1961D02*
X18Y1961D01*
X0Y1960D02*
X15Y1960D01*
X0Y1959D02*
X12Y1959D01*
X0Y1958D02*
X6Y1958D01*
X111Y1241D02*
X193Y1241D01*
X411Y1241D02*
X493Y1241D01*
X711Y1241D02*
X793Y1241D01*
X1011Y1241D02*
X1093Y1241D01*
X1311Y1241D02*
X1393Y1241D01*
X1611Y1241D02*
X1693Y1241D01*
X1911Y1241D02*
X1993Y1241D01*
X2211Y1241D02*
X2293Y1241D01*
X111Y1240D02*
X194Y1240D01*
X411Y1240D02*
X494Y1240D01*
X711Y1240D02*
X794Y1240D01*
X1011Y1240D02*
X1094Y1240D01*
X1311Y1240D02*
X1394Y1240D01*
X1611Y1240D02*
X1694Y1240D01*
X1911Y1240D02*
X1994Y1240D01*
X2210Y1240D02*
X2294Y1240D01*
X111Y1239D02*
X194Y1239D01*
X411Y1239D02*
X494Y1239D01*
X711Y1239D02*
X794Y1239D01*
X1011Y1239D02*
X1094Y1239D01*
X1311Y1239D02*
X1394Y1239D01*
X1611Y1239D02*
X1694Y1239D01*
X1911Y1239D02*
X1994Y1239D01*
X2210Y1239D02*
X2294Y1239D01*
X111Y1238D02*
X194Y1238D01*
X411Y1238D02*
X494Y1238D01*
X711Y1238D02*
X794Y1238D01*
X1011Y1238D02*
X1094Y1238D01*
X1311Y1238D02*
X1394Y1238D01*
X1611Y1238D02*
X1694Y1238D01*
X1911Y1238D02*
X1994Y1238D01*
X2210Y1238D02*
X2294Y1238D01*
X111Y1237D02*
X194Y1237D01*
X411Y1237D02*
X494Y1237D01*
X711Y1237D02*
X794Y1237D01*
X1011Y1237D02*
X1094Y1237D01*
X1311Y1237D02*
X1394Y1237D01*
X1611Y1237D02*
X1694Y1237D01*
X1911Y1237D02*
X1994Y1237D01*
X2210Y1237D02*
X2294Y1237D01*
X111Y1236D02*
X194Y1236D01*
X411Y1236D02*
X494Y1236D01*
X711Y1236D02*
X794Y1236D01*
X1011Y1236D02*
X1094Y1236D01*
X1311Y1236D02*
X1394Y1236D01*
X1611Y1236D02*
X1694Y1236D01*
X1911Y1236D02*
X1994Y1236D01*
X2210Y1236D02*
X2294Y1236D01*
X111Y1235D02*
X194Y1235D01*
X411Y1235D02*
X494Y1235D01*
X711Y1235D02*
X794Y1235D01*
X1011Y1235D02*
X1094Y1235D01*
X1311Y1235D02*
X1394Y1235D01*
X1611Y1235D02*
X1694Y1235D01*
X1911Y1235D02*
X1994Y1235D01*
X2210Y1235D02*
X2294Y1235D01*
X111Y1234D02*
X194Y1234D01*
X411Y1234D02*
X494Y1234D01*
X711Y1234D02*
X794Y1234D01*
X1011Y1234D02*
X1094Y1234D01*
X1311Y1234D02*
X1394Y1234D01*
X1611Y1234D02*
X1694Y1234D01*
X1911Y1234D02*
X1994Y1234D01*
X2210Y1234D02*
X2294Y1234D01*
X111Y1233D02*
X194Y1233D01*
X411Y1233D02*
X494Y1233D01*
X711Y1233D02*
X794Y1233D01*
X1011Y1233D02*
X1094Y1233D01*
X1311Y1233D02*
X1394Y1233D01*
X1611Y1233D02*
X1694Y1233D01*
X1911Y1233D02*
X1994Y1233D01*
X2210Y1233D02*
X2294Y1233D01*
X111Y1232D02*
X194Y1232D01*
X411Y1232D02*
X494Y1232D01*
X711Y1232D02*
X794Y1232D01*
X1011Y1232D02*
X1094Y1232D01*
X1311Y1232D02*
X1394Y1232D01*
X1611Y1232D02*
X1694Y1232D01*
X1911Y1232D02*
X1994Y1232D01*
X2210Y1232D02*
X2294Y1232D01*
X111Y1231D02*
X194Y1231D01*
X411Y1231D02*
X494Y1231D01*
X711Y1231D02*
X794Y1231D01*
X1011Y1231D02*
X1094Y1231D01*
X1311Y1231D02*
X1394Y1231D01*
X1611Y1231D02*
X1694Y1231D01*
X1911Y1231D02*
X1994Y1231D01*
X2210Y1231D02*
X2294Y1231D01*
X111Y1230D02*
X194Y1230D01*
X411Y1230D02*
X494Y1230D01*
X711Y1230D02*
X794Y1230D01*
X1011Y1230D02*
X1094Y1230D01*
X1311Y1230D02*
X1394Y1230D01*
X1611Y1230D02*
X1694Y1230D01*
X1911Y1230D02*
X1994Y1230D01*
X2210Y1230D02*
X2294Y1230D01*
X111Y1229D02*
X194Y1229D01*
X411Y1229D02*
X494Y1229D01*
X711Y1229D02*
X794Y1229D01*
X1011Y1229D02*
X1094Y1229D01*
X1311Y1229D02*
X1394Y1229D01*
X1611Y1229D02*
X1694Y1229D01*
X1911Y1229D02*
X1994Y1229D01*
X2210Y1229D02*
X2294Y1229D01*
X111Y1228D02*
X194Y1228D01*
X411Y1228D02*
X494Y1228D01*
X711Y1228D02*
X794Y1228D01*
X1011Y1228D02*
X1094Y1228D01*
X1311Y1228D02*
X1394Y1228D01*
X1611Y1228D02*
X1694Y1228D01*
X1911Y1228D02*
X1994Y1228D01*
X2210Y1228D02*
X2294Y1228D01*
X111Y1227D02*
X194Y1227D01*
X411Y1227D02*
X494Y1227D01*
X711Y1227D02*
X794Y1227D01*
X1011Y1227D02*
X1094Y1227D01*
X1311Y1227D02*
X1394Y1227D01*
X1611Y1227D02*
X1694Y1227D01*
X1911Y1227D02*
X1994Y1227D01*
X2210Y1227D02*
X2294Y1227D01*
X111Y1226D02*
X194Y1226D01*
X411Y1226D02*
X494Y1226D01*
X711Y1226D02*
X794Y1226D01*
X1011Y1226D02*
X1094Y1226D01*
X1311Y1226D02*
X1394Y1226D01*
X1611Y1226D02*
X1694Y1226D01*
X1911Y1226D02*
X1994Y1226D01*
X2210Y1226D02*
X2294Y1226D01*
X111Y1225D02*
X194Y1225D01*
X411Y1225D02*
X494Y1225D01*
X711Y1225D02*
X794Y1225D01*
X1011Y1225D02*
X1094Y1225D01*
X1311Y1225D02*
X1394Y1225D01*
X1611Y1225D02*
X1694Y1225D01*
X1911Y1225D02*
X1994Y1225D01*
X2210Y1225D02*
X2294Y1225D01*
X111Y1224D02*
X194Y1224D01*
X411Y1224D02*
X494Y1224D01*
X711Y1224D02*
X794Y1224D01*
X1011Y1224D02*
X1094Y1224D01*
X1311Y1224D02*
X1394Y1224D01*
X1611Y1224D02*
X1694Y1224D01*
X1911Y1224D02*
X1994Y1224D01*
X2210Y1224D02*
X2294Y1224D01*
X111Y1223D02*
X194Y1223D01*
X411Y1223D02*
X494Y1223D01*
X711Y1223D02*
X794Y1223D01*
X1011Y1223D02*
X1094Y1223D01*
X1311Y1223D02*
X1394Y1223D01*
X1611Y1223D02*
X1694Y1223D01*
X1911Y1223D02*
X1994Y1223D01*
X2210Y1223D02*
X2294Y1223D01*
X111Y1222D02*
X194Y1222D01*
X411Y1222D02*
X494Y1222D01*
X711Y1222D02*
X794Y1222D01*
X1011Y1222D02*
X1094Y1222D01*
X1311Y1222D02*
X1394Y1222D01*
X1611Y1222D02*
X1694Y1222D01*
X1911Y1222D02*
X1994Y1222D01*
X2210Y1222D02*
X2294Y1222D01*
X111Y1221D02*
X194Y1221D01*
X411Y1221D02*
X494Y1221D01*
X711Y1221D02*
X794Y1221D01*
X1011Y1221D02*
X1094Y1221D01*
X1311Y1221D02*
X1394Y1221D01*
X1611Y1221D02*
X1694Y1221D01*
X1911Y1221D02*
X1994Y1221D01*
X2210Y1221D02*
X2294Y1221D01*
X111Y1220D02*
X194Y1220D01*
X411Y1220D02*
X494Y1220D01*
X711Y1220D02*
X794Y1220D01*
X1011Y1220D02*
X1094Y1220D01*
X1311Y1220D02*
X1394Y1220D01*
X1611Y1220D02*
X1694Y1220D01*
X1911Y1220D02*
X1994Y1220D01*
X2210Y1220D02*
X2294Y1220D01*
X111Y1219D02*
X194Y1219D01*
X411Y1219D02*
X494Y1219D01*
X711Y1219D02*
X794Y1219D01*
X1011Y1219D02*
X1094Y1219D01*
X1311Y1219D02*
X1394Y1219D01*
X1611Y1219D02*
X1694Y1219D01*
X1911Y1219D02*
X1994Y1219D01*
X2210Y1219D02*
X2294Y1219D01*
X111Y1218D02*
X194Y1218D01*
X411Y1218D02*
X494Y1218D01*
X711Y1218D02*
X794Y1218D01*
X1011Y1218D02*
X1094Y1218D01*
X1311Y1218D02*
X1394Y1218D01*
X1611Y1218D02*
X1694Y1218D01*
X1911Y1218D02*
X1994Y1218D01*
X2210Y1218D02*
X2294Y1218D01*
X111Y1217D02*
X194Y1217D01*
X411Y1217D02*
X494Y1217D01*
X711Y1217D02*
X794Y1217D01*
X1011Y1217D02*
X1094Y1217D01*
X1311Y1217D02*
X1394Y1217D01*
X1611Y1217D02*
X1694Y1217D01*
X1911Y1217D02*
X1994Y1217D01*
X2210Y1217D02*
X2294Y1217D01*
X111Y1216D02*
X194Y1216D01*
X411Y1216D02*
X494Y1216D01*
X711Y1216D02*
X794Y1216D01*
X1011Y1216D02*
X1094Y1216D01*
X1311Y1216D02*
X1394Y1216D01*
X1611Y1216D02*
X1694Y1216D01*
X1911Y1216D02*
X1994Y1216D01*
X2210Y1216D02*
X2294Y1216D01*
X111Y1215D02*
X194Y1215D01*
X411Y1215D02*
X494Y1215D01*
X711Y1215D02*
X794Y1215D01*
X1011Y1215D02*
X1094Y1215D01*
X1311Y1215D02*
X1394Y1215D01*
X1611Y1215D02*
X1694Y1215D01*
X1911Y1215D02*
X1994Y1215D01*
X2210Y1215D02*
X2294Y1215D01*
X111Y1214D02*
X149Y1214D01*
X155Y1214D02*
X194Y1214D01*
X411Y1214D02*
X449Y1214D01*
X455Y1214D02*
X494Y1214D01*
X711Y1214D02*
X749Y1214D01*
X755Y1214D02*
X794Y1214D01*
X1011Y1214D02*
X1049Y1214D01*
X1055Y1214D02*
X1094Y1214D01*
X1311Y1214D02*
X1349Y1214D01*
X1355Y1214D02*
X1394Y1214D01*
X1611Y1214D02*
X1649Y1214D01*
X1655Y1214D02*
X1694Y1214D01*
X1911Y1214D02*
X1949Y1214D01*
X1955Y1214D02*
X1994Y1214D01*
X2210Y1214D02*
X2249Y1214D01*
X2255Y1214D02*
X2294Y1214D01*
X111Y1213D02*
X145Y1213D01*
X159Y1213D02*
X194Y1213D01*
X411Y1213D02*
X445Y1213D01*
X459Y1213D02*
X494Y1213D01*
X711Y1213D02*
X745Y1213D01*
X759Y1213D02*
X794Y1213D01*
X1011Y1213D02*
X1045Y1213D01*
X1059Y1213D02*
X1094Y1213D01*
X1311Y1213D02*
X1345Y1213D01*
X1359Y1213D02*
X1394Y1213D01*
X1611Y1213D02*
X1645Y1213D01*
X1659Y1213D02*
X1694Y1213D01*
X1911Y1213D02*
X1945Y1213D01*
X1959Y1213D02*
X1994Y1213D01*
X2210Y1213D02*
X2245Y1213D01*
X2259Y1213D02*
X2294Y1213D01*
X111Y1212D02*
X144Y1212D01*
X160Y1212D02*
X194Y1212D01*
X411Y1212D02*
X444Y1212D01*
X460Y1212D02*
X494Y1212D01*
X711Y1212D02*
X744Y1212D01*
X760Y1212D02*
X794Y1212D01*
X1011Y1212D02*
X1044Y1212D01*
X1060Y1212D02*
X1094Y1212D01*
X1311Y1212D02*
X1344Y1212D01*
X1360Y1212D02*
X1394Y1212D01*
X1611Y1212D02*
X1644Y1212D01*
X1660Y1212D02*
X1694Y1212D01*
X1911Y1212D02*
X1944Y1212D01*
X1960Y1212D02*
X1994Y1212D01*
X2210Y1212D02*
X2244Y1212D01*
X2260Y1212D02*
X2294Y1212D01*
X111Y1211D02*
X142Y1211D01*
X162Y1211D02*
X194Y1211D01*
X411Y1211D02*
X442Y1211D01*
X462Y1211D02*
X494Y1211D01*
X711Y1211D02*
X742Y1211D01*
X762Y1211D02*
X794Y1211D01*
X1011Y1211D02*
X1042Y1211D01*
X1062Y1211D02*
X1094Y1211D01*
X1311Y1211D02*
X1342Y1211D01*
X1362Y1211D02*
X1394Y1211D01*
X1611Y1211D02*
X1642Y1211D01*
X1662Y1211D02*
X1694Y1211D01*
X1911Y1211D02*
X1942Y1211D01*
X1962Y1211D02*
X1994Y1211D01*
X2210Y1211D02*
X2242Y1211D01*
X2262Y1211D02*
X2294Y1211D01*
X111Y1210D02*
X141Y1210D01*
X163Y1210D02*
X194Y1210D01*
X411Y1210D02*
X441Y1210D01*
X463Y1210D02*
X494Y1210D01*
X711Y1210D02*
X741Y1210D01*
X763Y1210D02*
X794Y1210D01*
X1011Y1210D02*
X1041Y1210D01*
X1063Y1210D02*
X1094Y1210D01*
X1311Y1210D02*
X1341Y1210D01*
X1363Y1210D02*
X1394Y1210D01*
X1611Y1210D02*
X1641Y1210D01*
X1663Y1210D02*
X1694Y1210D01*
X1911Y1210D02*
X1941Y1210D01*
X1963Y1210D02*
X1994Y1210D01*
X2210Y1210D02*
X2241Y1210D01*
X2263Y1210D02*
X2294Y1210D01*
X111Y1209D02*
X140Y1209D01*
X164Y1209D02*
X194Y1209D01*
X411Y1209D02*
X440Y1209D01*
X464Y1209D02*
X494Y1209D01*
X711Y1209D02*
X740Y1209D01*
X764Y1209D02*
X794Y1209D01*
X1011Y1209D02*
X1040Y1209D01*
X1064Y1209D02*
X1094Y1209D01*
X1311Y1209D02*
X1340Y1209D01*
X1364Y1209D02*
X1394Y1209D01*
X1611Y1209D02*
X1640Y1209D01*
X1664Y1209D02*
X1694Y1209D01*
X1911Y1209D02*
X1940Y1209D01*
X1964Y1209D02*
X1994Y1209D01*
X2210Y1209D02*
X2240Y1209D01*
X2264Y1209D02*
X2294Y1209D01*
X111Y1208D02*
X139Y1208D01*
X165Y1208D02*
X194Y1208D01*
X411Y1208D02*
X439Y1208D01*
X465Y1208D02*
X494Y1208D01*
X711Y1208D02*
X739Y1208D01*
X765Y1208D02*
X794Y1208D01*
X1011Y1208D02*
X1039Y1208D01*
X1065Y1208D02*
X1094Y1208D01*
X1311Y1208D02*
X1339Y1208D01*
X1365Y1208D02*
X1394Y1208D01*
X1611Y1208D02*
X1639Y1208D01*
X1665Y1208D02*
X1694Y1208D01*
X1911Y1208D02*
X1939Y1208D01*
X1965Y1208D02*
X1994Y1208D01*
X2210Y1208D02*
X2239Y1208D01*
X2265Y1208D02*
X2294Y1208D01*
X111Y1207D02*
X139Y1207D01*
X165Y1207D02*
X194Y1207D01*
X411Y1207D02*
X439Y1207D01*
X465Y1207D02*
X494Y1207D01*
X711Y1207D02*
X739Y1207D01*
X765Y1207D02*
X794Y1207D01*
X1011Y1207D02*
X1039Y1207D01*
X1065Y1207D02*
X1094Y1207D01*
X1311Y1207D02*
X1339Y1207D01*
X1365Y1207D02*
X1394Y1207D01*
X1611Y1207D02*
X1639Y1207D01*
X1665Y1207D02*
X1694Y1207D01*
X1911Y1207D02*
X1939Y1207D01*
X1965Y1207D02*
X1994Y1207D01*
X2210Y1207D02*
X2239Y1207D01*
X2265Y1207D02*
X2294Y1207D01*
X111Y1206D02*
X138Y1206D01*
X166Y1206D02*
X194Y1206D01*
X411Y1206D02*
X438Y1206D01*
X466Y1206D02*
X494Y1206D01*
X711Y1206D02*
X738Y1206D01*
X766Y1206D02*
X794Y1206D01*
X1011Y1206D02*
X1038Y1206D01*
X1066Y1206D02*
X1094Y1206D01*
X1311Y1206D02*
X1338Y1206D01*
X1366Y1206D02*
X1394Y1206D01*
X1611Y1206D02*
X1638Y1206D01*
X1666Y1206D02*
X1694Y1206D01*
X1911Y1206D02*
X1938Y1206D01*
X1966Y1206D02*
X1994Y1206D01*
X2210Y1206D02*
X2238Y1206D01*
X2266Y1206D02*
X2294Y1206D01*
X111Y1205D02*
X138Y1205D01*
X166Y1205D02*
X194Y1205D01*
X411Y1205D02*
X438Y1205D01*
X466Y1205D02*
X494Y1205D01*
X711Y1205D02*
X738Y1205D01*
X766Y1205D02*
X794Y1205D01*
X1011Y1205D02*
X1038Y1205D01*
X1066Y1205D02*
X1094Y1205D01*
X1311Y1205D02*
X1338Y1205D01*
X1366Y1205D02*
X1394Y1205D01*
X1611Y1205D02*
X1638Y1205D01*
X1666Y1205D02*
X1694Y1205D01*
X1911Y1205D02*
X1938Y1205D01*
X1966Y1205D02*
X1994Y1205D01*
X2210Y1205D02*
X2238Y1205D01*
X2266Y1205D02*
X2294Y1205D01*
X111Y1204D02*
X137Y1204D01*
X167Y1204D02*
X194Y1204D01*
X411Y1204D02*
X437Y1204D01*
X467Y1204D02*
X494Y1204D01*
X711Y1204D02*
X737Y1204D01*
X767Y1204D02*
X794Y1204D01*
X1011Y1204D02*
X1037Y1204D01*
X1067Y1204D02*
X1094Y1204D01*
X1311Y1204D02*
X1337Y1204D01*
X1367Y1204D02*
X1394Y1204D01*
X1611Y1204D02*
X1637Y1204D01*
X1667Y1204D02*
X1694Y1204D01*
X1911Y1204D02*
X1937Y1204D01*
X1967Y1204D02*
X1994Y1204D01*
X2210Y1204D02*
X2237Y1204D01*
X2267Y1204D02*
X2294Y1204D01*
X111Y1203D02*
X137Y1203D01*
X167Y1203D02*
X194Y1203D01*
X411Y1203D02*
X437Y1203D01*
X467Y1203D02*
X494Y1203D01*
X711Y1203D02*
X737Y1203D01*
X767Y1203D02*
X794Y1203D01*
X1011Y1203D02*
X1037Y1203D01*
X1067Y1203D02*
X1094Y1203D01*
X1311Y1203D02*
X1337Y1203D01*
X1367Y1203D02*
X1394Y1203D01*
X1611Y1203D02*
X1637Y1203D01*
X1667Y1203D02*
X1694Y1203D01*
X1911Y1203D02*
X1937Y1203D01*
X1967Y1203D02*
X1994Y1203D01*
X2210Y1203D02*
X2237Y1203D01*
X2267Y1203D02*
X2294Y1203D01*
X111Y1202D02*
X137Y1202D01*
X167Y1202D02*
X194Y1202D01*
X411Y1202D02*
X437Y1202D01*
X467Y1202D02*
X494Y1202D01*
X711Y1202D02*
X737Y1202D01*
X767Y1202D02*
X794Y1202D01*
X1011Y1202D02*
X1037Y1202D01*
X1067Y1202D02*
X1094Y1202D01*
X1311Y1202D02*
X1337Y1202D01*
X1367Y1202D02*
X1394Y1202D01*
X1611Y1202D02*
X1637Y1202D01*
X1667Y1202D02*
X1694Y1202D01*
X1911Y1202D02*
X1937Y1202D01*
X1967Y1202D02*
X1994Y1202D01*
X2210Y1202D02*
X2237Y1202D01*
X2267Y1202D02*
X2294Y1202D01*
X111Y1201D02*
X137Y1201D01*
X167Y1201D02*
X194Y1201D01*
X411Y1201D02*
X437Y1201D01*
X467Y1201D02*
X494Y1201D01*
X711Y1201D02*
X737Y1201D01*
X767Y1201D02*
X794Y1201D01*
X1011Y1201D02*
X1037Y1201D01*
X1067Y1201D02*
X1094Y1201D01*
X1311Y1201D02*
X1337Y1201D01*
X1367Y1201D02*
X1394Y1201D01*
X1611Y1201D02*
X1637Y1201D01*
X1667Y1201D02*
X1694Y1201D01*
X1911Y1201D02*
X1937Y1201D01*
X1967Y1201D02*
X1994Y1201D01*
X2210Y1201D02*
X2237Y1201D01*
X2267Y1201D02*
X2294Y1201D01*
X111Y1200D02*
X137Y1200D01*
X167Y1200D02*
X194Y1200D01*
X411Y1200D02*
X437Y1200D01*
X467Y1200D02*
X494Y1200D01*
X711Y1200D02*
X737Y1200D01*
X767Y1200D02*
X794Y1200D01*
X1011Y1200D02*
X1037Y1200D01*
X1067Y1200D02*
X1094Y1200D01*
X1311Y1200D02*
X1337Y1200D01*
X1367Y1200D02*
X1394Y1200D01*
X1611Y1200D02*
X1637Y1200D01*
X1667Y1200D02*
X1694Y1200D01*
X1911Y1200D02*
X1937Y1200D01*
X1967Y1200D02*
X1994Y1200D01*
X2210Y1200D02*
X2237Y1200D01*
X2267Y1200D02*
X2294Y1200D01*
X111Y1199D02*
X137Y1199D01*
X168Y1199D02*
X194Y1199D01*
X411Y1199D02*
X437Y1199D01*
X468Y1199D02*
X494Y1199D01*
X711Y1199D02*
X737Y1199D01*
X768Y1199D02*
X794Y1199D01*
X1011Y1199D02*
X1037Y1199D01*
X1068Y1199D02*
X1094Y1199D01*
X1311Y1199D02*
X1337Y1199D01*
X1367Y1199D02*
X1394Y1199D01*
X1611Y1199D02*
X1637Y1199D01*
X1667Y1199D02*
X1694Y1199D01*
X1911Y1199D02*
X1937Y1199D01*
X1967Y1199D02*
X1994Y1199D01*
X2210Y1199D02*
X2237Y1199D01*
X2267Y1199D02*
X2294Y1199D01*
X111Y1198D02*
X137Y1198D01*
X167Y1198D02*
X194Y1198D01*
X411Y1198D02*
X437Y1198D01*
X467Y1198D02*
X494Y1198D01*
X711Y1198D02*
X737Y1198D01*
X767Y1198D02*
X794Y1198D01*
X1011Y1198D02*
X1037Y1198D01*
X1067Y1198D02*
X1094Y1198D01*
X1311Y1198D02*
X1337Y1198D01*
X1367Y1198D02*
X1394Y1198D01*
X1611Y1198D02*
X1637Y1198D01*
X1667Y1198D02*
X1694Y1198D01*
X1911Y1198D02*
X1937Y1198D01*
X1967Y1198D02*
X1994Y1198D01*
X2210Y1198D02*
X2237Y1198D01*
X2267Y1198D02*
X2294Y1198D01*
X111Y1197D02*
X137Y1197D01*
X167Y1197D02*
X194Y1197D01*
X411Y1197D02*
X437Y1197D01*
X467Y1197D02*
X494Y1197D01*
X711Y1197D02*
X737Y1197D01*
X767Y1197D02*
X794Y1197D01*
X1011Y1197D02*
X1037Y1197D01*
X1067Y1197D02*
X1094Y1197D01*
X1311Y1197D02*
X1337Y1197D01*
X1367Y1197D02*
X1394Y1197D01*
X1611Y1197D02*
X1637Y1197D01*
X1667Y1197D02*
X1694Y1197D01*
X1911Y1197D02*
X1937Y1197D01*
X1967Y1197D02*
X1994Y1197D01*
X2210Y1197D02*
X2237Y1197D01*
X2267Y1197D02*
X2294Y1197D01*
X111Y1196D02*
X137Y1196D01*
X167Y1196D02*
X194Y1196D01*
X411Y1196D02*
X437Y1196D01*
X467Y1196D02*
X494Y1196D01*
X711Y1196D02*
X737Y1196D01*
X767Y1196D02*
X794Y1196D01*
X1011Y1196D02*
X1037Y1196D01*
X1067Y1196D02*
X1094Y1196D01*
X1311Y1196D02*
X1337Y1196D01*
X1367Y1196D02*
X1394Y1196D01*
X1611Y1196D02*
X1637Y1196D01*
X1667Y1196D02*
X1694Y1196D01*
X1911Y1196D02*
X1937Y1196D01*
X1967Y1196D02*
X1994Y1196D01*
X2210Y1196D02*
X2237Y1196D01*
X2267Y1196D02*
X2294Y1196D01*
X111Y1195D02*
X137Y1195D01*
X167Y1195D02*
X194Y1195D01*
X411Y1195D02*
X437Y1195D01*
X467Y1195D02*
X494Y1195D01*
X711Y1195D02*
X737Y1195D01*
X767Y1195D02*
X794Y1195D01*
X1011Y1195D02*
X1037Y1195D01*
X1067Y1195D02*
X1094Y1195D01*
X1311Y1195D02*
X1337Y1195D01*
X1367Y1195D02*
X1394Y1195D01*
X1611Y1195D02*
X1637Y1195D01*
X1667Y1195D02*
X1694Y1195D01*
X1911Y1195D02*
X1937Y1195D01*
X1967Y1195D02*
X1994Y1195D01*
X2210Y1195D02*
X2237Y1195D01*
X2267Y1195D02*
X2294Y1195D01*
X111Y1194D02*
X137Y1194D01*
X167Y1194D02*
X194Y1194D01*
X411Y1194D02*
X437Y1194D01*
X467Y1194D02*
X494Y1194D01*
X711Y1194D02*
X737Y1194D01*
X767Y1194D02*
X794Y1194D01*
X1011Y1194D02*
X1037Y1194D01*
X1067Y1194D02*
X1094Y1194D01*
X1311Y1194D02*
X1337Y1194D01*
X1367Y1194D02*
X1394Y1194D01*
X1611Y1194D02*
X1637Y1194D01*
X1667Y1194D02*
X1694Y1194D01*
X1911Y1194D02*
X1937Y1194D01*
X1967Y1194D02*
X1994Y1194D01*
X2210Y1194D02*
X2237Y1194D01*
X2267Y1194D02*
X2294Y1194D01*
X111Y1193D02*
X138Y1193D01*
X166Y1193D02*
X194Y1193D01*
X411Y1193D02*
X438Y1193D01*
X466Y1193D02*
X494Y1193D01*
X711Y1193D02*
X738Y1193D01*
X766Y1193D02*
X794Y1193D01*
X1011Y1193D02*
X1038Y1193D01*
X1066Y1193D02*
X1094Y1193D01*
X1311Y1193D02*
X1338Y1193D01*
X1366Y1193D02*
X1394Y1193D01*
X1611Y1193D02*
X1638Y1193D01*
X1666Y1193D02*
X1694Y1193D01*
X1911Y1193D02*
X1938Y1193D01*
X1966Y1193D02*
X1994Y1193D01*
X2210Y1193D02*
X2238Y1193D01*
X2266Y1193D02*
X2294Y1193D01*
X111Y1192D02*
X138Y1192D01*
X166Y1192D02*
X194Y1192D01*
X411Y1192D02*
X438Y1192D01*
X466Y1192D02*
X494Y1192D01*
X711Y1192D02*
X738Y1192D01*
X766Y1192D02*
X794Y1192D01*
X1011Y1192D02*
X1038Y1192D01*
X1066Y1192D02*
X1094Y1192D01*
X1311Y1192D02*
X1338Y1192D01*
X1366Y1192D02*
X1394Y1192D01*
X1611Y1192D02*
X1638Y1192D01*
X1666Y1192D02*
X1694Y1192D01*
X1911Y1192D02*
X1938Y1192D01*
X1966Y1192D02*
X1994Y1192D01*
X2210Y1192D02*
X2238Y1192D01*
X2266Y1192D02*
X2294Y1192D01*
X111Y1191D02*
X139Y1191D01*
X165Y1191D02*
X194Y1191D01*
X411Y1191D02*
X439Y1191D01*
X465Y1191D02*
X494Y1191D01*
X711Y1191D02*
X739Y1191D01*
X765Y1191D02*
X794Y1191D01*
X1011Y1191D02*
X1039Y1191D01*
X1065Y1191D02*
X1094Y1191D01*
X1311Y1191D02*
X1339Y1191D01*
X1365Y1191D02*
X1394Y1191D01*
X1611Y1191D02*
X1639Y1191D01*
X1665Y1191D02*
X1694Y1191D01*
X1911Y1191D02*
X1939Y1191D01*
X1965Y1191D02*
X1994Y1191D01*
X2210Y1191D02*
X2239Y1191D01*
X2265Y1191D02*
X2294Y1191D01*
X111Y1190D02*
X140Y1190D01*
X164Y1190D02*
X194Y1190D01*
X411Y1190D02*
X440Y1190D01*
X464Y1190D02*
X494Y1190D01*
X711Y1190D02*
X740Y1190D01*
X764Y1190D02*
X794Y1190D01*
X1011Y1190D02*
X1040Y1190D01*
X1064Y1190D02*
X1094Y1190D01*
X1311Y1190D02*
X1340Y1190D01*
X1364Y1190D02*
X1394Y1190D01*
X1611Y1190D02*
X1640Y1190D01*
X1664Y1190D02*
X1694Y1190D01*
X1911Y1190D02*
X1940Y1190D01*
X1964Y1190D02*
X1994Y1190D01*
X2210Y1190D02*
X2240Y1190D01*
X2264Y1190D02*
X2294Y1190D01*
X111Y1189D02*
X141Y1189D01*
X163Y1189D02*
X194Y1189D01*
X411Y1189D02*
X441Y1189D01*
X463Y1189D02*
X494Y1189D01*
X711Y1189D02*
X741Y1189D01*
X763Y1189D02*
X794Y1189D01*
X1011Y1189D02*
X1041Y1189D01*
X1063Y1189D02*
X1094Y1189D01*
X1311Y1189D02*
X1341Y1189D01*
X1363Y1189D02*
X1394Y1189D01*
X1611Y1189D02*
X1641Y1189D01*
X1663Y1189D02*
X1694Y1189D01*
X1911Y1189D02*
X1941Y1189D01*
X1963Y1189D02*
X1994Y1189D01*
X2210Y1189D02*
X2241Y1189D01*
X2263Y1189D02*
X2294Y1189D01*
X111Y1188D02*
X142Y1188D01*
X162Y1188D02*
X194Y1188D01*
X411Y1188D02*
X442Y1188D01*
X462Y1188D02*
X494Y1188D01*
X711Y1188D02*
X742Y1188D01*
X762Y1188D02*
X794Y1188D01*
X1011Y1188D02*
X1042Y1188D01*
X1062Y1188D02*
X1094Y1188D01*
X1311Y1188D02*
X1342Y1188D01*
X1362Y1188D02*
X1394Y1188D01*
X1611Y1188D02*
X1642Y1188D01*
X1662Y1188D02*
X1694Y1188D01*
X1911Y1188D02*
X1942Y1188D01*
X1962Y1188D02*
X1994Y1188D01*
X2210Y1188D02*
X2242Y1188D01*
X2262Y1188D02*
X2294Y1188D01*
X111Y1187D02*
X143Y1187D01*
X161Y1187D02*
X194Y1187D01*
X411Y1187D02*
X443Y1187D01*
X461Y1187D02*
X494Y1187D01*
X711Y1187D02*
X743Y1187D01*
X761Y1187D02*
X794Y1187D01*
X1011Y1187D02*
X1043Y1187D01*
X1061Y1187D02*
X1094Y1187D01*
X1311Y1187D02*
X1343Y1187D01*
X1361Y1187D02*
X1394Y1187D01*
X1611Y1187D02*
X1643Y1187D01*
X1661Y1187D02*
X1694Y1187D01*
X1911Y1187D02*
X1943Y1187D01*
X1961Y1187D02*
X1994Y1187D01*
X2210Y1187D02*
X2243Y1187D01*
X2261Y1187D02*
X2294Y1187D01*
X111Y1186D02*
X144Y1186D01*
X160Y1186D02*
X194Y1186D01*
X411Y1186D02*
X444Y1186D01*
X460Y1186D02*
X494Y1186D01*
X711Y1186D02*
X744Y1186D01*
X760Y1186D02*
X794Y1186D01*
X1011Y1186D02*
X1044Y1186D01*
X1060Y1186D02*
X1094Y1186D01*
X1311Y1186D02*
X1344Y1186D01*
X1360Y1186D02*
X1394Y1186D01*
X1611Y1186D02*
X1644Y1186D01*
X1660Y1186D02*
X1694Y1186D01*
X1911Y1186D02*
X1944Y1186D01*
X1960Y1186D02*
X1994Y1186D01*
X2210Y1186D02*
X2244Y1186D01*
X2260Y1186D02*
X2294Y1186D01*
X111Y1185D02*
X147Y1185D01*
X157Y1185D02*
X194Y1185D01*
X411Y1185D02*
X447Y1185D01*
X457Y1185D02*
X494Y1185D01*
X711Y1185D02*
X747Y1185D01*
X757Y1185D02*
X794Y1185D01*
X1011Y1185D02*
X1047Y1185D01*
X1057Y1185D02*
X1094Y1185D01*
X1311Y1185D02*
X1347Y1185D01*
X1357Y1185D02*
X1394Y1185D01*
X1611Y1185D02*
X1647Y1185D01*
X1657Y1185D02*
X1694Y1185D01*
X1911Y1185D02*
X1947Y1185D01*
X1957Y1185D02*
X1994Y1185D01*
X2210Y1185D02*
X2247Y1185D01*
X2257Y1185D02*
X2294Y1185D01*
X111Y1184D02*
X194Y1184D01*
X411Y1184D02*
X494Y1184D01*
X711Y1184D02*
X794Y1184D01*
X1011Y1184D02*
X1094Y1184D01*
X1311Y1184D02*
X1394Y1184D01*
X1611Y1184D02*
X1694Y1184D01*
X1911Y1184D02*
X1994Y1184D01*
X2210Y1184D02*
X2294Y1184D01*
X111Y1183D02*
X194Y1183D01*
X411Y1183D02*
X494Y1183D01*
X711Y1183D02*
X794Y1183D01*
X1011Y1183D02*
X1094Y1183D01*
X1311Y1183D02*
X1394Y1183D01*
X1611Y1183D02*
X1694Y1183D01*
X1911Y1183D02*
X1994Y1183D01*
X2210Y1183D02*
X2294Y1183D01*
X111Y1182D02*
X194Y1182D01*
X411Y1182D02*
X494Y1182D01*
X711Y1182D02*
X794Y1182D01*
X1011Y1182D02*
X1094Y1182D01*
X1311Y1182D02*
X1394Y1182D01*
X1611Y1182D02*
X1694Y1182D01*
X1911Y1182D02*
X1994Y1182D01*
X2210Y1182D02*
X2294Y1182D01*
X111Y1181D02*
X194Y1181D01*
X411Y1181D02*
X494Y1181D01*
X711Y1181D02*
X794Y1181D01*
X1011Y1181D02*
X1094Y1181D01*
X1311Y1181D02*
X1394Y1181D01*
X1611Y1181D02*
X1694Y1181D01*
X1911Y1181D02*
X1994Y1181D01*
X2210Y1181D02*
X2294Y1181D01*
X111Y1180D02*
X194Y1180D01*
X411Y1180D02*
X494Y1180D01*
X711Y1180D02*
X794Y1180D01*
X1011Y1180D02*
X1094Y1180D01*
X1311Y1180D02*
X1394Y1180D01*
X1611Y1180D02*
X1694Y1180D01*
X1911Y1180D02*
X1994Y1180D01*
X2210Y1180D02*
X2294Y1180D01*
X111Y1179D02*
X194Y1179D01*
X411Y1179D02*
X494Y1179D01*
X711Y1179D02*
X794Y1179D01*
X1011Y1179D02*
X1094Y1179D01*
X1311Y1179D02*
X1394Y1179D01*
X1611Y1179D02*
X1694Y1179D01*
X1911Y1179D02*
X1994Y1179D01*
X2210Y1179D02*
X2294Y1179D01*
X111Y1178D02*
X194Y1178D01*
X411Y1178D02*
X494Y1178D01*
X711Y1178D02*
X794Y1178D01*
X1011Y1178D02*
X1094Y1178D01*
X1311Y1178D02*
X1394Y1178D01*
X1611Y1178D02*
X1694Y1178D01*
X1911Y1178D02*
X1994Y1178D01*
X2210Y1178D02*
X2294Y1178D01*
X111Y1177D02*
X194Y1177D01*
X411Y1177D02*
X494Y1177D01*
X711Y1177D02*
X794Y1177D01*
X1011Y1177D02*
X1094Y1177D01*
X1311Y1177D02*
X1394Y1177D01*
X1611Y1177D02*
X1694Y1177D01*
X1911Y1177D02*
X1994Y1177D01*
X2210Y1177D02*
X2294Y1177D01*
X111Y1176D02*
X194Y1176D01*
X411Y1176D02*
X494Y1176D01*
X711Y1176D02*
X794Y1176D01*
X1011Y1176D02*
X1094Y1176D01*
X1311Y1176D02*
X1394Y1176D01*
X1611Y1176D02*
X1694Y1176D01*
X1911Y1176D02*
X1994Y1176D01*
X2210Y1176D02*
X2294Y1176D01*
X111Y1175D02*
X194Y1175D01*
X411Y1175D02*
X494Y1175D01*
X711Y1175D02*
X794Y1175D01*
X1011Y1175D02*
X1094Y1175D01*
X1311Y1175D02*
X1394Y1175D01*
X1611Y1175D02*
X1694Y1175D01*
X1911Y1175D02*
X1994Y1175D01*
X2210Y1175D02*
X2294Y1175D01*
X111Y1174D02*
X194Y1174D01*
X411Y1174D02*
X494Y1174D01*
X711Y1174D02*
X794Y1174D01*
X1011Y1174D02*
X1094Y1174D01*
X1311Y1174D02*
X1394Y1174D01*
X1611Y1174D02*
X1694Y1174D01*
X1911Y1174D02*
X1994Y1174D01*
X2210Y1174D02*
X2294Y1174D01*
X111Y1173D02*
X194Y1173D01*
X411Y1173D02*
X494Y1173D01*
X711Y1173D02*
X794Y1173D01*
X1011Y1173D02*
X1094Y1173D01*
X1311Y1173D02*
X1394Y1173D01*
X1611Y1173D02*
X1694Y1173D01*
X1911Y1173D02*
X1994Y1173D01*
X2210Y1173D02*
X2294Y1173D01*
X111Y1172D02*
X194Y1172D01*
X411Y1172D02*
X494Y1172D01*
X711Y1172D02*
X794Y1172D01*
X1011Y1172D02*
X1094Y1172D01*
X1311Y1172D02*
X1394Y1172D01*
X1611Y1172D02*
X1694Y1172D01*
X1911Y1172D02*
X1994Y1172D01*
X2210Y1172D02*
X2294Y1172D01*
X111Y1171D02*
X194Y1171D01*
X411Y1171D02*
X494Y1171D01*
X711Y1171D02*
X794Y1171D01*
X1011Y1171D02*
X1094Y1171D01*
X1311Y1171D02*
X1394Y1171D01*
X1611Y1171D02*
X1694Y1171D01*
X1911Y1171D02*
X1994Y1171D01*
X2210Y1171D02*
X2294Y1171D01*
X111Y1170D02*
X194Y1170D01*
X411Y1170D02*
X494Y1170D01*
X711Y1170D02*
X794Y1170D01*
X1011Y1170D02*
X1094Y1170D01*
X1311Y1170D02*
X1394Y1170D01*
X1611Y1170D02*
X1694Y1170D01*
X1911Y1170D02*
X1994Y1170D01*
X2210Y1170D02*
X2294Y1170D01*
X111Y1169D02*
X194Y1169D01*
X411Y1169D02*
X494Y1169D01*
X711Y1169D02*
X794Y1169D01*
X1011Y1169D02*
X1094Y1169D01*
X1311Y1169D02*
X1394Y1169D01*
X1611Y1169D02*
X1694Y1169D01*
X1911Y1169D02*
X1994Y1169D01*
X2210Y1169D02*
X2294Y1169D01*
X111Y1168D02*
X194Y1168D01*
X411Y1168D02*
X494Y1168D01*
X711Y1168D02*
X794Y1168D01*
X1011Y1168D02*
X1094Y1168D01*
X1311Y1168D02*
X1394Y1168D01*
X1611Y1168D02*
X1694Y1168D01*
X1911Y1168D02*
X1994Y1168D01*
X2210Y1168D02*
X2294Y1168D01*
X111Y1167D02*
X194Y1167D01*
X411Y1167D02*
X494Y1167D01*
X711Y1167D02*
X794Y1167D01*
X1011Y1167D02*
X1094Y1167D01*
X1311Y1167D02*
X1394Y1167D01*
X1611Y1167D02*
X1694Y1167D01*
X1911Y1167D02*
X1994Y1167D01*
X2210Y1167D02*
X2294Y1167D01*
X111Y1166D02*
X194Y1166D01*
X411Y1166D02*
X494Y1166D01*
X711Y1166D02*
X794Y1166D01*
X1011Y1166D02*
X1094Y1166D01*
X1311Y1166D02*
X1394Y1166D01*
X1611Y1166D02*
X1694Y1166D01*
X1911Y1166D02*
X1994Y1166D01*
X2210Y1166D02*
X2294Y1166D01*
X111Y1165D02*
X194Y1165D01*
X411Y1165D02*
X494Y1165D01*
X711Y1165D02*
X794Y1165D01*
X1011Y1165D02*
X1094Y1165D01*
X1311Y1165D02*
X1394Y1165D01*
X1611Y1165D02*
X1694Y1165D01*
X1911Y1165D02*
X1994Y1165D01*
X2210Y1165D02*
X2294Y1165D01*
X111Y1164D02*
X194Y1164D01*
X411Y1164D02*
X494Y1164D01*
X711Y1164D02*
X794Y1164D01*
X1011Y1164D02*
X1094Y1164D01*
X1311Y1164D02*
X1394Y1164D01*
X1611Y1164D02*
X1694Y1164D01*
X1911Y1164D02*
X1994Y1164D01*
X2210Y1164D02*
X2294Y1164D01*
X111Y1163D02*
X194Y1163D01*
X411Y1163D02*
X494Y1163D01*
X711Y1163D02*
X794Y1163D01*
X1011Y1163D02*
X1094Y1163D01*
X1311Y1163D02*
X1394Y1163D01*
X1611Y1163D02*
X1694Y1163D01*
X1911Y1163D02*
X1994Y1163D01*
X2210Y1163D02*
X2294Y1163D01*
X111Y1162D02*
X194Y1162D01*
X411Y1162D02*
X494Y1162D01*
X711Y1162D02*
X794Y1162D01*
X1011Y1162D02*
X1094Y1162D01*
X1311Y1162D02*
X1394Y1162D01*
X1611Y1162D02*
X1694Y1162D01*
X1911Y1162D02*
X1994Y1162D01*
X2210Y1162D02*
X2294Y1162D01*
X111Y1161D02*
X194Y1161D01*
X411Y1161D02*
X494Y1161D01*
X711Y1161D02*
X794Y1161D01*
X1011Y1161D02*
X1094Y1161D01*
X1311Y1161D02*
X1394Y1161D01*
X1611Y1161D02*
X1694Y1161D01*
X1911Y1161D02*
X1994Y1161D01*
X2210Y1161D02*
X2294Y1161D01*
X111Y1160D02*
X194Y1160D01*
X411Y1160D02*
X494Y1160D01*
X711Y1160D02*
X794Y1160D01*
X1011Y1160D02*
X1094Y1160D01*
X1311Y1160D02*
X1394Y1160D01*
X1611Y1160D02*
X1694Y1160D01*
X1911Y1160D02*
X1994Y1160D01*
X2210Y1160D02*
X2294Y1160D01*
X111Y1159D02*
X194Y1159D01*
X411Y1159D02*
X494Y1159D01*
X711Y1159D02*
X794Y1159D01*
X1011Y1159D02*
X1094Y1159D01*
X1311Y1159D02*
X1394Y1159D01*
X1611Y1159D02*
X1694Y1159D01*
X1911Y1159D02*
X1994Y1159D01*
X2210Y1159D02*
X2294Y1159D01*
X111Y1158D02*
X194Y1158D01*
X411Y1158D02*
X494Y1158D01*
X711Y1158D02*
X794Y1158D01*
X1011Y1158D02*
X1094Y1158D01*
X1311Y1158D02*
X1394Y1158D01*
X1611Y1158D02*
X1694Y1158D01*
X1911Y1158D02*
X1994Y1158D01*
X2210Y1158D02*
X2294Y1158D01*
X131Y941D02*
X213Y941D01*
X431Y941D02*
X513Y941D01*
X731Y941D02*
X813Y941D01*
X1031Y941D02*
X1113Y941D01*
X1331Y941D02*
X1413Y941D01*
X1631Y941D02*
X1713Y941D01*
X1931Y941D02*
X2013Y941D01*
X2231Y941D02*
X2313Y941D01*
X131Y940D02*
X214Y940D01*
X431Y940D02*
X514Y940D01*
X731Y940D02*
X814Y940D01*
X1031Y940D02*
X1114Y940D01*
X1331Y940D02*
X1414Y940D01*
X1631Y940D02*
X1714Y940D01*
X1931Y940D02*
X2014Y940D01*
X2230Y940D02*
X2314Y940D01*
X131Y939D02*
X214Y939D01*
X431Y939D02*
X514Y939D01*
X731Y939D02*
X814Y939D01*
X1031Y939D02*
X1114Y939D01*
X1331Y939D02*
X1414Y939D01*
X1631Y939D02*
X1714Y939D01*
X1931Y939D02*
X2014Y939D01*
X2230Y939D02*
X2314Y939D01*
X131Y938D02*
X214Y938D01*
X431Y938D02*
X514Y938D01*
X731Y938D02*
X814Y938D01*
X1031Y938D02*
X1114Y938D01*
X1331Y938D02*
X1414Y938D01*
X1631Y938D02*
X1714Y938D01*
X1931Y938D02*
X2014Y938D01*
X2230Y938D02*
X2314Y938D01*
X131Y937D02*
X214Y937D01*
X431Y937D02*
X514Y937D01*
X731Y937D02*
X814Y937D01*
X1031Y937D02*
X1114Y937D01*
X1331Y937D02*
X1414Y937D01*
X1631Y937D02*
X1714Y937D01*
X1931Y937D02*
X2014Y937D01*
X2230Y937D02*
X2314Y937D01*
X131Y936D02*
X214Y936D01*
X431Y936D02*
X514Y936D01*
X731Y936D02*
X814Y936D01*
X1031Y936D02*
X1114Y936D01*
X1331Y936D02*
X1414Y936D01*
X1631Y936D02*
X1714Y936D01*
X1931Y936D02*
X2014Y936D01*
X2230Y936D02*
X2314Y936D01*
X131Y935D02*
X214Y935D01*
X431Y935D02*
X514Y935D01*
X731Y935D02*
X814Y935D01*
X1031Y935D02*
X1114Y935D01*
X1331Y935D02*
X1414Y935D01*
X1631Y935D02*
X1714Y935D01*
X1931Y935D02*
X2014Y935D01*
X2230Y935D02*
X2314Y935D01*
X131Y934D02*
X214Y934D01*
X431Y934D02*
X514Y934D01*
X731Y934D02*
X814Y934D01*
X1031Y934D02*
X1114Y934D01*
X1331Y934D02*
X1414Y934D01*
X1631Y934D02*
X1714Y934D01*
X1931Y934D02*
X2014Y934D01*
X2230Y934D02*
X2314Y934D01*
X131Y933D02*
X214Y933D01*
X431Y933D02*
X514Y933D01*
X731Y933D02*
X814Y933D01*
X1031Y933D02*
X1114Y933D01*
X1331Y933D02*
X1414Y933D01*
X1631Y933D02*
X1714Y933D01*
X1931Y933D02*
X2014Y933D01*
X2230Y933D02*
X2314Y933D01*
X131Y932D02*
X214Y932D01*
X431Y932D02*
X514Y932D01*
X731Y932D02*
X814Y932D01*
X1031Y932D02*
X1114Y932D01*
X1331Y932D02*
X1414Y932D01*
X1631Y932D02*
X1714Y932D01*
X1931Y932D02*
X2014Y932D01*
X2230Y932D02*
X2314Y932D01*
X131Y931D02*
X214Y931D01*
X431Y931D02*
X514Y931D01*
X731Y931D02*
X814Y931D01*
X1031Y931D02*
X1114Y931D01*
X1331Y931D02*
X1414Y931D01*
X1631Y931D02*
X1714Y931D01*
X1931Y931D02*
X2014Y931D01*
X2230Y931D02*
X2314Y931D01*
X131Y930D02*
X214Y930D01*
X431Y930D02*
X514Y930D01*
X731Y930D02*
X814Y930D01*
X1031Y930D02*
X1114Y930D01*
X1331Y930D02*
X1414Y930D01*
X1631Y930D02*
X1714Y930D01*
X1931Y930D02*
X2014Y930D01*
X2230Y930D02*
X2314Y930D01*
X131Y929D02*
X214Y929D01*
X431Y929D02*
X514Y929D01*
X731Y929D02*
X814Y929D01*
X1031Y929D02*
X1114Y929D01*
X1331Y929D02*
X1414Y929D01*
X1631Y929D02*
X1714Y929D01*
X1931Y929D02*
X2014Y929D01*
X2230Y929D02*
X2314Y929D01*
X131Y928D02*
X214Y928D01*
X431Y928D02*
X514Y928D01*
X731Y928D02*
X814Y928D01*
X1031Y928D02*
X1114Y928D01*
X1331Y928D02*
X1414Y928D01*
X1631Y928D02*
X1714Y928D01*
X1931Y928D02*
X2014Y928D01*
X2230Y928D02*
X2314Y928D01*
X131Y927D02*
X214Y927D01*
X431Y927D02*
X514Y927D01*
X731Y927D02*
X814Y927D01*
X1031Y927D02*
X1114Y927D01*
X1331Y927D02*
X1414Y927D01*
X1631Y927D02*
X1714Y927D01*
X1931Y927D02*
X2014Y927D01*
X2230Y927D02*
X2314Y927D01*
X131Y926D02*
X214Y926D01*
X431Y926D02*
X514Y926D01*
X731Y926D02*
X814Y926D01*
X1031Y926D02*
X1114Y926D01*
X1331Y926D02*
X1414Y926D01*
X1631Y926D02*
X1714Y926D01*
X1931Y926D02*
X2014Y926D01*
X2230Y926D02*
X2314Y926D01*
X131Y925D02*
X214Y925D01*
X431Y925D02*
X514Y925D01*
X731Y925D02*
X814Y925D01*
X1031Y925D02*
X1114Y925D01*
X1331Y925D02*
X1414Y925D01*
X1631Y925D02*
X1714Y925D01*
X1931Y925D02*
X2014Y925D01*
X2230Y925D02*
X2314Y925D01*
X131Y924D02*
X214Y924D01*
X431Y924D02*
X514Y924D01*
X731Y924D02*
X814Y924D01*
X1031Y924D02*
X1114Y924D01*
X1331Y924D02*
X1414Y924D01*
X1631Y924D02*
X1714Y924D01*
X1931Y924D02*
X2014Y924D01*
X2230Y924D02*
X2314Y924D01*
X131Y923D02*
X214Y923D01*
X431Y923D02*
X514Y923D01*
X731Y923D02*
X814Y923D01*
X1031Y923D02*
X1114Y923D01*
X1331Y923D02*
X1414Y923D01*
X1631Y923D02*
X1714Y923D01*
X1931Y923D02*
X2014Y923D01*
X2230Y923D02*
X2314Y923D01*
X131Y922D02*
X214Y922D01*
X431Y922D02*
X514Y922D01*
X731Y922D02*
X814Y922D01*
X1031Y922D02*
X1114Y922D01*
X1331Y922D02*
X1414Y922D01*
X1631Y922D02*
X1714Y922D01*
X1931Y922D02*
X2014Y922D01*
X2230Y922D02*
X2314Y922D01*
X131Y921D02*
X214Y921D01*
X431Y921D02*
X514Y921D01*
X731Y921D02*
X814Y921D01*
X1031Y921D02*
X1114Y921D01*
X1331Y921D02*
X1414Y921D01*
X1631Y921D02*
X1714Y921D01*
X1931Y921D02*
X2014Y921D01*
X2230Y921D02*
X2314Y921D01*
X131Y920D02*
X214Y920D01*
X431Y920D02*
X514Y920D01*
X731Y920D02*
X814Y920D01*
X1031Y920D02*
X1114Y920D01*
X1331Y920D02*
X1414Y920D01*
X1631Y920D02*
X1714Y920D01*
X1931Y920D02*
X2014Y920D01*
X2230Y920D02*
X2314Y920D01*
X131Y919D02*
X214Y919D01*
X431Y919D02*
X514Y919D01*
X731Y919D02*
X814Y919D01*
X1031Y919D02*
X1114Y919D01*
X1331Y919D02*
X1414Y919D01*
X1631Y919D02*
X1714Y919D01*
X1931Y919D02*
X2014Y919D01*
X2230Y919D02*
X2314Y919D01*
X131Y918D02*
X214Y918D01*
X431Y918D02*
X514Y918D01*
X731Y918D02*
X814Y918D01*
X1031Y918D02*
X1114Y918D01*
X1331Y918D02*
X1414Y918D01*
X1631Y918D02*
X1714Y918D01*
X1931Y918D02*
X2014Y918D01*
X2230Y918D02*
X2314Y918D01*
X131Y917D02*
X214Y917D01*
X431Y917D02*
X514Y917D01*
X731Y917D02*
X814Y917D01*
X1031Y917D02*
X1114Y917D01*
X1331Y917D02*
X1414Y917D01*
X1631Y917D02*
X1714Y917D01*
X1931Y917D02*
X2014Y917D01*
X2230Y917D02*
X2314Y917D01*
X131Y916D02*
X214Y916D01*
X431Y916D02*
X514Y916D01*
X731Y916D02*
X814Y916D01*
X1031Y916D02*
X1114Y916D01*
X1331Y916D02*
X1414Y916D01*
X1631Y916D02*
X1714Y916D01*
X1931Y916D02*
X2014Y916D01*
X2230Y916D02*
X2314Y916D01*
X131Y915D02*
X214Y915D01*
X431Y915D02*
X514Y915D01*
X731Y915D02*
X814Y915D01*
X1031Y915D02*
X1114Y915D01*
X1331Y915D02*
X1414Y915D01*
X1631Y915D02*
X1714Y915D01*
X1931Y915D02*
X2014Y915D01*
X2230Y915D02*
X2314Y915D01*
X131Y914D02*
X169Y914D01*
X175Y914D02*
X214Y914D01*
X431Y914D02*
X469Y914D01*
X475Y914D02*
X514Y914D01*
X731Y914D02*
X769Y914D01*
X775Y914D02*
X814Y914D01*
X1031Y914D02*
X1069Y914D01*
X1075Y914D02*
X1114Y914D01*
X1331Y914D02*
X1369Y914D01*
X1375Y914D02*
X1414Y914D01*
X1631Y914D02*
X1669Y914D01*
X1675Y914D02*
X1714Y914D01*
X1931Y914D02*
X1969Y914D01*
X1975Y914D02*
X2014Y914D01*
X2230Y914D02*
X2269Y914D01*
X2275Y914D02*
X2314Y914D01*
X131Y913D02*
X165Y913D01*
X179Y913D02*
X214Y913D01*
X431Y913D02*
X465Y913D01*
X479Y913D02*
X514Y913D01*
X731Y913D02*
X765Y913D01*
X779Y913D02*
X814Y913D01*
X1031Y913D02*
X1065Y913D01*
X1079Y913D02*
X1114Y913D01*
X1331Y913D02*
X1365Y913D01*
X1379Y913D02*
X1414Y913D01*
X1631Y913D02*
X1665Y913D01*
X1679Y913D02*
X1714Y913D01*
X1931Y913D02*
X1965Y913D01*
X1979Y913D02*
X2014Y913D01*
X2230Y913D02*
X2265Y913D01*
X2279Y913D02*
X2314Y913D01*
X131Y912D02*
X164Y912D01*
X181Y912D02*
X214Y912D01*
X431Y912D02*
X464Y912D01*
X481Y912D02*
X514Y912D01*
X731Y912D02*
X764Y912D01*
X781Y912D02*
X814Y912D01*
X1031Y912D02*
X1064Y912D01*
X1080Y912D02*
X1114Y912D01*
X1331Y912D02*
X1364Y912D01*
X1380Y912D02*
X1414Y912D01*
X1631Y912D02*
X1664Y912D01*
X1680Y912D02*
X1714Y912D01*
X1931Y912D02*
X1964Y912D01*
X1980Y912D02*
X2014Y912D01*
X2230Y912D02*
X2264Y912D01*
X2280Y912D02*
X2314Y912D01*
X131Y911D02*
X162Y911D01*
X182Y911D02*
X214Y911D01*
X431Y911D02*
X462Y911D01*
X482Y911D02*
X514Y911D01*
X731Y911D02*
X762Y911D01*
X782Y911D02*
X814Y911D01*
X1031Y911D02*
X1062Y911D01*
X1082Y911D02*
X1114Y911D01*
X1331Y911D02*
X1362Y911D01*
X1382Y911D02*
X1414Y911D01*
X1631Y911D02*
X1662Y911D01*
X1682Y911D02*
X1714Y911D01*
X1931Y911D02*
X1962Y911D01*
X1982Y911D02*
X2014Y911D01*
X2230Y911D02*
X2262Y911D01*
X2282Y911D02*
X2314Y911D01*
X131Y910D02*
X161Y910D01*
X183Y910D02*
X214Y910D01*
X431Y910D02*
X461Y910D01*
X483Y910D02*
X514Y910D01*
X731Y910D02*
X761Y910D01*
X783Y910D02*
X814Y910D01*
X1031Y910D02*
X1061Y910D01*
X1083Y910D02*
X1114Y910D01*
X1331Y910D02*
X1361Y910D01*
X1383Y910D02*
X1414Y910D01*
X1631Y910D02*
X1661Y910D01*
X1683Y910D02*
X1714Y910D01*
X1931Y910D02*
X1961Y910D01*
X1983Y910D02*
X2014Y910D01*
X2230Y910D02*
X2261Y910D01*
X2283Y910D02*
X2314Y910D01*
X131Y909D02*
X160Y909D01*
X184Y909D02*
X214Y909D01*
X431Y909D02*
X460Y909D01*
X484Y909D02*
X514Y909D01*
X731Y909D02*
X760Y909D01*
X784Y909D02*
X814Y909D01*
X1031Y909D02*
X1060Y909D01*
X1084Y909D02*
X1114Y909D01*
X1331Y909D02*
X1360Y909D01*
X1384Y909D02*
X1414Y909D01*
X1631Y909D02*
X1660Y909D01*
X1684Y909D02*
X1714Y909D01*
X1931Y909D02*
X1960Y909D01*
X1984Y909D02*
X2014Y909D01*
X2230Y909D02*
X2260Y909D01*
X2284Y909D02*
X2314Y909D01*
X131Y908D02*
X159Y908D01*
X185Y908D02*
X214Y908D01*
X431Y908D02*
X459Y908D01*
X485Y908D02*
X514Y908D01*
X731Y908D02*
X759Y908D01*
X785Y908D02*
X814Y908D01*
X1031Y908D02*
X1059Y908D01*
X1085Y908D02*
X1114Y908D01*
X1331Y908D02*
X1359Y908D01*
X1385Y908D02*
X1414Y908D01*
X1631Y908D02*
X1659Y908D01*
X1685Y908D02*
X1714Y908D01*
X1931Y908D02*
X1959Y908D01*
X1985Y908D02*
X2014Y908D01*
X2230Y908D02*
X2259Y908D01*
X2285Y908D02*
X2314Y908D01*
X131Y907D02*
X159Y907D01*
X185Y907D02*
X214Y907D01*
X431Y907D02*
X459Y907D01*
X485Y907D02*
X514Y907D01*
X731Y907D02*
X759Y907D01*
X785Y907D02*
X814Y907D01*
X1031Y907D02*
X1059Y907D01*
X1085Y907D02*
X1114Y907D01*
X1331Y907D02*
X1359Y907D01*
X1385Y907D02*
X1414Y907D01*
X1631Y907D02*
X1659Y907D01*
X1685Y907D02*
X1714Y907D01*
X1931Y907D02*
X1959Y907D01*
X1985Y907D02*
X2014Y907D01*
X2230Y907D02*
X2259Y907D01*
X2285Y907D02*
X2314Y907D01*
X131Y906D02*
X158Y906D01*
X186Y906D02*
X214Y906D01*
X431Y906D02*
X458Y906D01*
X486Y906D02*
X514Y906D01*
X731Y906D02*
X758Y906D01*
X786Y906D02*
X814Y906D01*
X1031Y906D02*
X1058Y906D01*
X1086Y906D02*
X1114Y906D01*
X1331Y906D02*
X1358Y906D01*
X1386Y906D02*
X1414Y906D01*
X1631Y906D02*
X1658Y906D01*
X1686Y906D02*
X1714Y906D01*
X1931Y906D02*
X1958Y906D01*
X1986Y906D02*
X2014Y906D01*
X2230Y906D02*
X2258Y906D01*
X2286Y906D02*
X2314Y906D01*
X131Y905D02*
X158Y905D01*
X186Y905D02*
X214Y905D01*
X431Y905D02*
X458Y905D01*
X486Y905D02*
X514Y905D01*
X731Y905D02*
X758Y905D01*
X786Y905D02*
X814Y905D01*
X1031Y905D02*
X1058Y905D01*
X1086Y905D02*
X1114Y905D01*
X1331Y905D02*
X1358Y905D01*
X1386Y905D02*
X1414Y905D01*
X1631Y905D02*
X1658Y905D01*
X1686Y905D02*
X1714Y905D01*
X1931Y905D02*
X1958Y905D01*
X1986Y905D02*
X2014Y905D01*
X2230Y905D02*
X2258Y905D01*
X2286Y905D02*
X2314Y905D01*
X131Y904D02*
X157Y904D01*
X187Y904D02*
X214Y904D01*
X431Y904D02*
X457Y904D01*
X487Y904D02*
X514Y904D01*
X731Y904D02*
X757Y904D01*
X787Y904D02*
X814Y904D01*
X1031Y904D02*
X1057Y904D01*
X1087Y904D02*
X1114Y904D01*
X1331Y904D02*
X1357Y904D01*
X1387Y904D02*
X1414Y904D01*
X1631Y904D02*
X1657Y904D01*
X1687Y904D02*
X1714Y904D01*
X1931Y904D02*
X1957Y904D01*
X1987Y904D02*
X2014Y904D01*
X2230Y904D02*
X2257Y904D01*
X2287Y904D02*
X2314Y904D01*
X131Y903D02*
X157Y903D01*
X187Y903D02*
X214Y903D01*
X431Y903D02*
X457Y903D01*
X487Y903D02*
X514Y903D01*
X731Y903D02*
X757Y903D01*
X787Y903D02*
X814Y903D01*
X1031Y903D02*
X1057Y903D01*
X1087Y903D02*
X1114Y903D01*
X1331Y903D02*
X1357Y903D01*
X1387Y903D02*
X1414Y903D01*
X1631Y903D02*
X1657Y903D01*
X1687Y903D02*
X1714Y903D01*
X1931Y903D02*
X1957Y903D01*
X1987Y903D02*
X2014Y903D01*
X2230Y903D02*
X2257Y903D01*
X2287Y903D02*
X2314Y903D01*
X131Y902D02*
X157Y902D01*
X187Y902D02*
X214Y902D01*
X431Y902D02*
X457Y902D01*
X487Y902D02*
X514Y902D01*
X731Y902D02*
X757Y902D01*
X787Y902D02*
X814Y902D01*
X1031Y902D02*
X1057Y902D01*
X1087Y902D02*
X1114Y902D01*
X1331Y902D02*
X1357Y902D01*
X1387Y902D02*
X1414Y902D01*
X1631Y902D02*
X1657Y902D01*
X1687Y902D02*
X1714Y902D01*
X1931Y902D02*
X1957Y902D01*
X1987Y902D02*
X2014Y902D01*
X2230Y902D02*
X2257Y902D01*
X2287Y902D02*
X2314Y902D01*
X131Y901D02*
X157Y901D01*
X187Y901D02*
X214Y901D01*
X431Y901D02*
X457Y901D01*
X487Y901D02*
X514Y901D01*
X731Y901D02*
X757Y901D01*
X787Y901D02*
X814Y901D01*
X1031Y901D02*
X1057Y901D01*
X1087Y901D02*
X1114Y901D01*
X1331Y901D02*
X1357Y901D01*
X1387Y901D02*
X1414Y901D01*
X1631Y901D02*
X1657Y901D01*
X1687Y901D02*
X1714Y901D01*
X1931Y901D02*
X1957Y901D01*
X1987Y901D02*
X2014Y901D01*
X2230Y901D02*
X2257Y901D01*
X2287Y901D02*
X2314Y901D01*
X131Y900D02*
X157Y900D01*
X187Y900D02*
X214Y900D01*
X431Y900D02*
X457Y900D01*
X487Y900D02*
X514Y900D01*
X731Y900D02*
X757Y900D01*
X787Y900D02*
X814Y900D01*
X1031Y900D02*
X1057Y900D01*
X1087Y900D02*
X1114Y900D01*
X1331Y900D02*
X1357Y900D01*
X1387Y900D02*
X1414Y900D01*
X1631Y900D02*
X1657Y900D01*
X1687Y900D02*
X1714Y900D01*
X1931Y900D02*
X1957Y900D01*
X1987Y900D02*
X2014Y900D01*
X2230Y900D02*
X2257Y900D01*
X2287Y900D02*
X2314Y900D01*
X131Y899D02*
X157Y899D01*
X188Y899D02*
X214Y899D01*
X431Y899D02*
X457Y899D01*
X488Y899D02*
X514Y899D01*
X731Y899D02*
X757Y899D01*
X787Y899D02*
X814Y899D01*
X1031Y899D02*
X1057Y899D01*
X1087Y899D02*
X1114Y899D01*
X1331Y899D02*
X1357Y899D01*
X1387Y899D02*
X1414Y899D01*
X1631Y899D02*
X1657Y899D01*
X1687Y899D02*
X1714Y899D01*
X1931Y899D02*
X1957Y899D01*
X1987Y899D02*
X2014Y899D01*
X2230Y899D02*
X2257Y899D01*
X2287Y899D02*
X2314Y899D01*
X131Y898D02*
X157Y898D01*
X187Y898D02*
X214Y898D01*
X431Y898D02*
X457Y898D01*
X487Y898D02*
X514Y898D01*
X731Y898D02*
X757Y898D01*
X787Y898D02*
X814Y898D01*
X1031Y898D02*
X1057Y898D01*
X1087Y898D02*
X1114Y898D01*
X1331Y898D02*
X1357Y898D01*
X1387Y898D02*
X1414Y898D01*
X1631Y898D02*
X1657Y898D01*
X1687Y898D02*
X1714Y898D01*
X1931Y898D02*
X1957Y898D01*
X1987Y898D02*
X2014Y898D01*
X2230Y898D02*
X2257Y898D01*
X2287Y898D02*
X2314Y898D01*
X131Y897D02*
X157Y897D01*
X187Y897D02*
X214Y897D01*
X431Y897D02*
X457Y897D01*
X487Y897D02*
X514Y897D01*
X731Y897D02*
X757Y897D01*
X787Y897D02*
X814Y897D01*
X1031Y897D02*
X1057Y897D01*
X1087Y897D02*
X1114Y897D01*
X1331Y897D02*
X1357Y897D01*
X1387Y897D02*
X1414Y897D01*
X1631Y897D02*
X1657Y897D01*
X1687Y897D02*
X1714Y897D01*
X1931Y897D02*
X1957Y897D01*
X1987Y897D02*
X2014Y897D01*
X2230Y897D02*
X2257Y897D01*
X2287Y897D02*
X2314Y897D01*
X131Y896D02*
X157Y896D01*
X187Y896D02*
X214Y896D01*
X431Y896D02*
X457Y896D01*
X487Y896D02*
X514Y896D01*
X731Y896D02*
X757Y896D01*
X787Y896D02*
X814Y896D01*
X1031Y896D02*
X1057Y896D01*
X1087Y896D02*
X1114Y896D01*
X1331Y896D02*
X1357Y896D01*
X1387Y896D02*
X1414Y896D01*
X1631Y896D02*
X1657Y896D01*
X1687Y896D02*
X1714Y896D01*
X1931Y896D02*
X1957Y896D01*
X1987Y896D02*
X2014Y896D01*
X2230Y896D02*
X2257Y896D01*
X2287Y896D02*
X2314Y896D01*
X131Y895D02*
X157Y895D01*
X187Y895D02*
X214Y895D01*
X431Y895D02*
X457Y895D01*
X487Y895D02*
X514Y895D01*
X731Y895D02*
X757Y895D01*
X787Y895D02*
X814Y895D01*
X1031Y895D02*
X1057Y895D01*
X1087Y895D02*
X1114Y895D01*
X1331Y895D02*
X1357Y895D01*
X1387Y895D02*
X1414Y895D01*
X1631Y895D02*
X1657Y895D01*
X1687Y895D02*
X1714Y895D01*
X1931Y895D02*
X1957Y895D01*
X1987Y895D02*
X2014Y895D01*
X2230Y895D02*
X2257Y895D01*
X2287Y895D02*
X2314Y895D01*
X131Y894D02*
X157Y894D01*
X187Y894D02*
X214Y894D01*
X431Y894D02*
X457Y894D01*
X487Y894D02*
X514Y894D01*
X731Y894D02*
X757Y894D01*
X787Y894D02*
X814Y894D01*
X1031Y894D02*
X1057Y894D01*
X1087Y894D02*
X1114Y894D01*
X1331Y894D02*
X1357Y894D01*
X1387Y894D02*
X1414Y894D01*
X1631Y894D02*
X1657Y894D01*
X1687Y894D02*
X1714Y894D01*
X1931Y894D02*
X1957Y894D01*
X1987Y894D02*
X2014Y894D01*
X2230Y894D02*
X2257Y894D01*
X2287Y894D02*
X2314Y894D01*
X131Y893D02*
X158Y893D01*
X186Y893D02*
X214Y893D01*
X431Y893D02*
X458Y893D01*
X486Y893D02*
X514Y893D01*
X731Y893D02*
X758Y893D01*
X786Y893D02*
X814Y893D01*
X1031Y893D02*
X1058Y893D01*
X1086Y893D02*
X1114Y893D01*
X1331Y893D02*
X1358Y893D01*
X1386Y893D02*
X1414Y893D01*
X1631Y893D02*
X1658Y893D01*
X1686Y893D02*
X1714Y893D01*
X1931Y893D02*
X1958Y893D01*
X1986Y893D02*
X2014Y893D01*
X2230Y893D02*
X2258Y893D01*
X2286Y893D02*
X2314Y893D01*
X131Y892D02*
X158Y892D01*
X186Y892D02*
X214Y892D01*
X431Y892D02*
X458Y892D01*
X486Y892D02*
X514Y892D01*
X731Y892D02*
X758Y892D01*
X786Y892D02*
X814Y892D01*
X1031Y892D02*
X1058Y892D01*
X1086Y892D02*
X1114Y892D01*
X1331Y892D02*
X1358Y892D01*
X1386Y892D02*
X1414Y892D01*
X1631Y892D02*
X1658Y892D01*
X1686Y892D02*
X1714Y892D01*
X1931Y892D02*
X1958Y892D01*
X1986Y892D02*
X2014Y892D01*
X2230Y892D02*
X2258Y892D01*
X2286Y892D02*
X2314Y892D01*
X131Y891D02*
X159Y891D01*
X185Y891D02*
X214Y891D01*
X431Y891D02*
X459Y891D01*
X485Y891D02*
X514Y891D01*
X731Y891D02*
X759Y891D01*
X785Y891D02*
X814Y891D01*
X1031Y891D02*
X1059Y891D01*
X1085Y891D02*
X1114Y891D01*
X1331Y891D02*
X1359Y891D01*
X1385Y891D02*
X1414Y891D01*
X1631Y891D02*
X1659Y891D01*
X1685Y891D02*
X1714Y891D01*
X1931Y891D02*
X1959Y891D01*
X1985Y891D02*
X2014Y891D01*
X2230Y891D02*
X2259Y891D01*
X2285Y891D02*
X2314Y891D01*
X131Y890D02*
X160Y890D01*
X184Y890D02*
X214Y890D01*
X431Y890D02*
X460Y890D01*
X484Y890D02*
X514Y890D01*
X731Y890D02*
X760Y890D01*
X784Y890D02*
X814Y890D01*
X1031Y890D02*
X1060Y890D01*
X1084Y890D02*
X1114Y890D01*
X1331Y890D02*
X1360Y890D01*
X1384Y890D02*
X1414Y890D01*
X1631Y890D02*
X1660Y890D01*
X1684Y890D02*
X1714Y890D01*
X1931Y890D02*
X1960Y890D01*
X1984Y890D02*
X2014Y890D01*
X2230Y890D02*
X2260Y890D01*
X2284Y890D02*
X2314Y890D01*
X131Y889D02*
X161Y889D01*
X183Y889D02*
X214Y889D01*
X431Y889D02*
X461Y889D01*
X483Y889D02*
X514Y889D01*
X731Y889D02*
X761Y889D01*
X783Y889D02*
X814Y889D01*
X1031Y889D02*
X1061Y889D01*
X1083Y889D02*
X1114Y889D01*
X1331Y889D02*
X1361Y889D01*
X1383Y889D02*
X1414Y889D01*
X1631Y889D02*
X1661Y889D01*
X1683Y889D02*
X1714Y889D01*
X1931Y889D02*
X1961Y889D01*
X1983Y889D02*
X2014Y889D01*
X2230Y889D02*
X2261Y889D01*
X2283Y889D02*
X2314Y889D01*
X131Y888D02*
X162Y888D01*
X182Y888D02*
X214Y888D01*
X431Y888D02*
X462Y888D01*
X482Y888D02*
X514Y888D01*
X731Y888D02*
X762Y888D01*
X782Y888D02*
X814Y888D01*
X1031Y888D02*
X1062Y888D01*
X1082Y888D02*
X1114Y888D01*
X1331Y888D02*
X1362Y888D01*
X1382Y888D02*
X1414Y888D01*
X1631Y888D02*
X1662Y888D01*
X1682Y888D02*
X1714Y888D01*
X1931Y888D02*
X1962Y888D01*
X1982Y888D02*
X2014Y888D01*
X2230Y888D02*
X2262Y888D01*
X2282Y888D02*
X2314Y888D01*
X131Y887D02*
X163Y887D01*
X181Y887D02*
X214Y887D01*
X431Y887D02*
X463Y887D01*
X481Y887D02*
X514Y887D01*
X731Y887D02*
X763Y887D01*
X781Y887D02*
X814Y887D01*
X1031Y887D02*
X1063Y887D01*
X1081Y887D02*
X1114Y887D01*
X1331Y887D02*
X1363Y887D01*
X1381Y887D02*
X1414Y887D01*
X1631Y887D02*
X1663Y887D01*
X1681Y887D02*
X1714Y887D01*
X1931Y887D02*
X1963Y887D01*
X1981Y887D02*
X2014Y887D01*
X2230Y887D02*
X2263Y887D01*
X2281Y887D02*
X2314Y887D01*
X131Y886D02*
X165Y886D01*
X180Y886D02*
X214Y886D01*
X431Y886D02*
X465Y886D01*
X480Y886D02*
X514Y886D01*
X731Y886D02*
X765Y886D01*
X780Y886D02*
X814Y886D01*
X1031Y886D02*
X1065Y886D01*
X1080Y886D02*
X1114Y886D01*
X1331Y886D02*
X1365Y886D01*
X1380Y886D02*
X1414Y886D01*
X1631Y886D02*
X1665Y886D01*
X1680Y886D02*
X1714Y886D01*
X1931Y886D02*
X1965Y886D01*
X1980Y886D02*
X2014Y886D01*
X2230Y886D02*
X2265Y886D01*
X2279Y886D02*
X2314Y886D01*
X131Y885D02*
X167Y885D01*
X177Y885D02*
X214Y885D01*
X431Y885D02*
X467Y885D01*
X477Y885D02*
X514Y885D01*
X731Y885D02*
X767Y885D01*
X777Y885D02*
X814Y885D01*
X1031Y885D02*
X1067Y885D01*
X1077Y885D02*
X1114Y885D01*
X1331Y885D02*
X1367Y885D01*
X1377Y885D02*
X1414Y885D01*
X1631Y885D02*
X1667Y885D01*
X1677Y885D02*
X1714Y885D01*
X1931Y885D02*
X1967Y885D01*
X1977Y885D02*
X2014Y885D01*
X2230Y885D02*
X2267Y885D01*
X2277Y885D02*
X2314Y885D01*
X131Y884D02*
X214Y884D01*
X431Y884D02*
X514Y884D01*
X731Y884D02*
X814Y884D01*
X1031Y884D02*
X1114Y884D01*
X1331Y884D02*
X1414Y884D01*
X1631Y884D02*
X1714Y884D01*
X1931Y884D02*
X2014Y884D01*
X2230Y884D02*
X2314Y884D01*
X131Y883D02*
X214Y883D01*
X431Y883D02*
X514Y883D01*
X731Y883D02*
X814Y883D01*
X1031Y883D02*
X1114Y883D01*
X1331Y883D02*
X1414Y883D01*
X1631Y883D02*
X1714Y883D01*
X1931Y883D02*
X2014Y883D01*
X2230Y883D02*
X2314Y883D01*
X131Y882D02*
X214Y882D01*
X431Y882D02*
X514Y882D01*
X731Y882D02*
X814Y882D01*
X1031Y882D02*
X1114Y882D01*
X1331Y882D02*
X1414Y882D01*
X1631Y882D02*
X1714Y882D01*
X1931Y882D02*
X2014Y882D01*
X2230Y882D02*
X2314Y882D01*
X131Y881D02*
X214Y881D01*
X431Y881D02*
X514Y881D01*
X731Y881D02*
X814Y881D01*
X1031Y881D02*
X1114Y881D01*
X1331Y881D02*
X1414Y881D01*
X1631Y881D02*
X1714Y881D01*
X1931Y881D02*
X2014Y881D01*
X2230Y881D02*
X2314Y881D01*
X131Y880D02*
X214Y880D01*
X431Y880D02*
X514Y880D01*
X731Y880D02*
X814Y880D01*
X1031Y880D02*
X1114Y880D01*
X1331Y880D02*
X1414Y880D01*
X1631Y880D02*
X1714Y880D01*
X1931Y880D02*
X2014Y880D01*
X2230Y880D02*
X2314Y880D01*
X131Y879D02*
X214Y879D01*
X431Y879D02*
X514Y879D01*
X731Y879D02*
X814Y879D01*
X1031Y879D02*
X1114Y879D01*
X1331Y879D02*
X1414Y879D01*
X1631Y879D02*
X1714Y879D01*
X1931Y879D02*
X2014Y879D01*
X2230Y879D02*
X2314Y879D01*
X131Y878D02*
X214Y878D01*
X431Y878D02*
X514Y878D01*
X731Y878D02*
X814Y878D01*
X1031Y878D02*
X1114Y878D01*
X1331Y878D02*
X1414Y878D01*
X1631Y878D02*
X1714Y878D01*
X1931Y878D02*
X2014Y878D01*
X2230Y878D02*
X2314Y878D01*
X131Y877D02*
X214Y877D01*
X431Y877D02*
X514Y877D01*
X731Y877D02*
X814Y877D01*
X1031Y877D02*
X1114Y877D01*
X1331Y877D02*
X1414Y877D01*
X1631Y877D02*
X1714Y877D01*
X1931Y877D02*
X2014Y877D01*
X2230Y877D02*
X2314Y877D01*
X131Y876D02*
X214Y876D01*
X431Y876D02*
X514Y876D01*
X731Y876D02*
X814Y876D01*
X1031Y876D02*
X1114Y876D01*
X1331Y876D02*
X1414Y876D01*
X1631Y876D02*
X1714Y876D01*
X1931Y876D02*
X2014Y876D01*
X2230Y876D02*
X2314Y876D01*
X131Y875D02*
X214Y875D01*
X431Y875D02*
X514Y875D01*
X731Y875D02*
X814Y875D01*
X1031Y875D02*
X1114Y875D01*
X1331Y875D02*
X1414Y875D01*
X1631Y875D02*
X1714Y875D01*
X1931Y875D02*
X2014Y875D01*
X2230Y875D02*
X2314Y875D01*
X131Y874D02*
X214Y874D01*
X431Y874D02*
X514Y874D01*
X731Y874D02*
X814Y874D01*
X1031Y874D02*
X1114Y874D01*
X1331Y874D02*
X1414Y874D01*
X1631Y874D02*
X1714Y874D01*
X1931Y874D02*
X2014Y874D01*
X2230Y874D02*
X2314Y874D01*
X131Y873D02*
X214Y873D01*
X431Y873D02*
X514Y873D01*
X731Y873D02*
X814Y873D01*
X1031Y873D02*
X1114Y873D01*
X1331Y873D02*
X1414Y873D01*
X1631Y873D02*
X1714Y873D01*
X1931Y873D02*
X2014Y873D01*
X2230Y873D02*
X2314Y873D01*
X131Y872D02*
X214Y872D01*
X431Y872D02*
X514Y872D01*
X731Y872D02*
X814Y872D01*
X1031Y872D02*
X1114Y872D01*
X1331Y872D02*
X1414Y872D01*
X1631Y872D02*
X1714Y872D01*
X1931Y872D02*
X2014Y872D01*
X2230Y872D02*
X2314Y872D01*
X131Y871D02*
X214Y871D01*
X431Y871D02*
X514Y871D01*
X731Y871D02*
X814Y871D01*
X1031Y871D02*
X1114Y871D01*
X1331Y871D02*
X1414Y871D01*
X1631Y871D02*
X1714Y871D01*
X1931Y871D02*
X2014Y871D01*
X2230Y871D02*
X2314Y871D01*
X131Y870D02*
X214Y870D01*
X431Y870D02*
X514Y870D01*
X731Y870D02*
X814Y870D01*
X1031Y870D02*
X1114Y870D01*
X1331Y870D02*
X1414Y870D01*
X1631Y870D02*
X1714Y870D01*
X1931Y870D02*
X2014Y870D01*
X2230Y870D02*
X2314Y870D01*
X131Y869D02*
X214Y869D01*
X431Y869D02*
X514Y869D01*
X731Y869D02*
X814Y869D01*
X1031Y869D02*
X1114Y869D01*
X1331Y869D02*
X1414Y869D01*
X1631Y869D02*
X1714Y869D01*
X1931Y869D02*
X2014Y869D01*
X2230Y869D02*
X2314Y869D01*
X131Y868D02*
X214Y868D01*
X431Y868D02*
X514Y868D01*
X731Y868D02*
X814Y868D01*
X1031Y868D02*
X1114Y868D01*
X1331Y868D02*
X1414Y868D01*
X1631Y868D02*
X1714Y868D01*
X1931Y868D02*
X2014Y868D01*
X2230Y868D02*
X2314Y868D01*
X131Y867D02*
X214Y867D01*
X431Y867D02*
X514Y867D01*
X731Y867D02*
X814Y867D01*
X1031Y867D02*
X1114Y867D01*
X1331Y867D02*
X1414Y867D01*
X1631Y867D02*
X1714Y867D01*
X1931Y867D02*
X2014Y867D01*
X2230Y867D02*
X2314Y867D01*
X131Y866D02*
X214Y866D01*
X431Y866D02*
X514Y866D01*
X731Y866D02*
X814Y866D01*
X1031Y866D02*
X1114Y866D01*
X1331Y866D02*
X1414Y866D01*
X1631Y866D02*
X1714Y866D01*
X1931Y866D02*
X2014Y866D01*
X2230Y866D02*
X2314Y866D01*
X131Y865D02*
X214Y865D01*
X431Y865D02*
X514Y865D01*
X731Y865D02*
X814Y865D01*
X1031Y865D02*
X1114Y865D01*
X1331Y865D02*
X1414Y865D01*
X1631Y865D02*
X1714Y865D01*
X1931Y865D02*
X2014Y865D01*
X2230Y865D02*
X2314Y865D01*
X131Y864D02*
X214Y864D01*
X431Y864D02*
X514Y864D01*
X731Y864D02*
X814Y864D01*
X1031Y864D02*
X1114Y864D01*
X1331Y864D02*
X1414Y864D01*
X1631Y864D02*
X1714Y864D01*
X1931Y864D02*
X2014Y864D01*
X2230Y864D02*
X2314Y864D01*
X131Y863D02*
X214Y863D01*
X431Y863D02*
X514Y863D01*
X731Y863D02*
X814Y863D01*
X1031Y863D02*
X1114Y863D01*
X1331Y863D02*
X1414Y863D01*
X1631Y863D02*
X1714Y863D01*
X1931Y863D02*
X2014Y863D01*
X2230Y863D02*
X2314Y863D01*
X131Y862D02*
X214Y862D01*
X431Y862D02*
X514Y862D01*
X731Y862D02*
X814Y862D01*
X1031Y862D02*
X1114Y862D01*
X1331Y862D02*
X1414Y862D01*
X1631Y862D02*
X1714Y862D01*
X1931Y862D02*
X2014Y862D01*
X2230Y862D02*
X2314Y862D01*
X131Y861D02*
X214Y861D01*
X431Y861D02*
X514Y861D01*
X731Y861D02*
X814Y861D01*
X1031Y861D02*
X1114Y861D01*
X1331Y861D02*
X1414Y861D01*
X1631Y861D02*
X1714Y861D01*
X1931Y861D02*
X2014Y861D01*
X2230Y861D02*
X2314Y861D01*
X131Y860D02*
X214Y860D01*
X431Y860D02*
X514Y860D01*
X731Y860D02*
X814Y860D01*
X1031Y860D02*
X1114Y860D01*
X1331Y860D02*
X1414Y860D01*
X1631Y860D02*
X1714Y860D01*
X1931Y860D02*
X2014Y860D01*
X2230Y860D02*
X2314Y860D01*
X131Y859D02*
X214Y859D01*
X431Y859D02*
X514Y859D01*
X731Y859D02*
X814Y859D01*
X1031Y859D02*
X1114Y859D01*
X1331Y859D02*
X1414Y859D01*
X1631Y859D02*
X1714Y859D01*
X1931Y859D02*
X2014Y859D01*
X2230Y859D02*
X2314Y859D01*
X131Y858D02*
X214Y858D01*
X431Y858D02*
X514Y858D01*
X731Y858D02*
X814Y858D01*
X1031Y858D02*
X1114Y858D01*
X1331Y858D02*
X1414Y858D01*
X1631Y858D02*
X1714Y858D01*
X1931Y858D02*
X2014Y858D01*
X2230Y858D02*
X2314Y858D01*
X28Y534D02*
X96Y534D01*
X228Y534D02*
X296Y534D01*
X28Y533D02*
X96Y533D01*
X228Y533D02*
X296Y533D01*
X28Y532D02*
X96Y532D01*
X228Y532D02*
X296Y532D01*
X28Y531D02*
X96Y531D01*
X228Y531D02*
X296Y531D01*
X28Y530D02*
X96Y530D01*
X228Y530D02*
X296Y530D01*
X28Y529D02*
X96Y529D01*
X228Y529D02*
X296Y529D01*
X28Y528D02*
X96Y528D01*
X228Y528D02*
X296Y528D01*
X28Y527D02*
X96Y527D01*
X228Y527D02*
X296Y527D01*
X28Y526D02*
X96Y526D01*
X228Y526D02*
X296Y526D01*
X28Y525D02*
X96Y525D01*
X228Y525D02*
X296Y525D01*
X28Y524D02*
X96Y524D01*
X228Y524D02*
X296Y524D01*
X28Y523D02*
X96Y523D01*
X228Y523D02*
X296Y523D01*
X28Y522D02*
X96Y522D01*
X228Y522D02*
X296Y522D01*
X28Y521D02*
X96Y521D01*
X228Y521D02*
X296Y521D01*
X28Y520D02*
X96Y520D01*
X228Y520D02*
X296Y520D01*
X28Y519D02*
X96Y519D01*
X228Y519D02*
X296Y519D01*
X28Y518D02*
X96Y518D01*
X228Y518D02*
X296Y518D01*
X28Y517D02*
X96Y517D01*
X228Y517D02*
X296Y517D01*
X28Y516D02*
X96Y516D01*
X228Y516D02*
X296Y516D01*
X28Y515D02*
X96Y515D01*
X228Y515D02*
X296Y515D01*
X28Y514D02*
X96Y514D01*
X228Y514D02*
X296Y514D01*
X28Y513D02*
X56Y513D01*
X68Y513D02*
X96Y513D01*
X228Y513D02*
X256Y513D01*
X268Y513D02*
X296Y513D01*
X28Y512D02*
X54Y512D01*
X70Y512D02*
X96Y512D01*
X228Y512D02*
X254Y512D01*
X270Y512D02*
X296Y512D01*
X28Y511D02*
X53Y511D01*
X71Y511D02*
X96Y511D01*
X228Y511D02*
X253Y511D01*
X271Y511D02*
X296Y511D01*
X28Y510D02*
X52Y510D01*
X73Y510D02*
X96Y510D01*
X228Y510D02*
X251Y510D01*
X273Y510D02*
X296Y510D01*
X28Y509D02*
X51Y509D01*
X74Y509D02*
X96Y509D01*
X228Y509D02*
X251Y509D01*
X274Y509D02*
X296Y509D01*
X28Y508D02*
X50Y508D01*
X74Y508D02*
X96Y508D01*
X228Y508D02*
X250Y508D01*
X274Y508D02*
X296Y508D01*
X28Y507D02*
X49Y507D01*
X75Y507D02*
X96Y507D01*
X228Y507D02*
X249Y507D01*
X275Y507D02*
X296Y507D01*
X28Y506D02*
X48Y506D01*
X76Y506D02*
X96Y506D01*
X228Y506D02*
X248Y506D01*
X276Y506D02*
X296Y506D01*
X28Y505D02*
X48Y505D01*
X76Y505D02*
X96Y505D01*
X228Y505D02*
X248Y505D01*
X276Y505D02*
X296Y505D01*
X28Y504D02*
X48Y504D01*
X76Y504D02*
X96Y504D01*
X228Y504D02*
X248Y504D01*
X276Y504D02*
X296Y504D01*
X28Y503D02*
X47Y503D01*
X77Y503D02*
X96Y503D01*
X228Y503D02*
X247Y503D01*
X277Y503D02*
X296Y503D01*
X28Y502D02*
X47Y502D01*
X77Y502D02*
X96Y502D01*
X228Y502D02*
X247Y502D01*
X277Y502D02*
X296Y502D01*
X28Y501D02*
X47Y501D01*
X77Y501D02*
X96Y501D01*
X228Y501D02*
X247Y501D01*
X277Y501D02*
X296Y501D01*
X28Y500D02*
X47Y500D01*
X77Y500D02*
X96Y500D01*
X228Y500D02*
X247Y500D01*
X277Y500D02*
X296Y500D01*
X28Y499D02*
X47Y499D01*
X77Y499D02*
X96Y499D01*
X228Y499D02*
X247Y499D01*
X277Y499D02*
X296Y499D01*
X28Y498D02*
X47Y498D01*
X77Y498D02*
X96Y498D01*
X228Y498D02*
X247Y498D01*
X277Y498D02*
X296Y498D01*
X28Y497D02*
X47Y497D01*
X77Y497D02*
X96Y497D01*
X228Y497D02*
X247Y497D01*
X277Y497D02*
X296Y497D01*
X28Y496D02*
X47Y496D01*
X77Y496D02*
X96Y496D01*
X228Y496D02*
X247Y496D01*
X277Y496D02*
X296Y496D01*
X28Y495D02*
X48Y495D01*
X77Y495D02*
X96Y495D01*
X228Y495D02*
X248Y495D01*
X277Y495D02*
X296Y495D01*
X28Y494D02*
X48Y494D01*
X76Y494D02*
X96Y494D01*
X228Y494D02*
X248Y494D01*
X276Y494D02*
X296Y494D01*
X28Y493D02*
X48Y493D01*
X76Y493D02*
X96Y493D01*
X228Y493D02*
X248Y493D01*
X276Y493D02*
X296Y493D01*
X28Y492D02*
X49Y492D01*
X75Y492D02*
X96Y492D01*
X228Y492D02*
X249Y492D01*
X275Y492D02*
X296Y492D01*
X28Y491D02*
X49Y491D01*
X75Y491D02*
X96Y491D01*
X228Y491D02*
X249Y491D01*
X275Y491D02*
X296Y491D01*
X28Y490D02*
X50Y490D01*
X74Y490D02*
X96Y490D01*
X228Y490D02*
X250Y490D01*
X274Y490D02*
X296Y490D01*
X28Y489D02*
X51Y489D01*
X73Y489D02*
X96Y489D01*
X228Y489D02*
X251Y489D01*
X273Y489D02*
X296Y489D01*
X28Y488D02*
X52Y488D01*
X72Y488D02*
X96Y488D01*
X228Y488D02*
X252Y488D01*
X272Y488D02*
X296Y488D01*
X28Y487D02*
X54Y487D01*
X71Y487D02*
X96Y487D01*
X228Y487D02*
X254Y487D01*
X271Y487D02*
X296Y487D01*
X28Y486D02*
X55Y486D01*
X69Y486D02*
X96Y486D01*
X228Y486D02*
X255Y486D01*
X269Y486D02*
X296Y486D01*
X28Y485D02*
X58Y485D01*
X66Y485D02*
X96Y485D01*
X228Y485D02*
X258Y485D01*
X266Y485D02*
X296Y485D01*
X28Y484D02*
X96Y484D01*
X228Y484D02*
X296Y484D01*
X28Y483D02*
X96Y483D01*
X228Y483D02*
X296Y483D01*
X28Y482D02*
X96Y482D01*
X228Y482D02*
X296Y482D01*
X28Y481D02*
X96Y481D01*
X228Y481D02*
X296Y481D01*
X28Y480D02*
X96Y480D01*
X228Y480D02*
X296Y480D01*
X28Y479D02*
X96Y479D01*
X228Y479D02*
X296Y479D01*
X28Y478D02*
X96Y478D01*
X228Y478D02*
X296Y478D01*
X28Y477D02*
X96Y477D01*
X228Y477D02*
X296Y477D01*
X28Y476D02*
X96Y476D01*
X228Y476D02*
X296Y476D01*
X28Y475D02*
X96Y475D01*
X228Y475D02*
X296Y475D01*
X28Y474D02*
X96Y474D01*
X228Y474D02*
X296Y474D01*
X28Y473D02*
X96Y473D01*
X228Y473D02*
X296Y473D01*
X28Y472D02*
X96Y472D01*
X228Y472D02*
X296Y472D01*
X28Y471D02*
X96Y471D01*
X228Y471D02*
X296Y471D01*
X28Y470D02*
X96Y470D01*
X228Y470D02*
X296Y470D01*
X28Y469D02*
X96Y469D01*
X228Y469D02*
X296Y469D01*
X28Y468D02*
X96Y468D01*
X228Y468D02*
X296Y468D01*
X28Y467D02*
X96Y467D01*
X228Y467D02*
X296Y467D01*
X28Y466D02*
X96Y466D01*
X228Y466D02*
X296Y466D01*
X28Y465D02*
X96Y465D01*
X228Y465D02*
X296Y465D01*
X28Y234D02*
X96Y234D01*
X228Y234D02*
X296Y234D01*
X28Y233D02*
X96Y233D01*
X228Y233D02*
X296Y233D01*
X28Y232D02*
X96Y232D01*
X228Y232D02*
X296Y232D01*
X28Y231D02*
X96Y231D01*
X228Y231D02*
X296Y231D01*
X28Y230D02*
X96Y230D01*
X228Y230D02*
X296Y230D01*
X28Y229D02*
X96Y229D01*
X228Y229D02*
X296Y229D01*
X28Y228D02*
X96Y228D01*
X228Y228D02*
X296Y228D01*
X28Y227D02*
X96Y227D01*
X228Y227D02*
X296Y227D01*
X28Y226D02*
X96Y226D01*
X228Y226D02*
X296Y226D01*
X28Y225D02*
X96Y225D01*
X228Y225D02*
X296Y225D01*
X28Y224D02*
X96Y224D01*
X228Y224D02*
X296Y224D01*
X28Y223D02*
X96Y223D01*
X228Y223D02*
X296Y223D01*
X28Y222D02*
X96Y222D01*
X228Y222D02*
X296Y222D01*
X28Y221D02*
X96Y221D01*
X228Y221D02*
X296Y221D01*
X28Y220D02*
X96Y220D01*
X228Y220D02*
X296Y220D01*
X28Y219D02*
X96Y219D01*
X228Y219D02*
X296Y219D01*
X28Y218D02*
X96Y218D01*
X228Y218D02*
X296Y218D01*
X28Y217D02*
X96Y217D01*
X228Y217D02*
X296Y217D01*
X28Y216D02*
X96Y216D01*
X228Y216D02*
X296Y216D01*
X28Y215D02*
X96Y215D01*
X228Y215D02*
X296Y215D01*
X28Y214D02*
X61Y214D01*
X63Y214D02*
X96Y214D01*
X228Y214D02*
X261Y214D01*
X263Y214D02*
X296Y214D01*
X28Y213D02*
X56Y213D01*
X68Y213D02*
X96Y213D01*
X228Y213D02*
X256Y213D01*
X268Y213D02*
X296Y213D01*
X28Y212D02*
X54Y212D01*
X70Y212D02*
X96Y212D01*
X228Y212D02*
X254Y212D01*
X270Y212D02*
X296Y212D01*
X28Y211D02*
X53Y211D01*
X71Y211D02*
X96Y211D01*
X228Y211D02*
X253Y211D01*
X271Y211D02*
X296Y211D01*
X28Y210D02*
X51Y210D01*
X73Y210D02*
X96Y210D01*
X228Y210D02*
X251Y210D01*
X273Y210D02*
X296Y210D01*
X28Y209D02*
X51Y209D01*
X74Y209D02*
X96Y209D01*
X228Y209D02*
X251Y209D01*
X274Y209D02*
X296Y209D01*
X28Y208D02*
X50Y208D01*
X74Y208D02*
X96Y208D01*
X228Y208D02*
X250Y208D01*
X274Y208D02*
X296Y208D01*
X28Y207D02*
X49Y207D01*
X75Y207D02*
X96Y207D01*
X228Y207D02*
X249Y207D01*
X275Y207D02*
X296Y207D01*
X28Y206D02*
X48Y206D01*
X76Y206D02*
X96Y206D01*
X228Y206D02*
X248Y206D01*
X276Y206D02*
X296Y206D01*
X28Y205D02*
X48Y205D01*
X76Y205D02*
X96Y205D01*
X228Y205D02*
X248Y205D01*
X276Y205D02*
X296Y205D01*
X28Y204D02*
X48Y204D01*
X76Y204D02*
X96Y204D01*
X228Y204D02*
X248Y204D01*
X276Y204D02*
X296Y204D01*
X28Y203D02*
X47Y203D01*
X77Y203D02*
X96Y203D01*
X228Y203D02*
X247Y203D01*
X277Y203D02*
X296Y203D01*
X28Y202D02*
X47Y202D01*
X77Y202D02*
X96Y202D01*
X228Y202D02*
X247Y202D01*
X277Y202D02*
X296Y202D01*
X28Y201D02*
X47Y201D01*
X77Y201D02*
X96Y201D01*
X228Y201D02*
X247Y201D01*
X277Y201D02*
X296Y201D01*
X28Y200D02*
X47Y200D01*
X77Y200D02*
X96Y200D01*
X228Y200D02*
X247Y200D01*
X277Y200D02*
X296Y200D01*
X28Y199D02*
X47Y199D01*
X77Y199D02*
X96Y199D01*
X228Y199D02*
X247Y199D01*
X277Y199D02*
X296Y199D01*
X28Y198D02*
X47Y198D01*
X77Y198D02*
X96Y198D01*
X228Y198D02*
X247Y198D01*
X277Y198D02*
X296Y198D01*
X28Y197D02*
X47Y197D01*
X77Y197D02*
X96Y197D01*
X228Y197D02*
X247Y197D01*
X277Y197D02*
X296Y197D01*
X28Y196D02*
X47Y196D01*
X77Y196D02*
X96Y196D01*
X228Y196D02*
X247Y196D01*
X277Y196D02*
X296Y196D01*
X28Y195D02*
X48Y195D01*
X77Y195D02*
X96Y195D01*
X228Y195D02*
X248Y195D01*
X277Y195D02*
X296Y195D01*
X28Y194D02*
X48Y194D01*
X76Y194D02*
X96Y194D01*
X228Y194D02*
X248Y194D01*
X276Y194D02*
X296Y194D01*
X28Y193D02*
X48Y193D01*
X76Y193D02*
X96Y193D01*
X228Y193D02*
X248Y193D01*
X276Y193D02*
X296Y193D01*
X28Y192D02*
X49Y192D01*
X75Y192D02*
X96Y192D01*
X228Y192D02*
X249Y192D01*
X275Y192D02*
X296Y192D01*
X28Y191D02*
X49Y191D01*
X75Y191D02*
X96Y191D01*
X228Y191D02*
X249Y191D01*
X275Y191D02*
X296Y191D01*
X28Y190D02*
X50Y190D01*
X74Y190D02*
X96Y190D01*
X228Y190D02*
X250Y190D01*
X274Y190D02*
X296Y190D01*
X28Y189D02*
X51Y189D01*
X73Y189D02*
X96Y189D01*
X228Y189D02*
X251Y189D01*
X273Y189D02*
X296Y189D01*
X28Y188D02*
X52Y188D01*
X72Y188D02*
X96Y188D01*
X228Y188D02*
X252Y188D01*
X272Y188D02*
X296Y188D01*
X28Y187D02*
X54Y187D01*
X71Y187D02*
X96Y187D01*
X228Y187D02*
X254Y187D01*
X270Y187D02*
X296Y187D01*
X28Y186D02*
X55Y186D01*
X69Y186D02*
X96Y186D01*
X228Y186D02*
X255Y186D01*
X269Y186D02*
X296Y186D01*
X28Y185D02*
X58Y185D01*
X66Y185D02*
X96Y185D01*
X228Y185D02*
X258Y185D01*
X266Y185D02*
X296Y185D01*
X28Y184D02*
X96Y184D01*
X228Y184D02*
X296Y184D01*
X28Y183D02*
X96Y183D01*
X228Y183D02*
X296Y183D01*
X28Y182D02*
X96Y182D01*
X228Y182D02*
X296Y182D01*
X28Y181D02*
X96Y181D01*
X228Y181D02*
X296Y181D01*
X28Y180D02*
X96Y180D01*
X228Y180D02*
X296Y180D01*
X28Y179D02*
X96Y179D01*
X228Y179D02*
X296Y179D01*
X28Y178D02*
X96Y178D01*
X228Y178D02*
X296Y178D01*
X28Y177D02*
X96Y177D01*
X228Y177D02*
X296Y177D01*
X28Y176D02*
X96Y176D01*
X228Y176D02*
X296Y176D01*
X28Y175D02*
X96Y175D01*
X228Y175D02*
X296Y175D01*
X28Y174D02*
X96Y174D01*
X228Y174D02*
X296Y174D01*
X28Y173D02*
X96Y173D01*
X228Y173D02*
X296Y173D01*
X28Y172D02*
X96Y172D01*
X228Y172D02*
X296Y172D01*
X28Y171D02*
X96Y171D01*
X228Y171D02*
X296Y171D01*
X28Y170D02*
X96Y170D01*
X228Y170D02*
X296Y170D01*
X28Y169D02*
X96Y169D01*
X228Y169D02*
X296Y169D01*
X28Y168D02*
X96Y168D01*
X228Y168D02*
X296Y168D01*
X28Y167D02*
X96Y167D01*
X228Y167D02*
X296Y167D01*
X28Y166D02*
X96Y166D01*
X228Y166D02*
X296Y166D01*
X28Y165D02*
X96Y165D01*
X228Y165D02*
X296Y165D01*
D02*
G04 End of Mask0*
M02*