; NON-PLATED HOLES START AT T1
; THROUGH (PLATED) HOLES START AT T100
M48
INCH
T100C0.015748
T101C0.040000
T102C0.038194
T103C0.039370
%
T100
X001631Y002989
X000631Y002989
X005625Y010489
X001625Y004989
X002125Y001989
X002125Y010489
X004625Y010989
X005125Y010989
X005625Y009989
X002625Y003989
X001625Y010489
X005125Y010489
X002125Y010989
X005125Y009989
X001625Y003989
X002125Y003989
X002625Y010489
X002125Y009989
X001125Y003989
X001631Y001989
X001125Y002989
X002625Y009989
X001125Y001989
X001625Y010989
X001625Y009989
X002125Y004989
X002619Y002989
X002125Y002989
X004625Y009989
X004625Y010489
X005625Y010989
X001125Y004989
X000625Y003989
X002625Y010989
T101
X001625Y007989
X001625Y012989
X022725Y006989
X007725Y008989
X016725Y006989
X001525Y011989
X004625Y005989
X022525Y011989
X016625Y007989
X013625Y007989
X016525Y013989
X010725Y006989
X004625Y012989
X022625Y005989
X001725Y006989
X013725Y006989
X022625Y012989
X004525Y011989
X004725Y006989
X022525Y013989
X007525Y013989
X016625Y005989
X019625Y012989
X010625Y005989
X019625Y007989
X013625Y005989
X007625Y014989
X019525Y013989
X019725Y008989
X019625Y014989
X001525Y013989
X022625Y007989
X007625Y005989
X010625Y007989
X013625Y014989
X010525Y011989
X007625Y012989
X022625Y014989
X019525Y011989
X016625Y012989
X010725Y008989
X016525Y011989
X001725Y008989
X019725Y006989
X004625Y007989
X013525Y013989
X010525Y013989
X013525Y011989
X004625Y014989
X013625Y012989
X007525Y011989
X004725Y008989
X007725Y006989
X010625Y012989
X001625Y014989
X004525Y013989
X016725Y008989
X016625Y014989
X010625Y014989
X022725Y008989
X001625Y005989
X013725Y008989
X019625Y005989
X007625Y007989
T102
X027625Y011989
X026625Y005989
X026625Y018989
X018625Y019989
X022625Y019989
X023625Y019989
X026625Y019989
X020625Y019989
X021625Y000989
X026625Y016989
X008625Y019989
X009625Y000989
X027625Y007989
X007625Y019989
X014625Y000989
X026625Y006989
X026625Y014989
X027625Y018989
X027625Y013989
X026625Y013989
X025625Y000989
X001025Y019989
X027625Y015989
X024625Y000989
X017625Y019989
X026625Y007989
X005025Y019989
X020625Y000989
X027625Y006989
X009625Y019989
X023625Y000989
X003025Y019989
X002625Y000989
X021625Y019989
X027625Y005989
X007625Y000989
X026625Y012989
X013625Y019989
X027625Y012989
X014625Y019989
X026625Y004989
X011625Y000989
X002025Y019989
X016625Y019989
X027625Y003989
X026625Y003989
X006625Y000989
X027625Y014989
X010625Y019989
X013625Y000989
X027625Y010989
X003625Y000989
X026625Y002989
X026625Y009989
X027625Y002989
X015625Y000989
X000625Y000989
X012625Y000989
X006025Y019989
X019625Y019989
X018625Y000989
X012625Y019989
X016625Y000989
X005625Y000989
X027625Y009989
X026625Y017989
X026625Y015989
X022625Y000989
X004625Y000989
X027625Y008989
X011625Y019989
X027625Y004989
X026625Y010989
X010625Y000989
X026625Y011989
X001625Y000989
X027625Y019989
X004025Y019989
X027625Y017989
X019625Y000989
X027625Y016989
X026625Y008989
T103
X002625Y001989
X000625Y001989
X000625Y004989
X002625Y004989
T00
M30
